<svg width="19" height="17" viewBox="0 0 19 17" fill="none" xmlns="http://www.w3.org/2000/svg">
<path d="M17.6602 7.48C18.2235 7.48 18.6802 7.93667 18.6802 8.5C18.6802 9.06333 18.2235 9.52 17.6602 9.52L17.6602 7.48ZM0.61891 9.22129C0.220573 8.82295 0.220572 8.17712 0.618906 7.77879L7.11013 1.28753C7.50847 0.889198 8.15429 0.889197 8.55263 1.28753C8.95097 1.68587 8.95097 2.33169 8.55263 2.73003L2.78265 8.50003L8.55266 14.27C8.95099 14.6683 8.951 15.3142 8.55266 15.7125C8.15433 16.1108 7.5085 16.1108 7.11016 15.7125L0.61891 9.22129ZM17.6602 9.52L1.34016 9.52004L1.34015 7.48004L17.6602 7.48L17.6602 9.52Z" fill="#2D2D2D"/>
</svg>
