<svg width="19" height="17" viewBox="0 0 19 17" fill="none" xmlns="http://www.w3.org/2000/svg">
<path d="M1.33985 7.48C0.776516 7.48 0.319845 7.93667 0.319844 8.5C0.319843 9.06333 0.776511 9.52 1.33984 9.52L1.33985 7.48ZM18.3811 9.22129C18.7794 8.82295 18.7794 8.17712 18.3811 7.77879L11.8899 1.28753C11.4915 0.889198 10.8457 0.889197 10.4474 1.28753C10.049 1.68587 10.049 2.33169 10.4474 2.73003L16.2173 8.50003L10.4473 14.27C10.049 14.6683 10.049 15.3142 10.4473 15.7125C10.8457 16.1108 11.4915 16.1108 11.8898 15.7125L18.3811 9.22129ZM1.33984 9.52L17.6598 9.52004L17.6598 7.48004L1.33985 7.48L1.33984 9.52Z" fill="#2D2D2D"/>
</svg>
