<svg width="80" height="28" viewBox="0 0 80 28" fill="none" xmlns="http://www.w3.org/2000/svg">
<path d="M38.1604 13.1573C36.5553 13.1573 35.244 14.3499 35.244 15.9955C35.244 17.6277 36.5553 18.8329 38.1604 18.8329C39.769 18.8329 41.0802 17.6277 41.0802 15.9955C41.0802 14.3499 39.769 13.1573 38.1604 13.1573ZM38.1604 17.7153C37.2797 17.7153 36.522 17.0055 36.522 15.9955C36.522 14.9721 37.2797 14.2749 38.1604 14.2749C39.0411 14.2749 39.8023 14.9721 39.8023 15.9955C39.8023 17.0055 39.0411 17.7153 38.1604 17.7153ZM31.7971 13.1573C30.1886 13.1573 28.8808 14.3499 28.8808 15.9955C28.8808 17.6277 30.1886 18.8329 31.7971 18.8329C33.4048 18.8329 34.7135 17.6277 34.7135 15.9955C34.7135 14.3499 33.4048 13.1573 31.7971 13.1573ZM31.7971 17.7153C30.9156 17.7153 30.1553 17.0055 30.1553 15.9955C30.1553 14.9721 30.9156 14.2749 31.7971 14.2749C32.6779 14.2749 33.4356 14.9721 33.4356 15.9955C33.4356 17.0055 32.6779 17.7153 31.7971 17.7153ZM24.2251 14.0272V15.2332H27.1748C27.0885 15.9071 26.8579 16.4025 26.5042 16.7478C26.0737 17.1648 25.4031 17.6277 24.2251 17.6277C22.4098 17.6277 20.9884 16.1973 20.9884 14.425C20.9884 12.6527 22.4098 11.2223 24.2251 11.2223C25.2066 11.2223 25.9208 11.5968 26.4479 12.0822L27.3183 11.2323C26.5811 10.5451 25.6005 10.0171 24.2251 10.0171C21.7358 10.0171 19.6438 11.9946 19.6438 14.425C19.6438 16.8554 21.7358 18.8329 24.2251 18.8329C25.5706 18.8329 26.5811 18.4025 27.3756 17.5952C28.1897 16.8003 28.4434 15.6827 28.4434 14.7803C28.4434 14.5001 28.4195 14.2423 28.3767 14.0272H24.2251ZM55.1881 14.9621C54.9481 14.3274 54.2074 13.1573 52.6988 13.1573C51.2039 13.1573 49.9593 14.3074 49.9593 15.9955C49.9593 17.5852 51.1911 18.8329 52.8423 18.8329C54.1775 18.8329 54.9481 18.038 55.265 17.5752L54.2741 16.9304C53.9435 17.4025 53.4933 17.7153 52.8423 17.7153C52.1957 17.7153 51.7318 17.4259 51.4345 16.8554L55.3222 15.2849L55.1881 14.9621ZM51.2244 15.9071C51.1911 14.8128 52.0949 14.2524 52.7424 14.2524C53.2498 14.2524 53.6804 14.5001 53.8239 14.8545L51.2244 15.9071ZM48.0645 18.6602H49.3425V10.3199H48.0645V18.6602ZM45.9716 13.7895H45.9289C45.6419 13.4575 45.0943 13.1573 44.4007 13.1573C42.9451 13.1573 41.6141 14.405 41.6141 16.0047C41.6141 17.5952 42.9451 18.8329 44.4007 18.8329C45.0943 18.8329 45.6419 18.5301 45.9289 18.1882H45.9716V18.5952C45.9716 19.6803 45.3779 20.2633 44.4203 20.2633C43.6396 20.2633 43.1552 19.7128 42.9553 19.2499L41.8439 19.7028C42.1643 20.4551 43.0125 21.3809 44.4203 21.3809C45.9187 21.3809 47.183 20.5201 47.183 18.4259V13.3299H45.9716V13.7895ZM44.51 17.7153C43.6293 17.7153 42.8921 16.9955 42.8921 16.0047C42.8921 15.0047 43.6293 14.2749 44.51 14.2749C45.3779 14.2749 46.0622 15.0047 46.0622 16.0047C46.0622 16.9955 45.3779 17.7153 44.51 17.7153ZM61.1712 10.3199H58.1147V18.6602H59.3893V15.5001H61.1712C62.5867 15.5001 63.9749 14.5001 63.9749 12.9096C63.9749 11.3199 62.5833 10.3199 61.1712 10.3199ZM61.2046 14.3399H59.3893V11.48H61.2046C62.1562 11.48 62.6995 12.2515 62.6995 12.9096C62.6995 13.5551 62.1562 14.3399 61.2046 14.3399ZM69.0833 13.1414C68.1624 13.1414 67.2048 13.5384 66.811 14.4183L67.942 14.8812C68.1854 14.4183 68.6331 14.2682 69.1063 14.2682C69.7675 14.2682 70.4381 14.656 70.4483 15.3408V15.4283C70.2177 15.2982 69.7239 15.1056 69.1166 15.1056C67.8984 15.1056 66.6572 15.7603 66.6572 16.9822C66.6572 18.0998 67.655 18.8195 68.7766 18.8195C69.6342 18.8195 70.1075 18.4417 70.4048 18.0022H70.4483V18.6469H71.6793V15.4475C71.6793 13.9688 70.5483 13.1414 69.0833 13.1414ZM68.9295 17.7119C68.5126 17.7119 67.9317 17.5101 67.9317 17.0055C67.9317 16.36 68.6561 16.1123 69.2832 16.1123C69.8444 16.1123 70.1075 16.2332 70.4483 16.3925C70.3484 17.1648 69.6676 17.7119 68.9295 17.7119ZM76.1641 13.3241L74.6991 16.9396H74.6555L73.1409 13.3241H71.7664L74.0421 18.3767L72.7437 21.1882H74.0755L77.5821 13.3241H76.1641ZM64.6753 18.6602H65.9533V10.3199H64.6753V18.6602Z" fill="#CBCBCB"/>
<path d="M0.686148 4.9128C0.537308 5.06492 0.451172 5.30176 0.451172 5.60847V16.5488C0.451172 16.8555 0.537308 17.0923 0.686148 17.2444L0.722883 17.2778L7.002 11.1497V11.005L0.722883 4.87693L0.686148 4.9128Z" fill="#CBCBCB"/>
<path d="M9.09267 13.1943L7.00195 11.1506V11.0059L9.09521 8.96218L9.14207 8.98877L11.621 10.3659C12.3285 10.7567 12.3285 11.3998 11.621 11.7931L9.14207 13.1677L9.09267 13.1943Z" fill="#CBCBCB"/>
<path d="M9.1425 13.1678L7.00238 11.0783L0.686523 17.2453C0.9215 17.4865 1.30468 17.5156 1.74043 17.2744L9.1425 13.1678Z" fill="#CBCBCB"/>
<path d="M9.1425 8.9879L1.74043 4.88127C1.30468 4.64258 0.9215 4.67164 0.686523 4.91281L7.00238 11.0774L9.1425 8.9879Z" fill="#CBCBCB"/>
<path d="M20.3796 3.07638L22.1434 3.0653C22.1924 3.06499 22.217 3.08745 22.2173 3.13267L22.2327 5.59176L22.4476 5.59041C22.4966 5.5901 22.5212 5.61256 22.5215 5.65779L22.528 6.70361C22.5284 6.7526 22.504 6.77725 22.455 6.77756L21.9519 6.78072C21.9067 6.781 21.8839 6.75665 21.8836 6.70766L21.8804 6.19323L20.207 6.20374L20.2103 6.71817C20.2106 6.76716 20.1862 6.79181 20.1373 6.79212L19.6398 6.79525C19.5908 6.79556 19.5661 6.77121 19.5658 6.72222L19.5592 5.67075C19.559 5.62929 19.5833 5.60841 19.6323 5.6081L19.8076 5.607C19.9618 5.55327 20.0585 5.35668 20.0978 5.01723L20.3065 3.14468C20.31 3.09943 20.3344 3.07666 20.3796 3.07638ZM21.5431 5.5961L21.531 3.66839L20.943 3.67209L20.7662 5.22221C20.7483 5.3693 20.7208 5.49573 20.6838 5.60149L21.5431 5.5961ZM24.3036 3.02346C24.869 3.0199 25.2408 3.1231 25.4193 3.33303C25.5977 3.54297 25.689 3.96828 25.693 4.60896C25.697 5.24964 25.6111 5.67606 25.4353 5.88822C25.2633 6.09659 24.8927 6.20257 24.3236 6.20614C23.7583 6.20969 23.3883 6.10837 23.2137 5.90218C23.0352 5.69225 22.944 5.26694 22.94 4.62626C22.9359 3.98557 23.0218 3.55915 23.1976 3.34699C23.3734 3.13483 23.7421 3.02698 24.3036 3.02346ZM24.3074 3.61703C24.0134 3.61888 23.8254 3.68413 23.7433 3.81279C23.6612 3.94144 23.6214 4.21117 23.624 4.62196C23.6266 5.03275 23.6697 5.30195 23.7534 5.42957C23.8371 5.55341 24.026 5.61441 24.3199 5.61257C24.6139 5.61072 24.8038 5.54734 24.8897 5.42243C24.9718 5.29377 25.0116 5.02405 25.009 4.61326C25.0064 4.20247 24.9633 3.93326 24.8795 3.80565C24.7958 3.67803 24.6051 3.61516 24.3074 3.61703ZM27.594 3.00278C27.9295 3.00067 28.2254 3.01954 28.482 3.05939C28.5423 3.07032 28.5727 3.10405 28.5731 3.16058L28.5752 3.50541C28.5756 3.56195 28.5456 3.5904 28.4853 3.59078L27.5978 3.59636C27.3038 3.5982 27.1158 3.66345 27.0337 3.79211C26.9515 3.91323 26.9117 4.18107 26.9144 4.59563C26.9169 5.00642 26.9601 5.27562 27.0438 5.40324C27.1275 5.53086 27.3164 5.59374 27.6103 5.59189L28.4978 5.58632C28.5581 5.58594 28.5885 5.61401 28.5888 5.67054L28.591 6.01538C28.5914 6.07191 28.5614 6.10602 28.5012 6.11771C28.2452 6.16077 27.9495 6.18336 27.614 6.18547C27.045 6.18904 26.6731 6.08774 26.4984 5.88154C26.3238 5.67535 26.2344 5.24815 26.2303 4.59993C26.2281 4.25321 26.2434 3.98741 26.2762 3.80253C26.3127 3.61385 26.3796 3.45702 26.4768 3.33204C26.5777 3.20703 26.7129 3.12138 26.8822 3.07509C27.0515 3.0288 27.2888 3.0047 27.594 3.00278ZM28.9625 3.02245L31.4782 3.00664C31.5347 3.00629 31.5631 3.03438 31.5635 3.09091L31.5664 3.55446C31.5668 3.61099 31.5387 3.63943 31.4821 3.63979L30.5889 3.6454L30.6041 6.05361C30.6044 6.11014 30.5763 6.13859 30.5198 6.13894L29.9602 6.14246C29.9036 6.14281 29.8752 6.11473 29.8748 6.0582L29.8597 3.64998L28.9665 3.6556C28.91 3.65595 28.8815 3.62786 28.8812 3.57133L28.8783 3.10778C28.8779 3.05125 28.906 3.02281 28.9625 3.02245ZM34.1331 2.98996L34.6475 2.98673C34.7041 2.98637 34.7325 3.01446 34.7329 3.07099L34.7508 5.93145C34.7534 6.33094 34.7062 6.62897 34.6095 6.82556C34.5351 6.98432 34.402 7.09822 34.2102 7.16727C34.0223 7.24006 33.7568 7.27753 33.4138 7.27969C33.0784 7.28179 32.7598 7.26307 32.4581 7.22351C32.409 7.21251 32.3843 7.18251 32.384 7.13352L32.3819 6.79999C32.3816 6.74345 32.4078 6.71502 32.4605 6.71469L33.3707 6.70897C33.6496 6.70722 33.8358 6.66459 33.9295 6.58109C34.0233 6.50135 34.0694 6.34843 34.068 6.1223L34.0678 6.09404C33.857 6.12928 33.6159 6.14776 33.3445 6.14946C32.8282 6.1527 32.479 6.04937 32.2967 5.83946C32.1183 5.62952 32.0272 5.23625 32.0236 4.65963L32.0137 3.08808C32.0134 3.03155 32.0415 3.0031 32.098 3.00275L32.6124 2.99952C32.669 2.99916 32.6974 3.02725 32.6978 3.08378L32.707 4.55923C32.7096 4.96626 32.7546 5.23545 32.8421 5.36681C32.9334 5.49061 33.1354 5.55152 33.4482 5.54956C33.7007 5.54797 33.906 5.53538 34.0642 5.51177L34.0489 3.07529C34.0485 3.01876 34.0766 2.99032 34.1331 2.98996ZM35.5546 2.98103L37.8949 2.96633C37.9515 2.96597 37.9799 2.99406 37.9803 3.05059L37.9988 6.00715C37.9992 6.06368 37.9711 6.09212 37.9146 6.09248L37.3549 6.096C37.2984 6.09635 37.2699 6.06826 37.2696 6.01173L37.2545 3.60352L36.1973 3.61016L36.2125 6.01837C36.2128 6.07491 36.1847 6.10335 36.1282 6.1037L35.5742 6.10718C35.5177 6.10754 35.4892 6.07945 35.4889 6.02292L35.4703 3.06636C35.4699 3.00983 35.498 2.98139 35.5546 2.98103ZM40.9375 2.94721L41.4972 2.94369C41.5537 2.94334 41.5822 2.97142 41.5825 3.02796L41.6011 5.98452C41.6014 6.04105 41.5734 6.06949 41.5168 6.06985L40.9572 6.07336C40.9006 6.07372 40.8722 6.04563 40.8718 5.9891L40.8646 4.84152L39.4514 4.8504L39.4586 5.99798C39.4589 6.05451 39.4308 6.08295 39.3743 6.08331L38.8203 6.08679C38.7638 6.08714 38.7353 6.05906 38.735 6.00253L38.7164 3.04596C38.716 2.98943 38.7441 2.96099 38.8007 2.96063L39.3547 2.95715C39.4112 2.9568 39.4396 2.98489 39.44 3.04142L39.4473 4.21161L40.8606 4.20273L40.8533 3.03254C40.8529 2.97601 40.881 2.94756 40.9375 2.94721ZM43.5871 2.90229C44.1524 2.89874 44.5242 3.00193 44.7027 3.21187C44.8812 3.4218 44.9724 3.84711 44.9764 4.4878C44.9804 5.12848 44.8946 5.5549 44.7188 5.76706C44.5467 5.97543 44.1761 6.0814 43.607 6.08498C43.0417 6.08853 42.6718 5.98721 42.4971 5.78102C42.3186 5.57109 42.2274 5.14578 42.2234 4.50509C42.2193 3.86441 42.3052 3.43799 42.481 3.22583C42.6568 3.01367 43.0255 2.90582 43.5871 2.90229ZM43.5908 3.49587C43.2968 3.49771 43.1088 3.56297 43.0267 3.69162C42.9446 3.82028 42.9048 4.09001 42.9074 4.5008C42.91 4.91159 42.9531 5.18079 43.0368 5.30841C43.1205 5.43225 43.3094 5.49325 43.6033 5.49141C43.8973 5.48956 44.0872 5.42618 44.1731 5.30127C44.2552 5.17261 44.295 4.90288 44.2924 4.49209C44.2898 4.0813 44.2467 3.8121 44.163 3.68449C44.0792 3.55687 43.8885 3.494 43.5908 3.49587ZM48.1033 2.87392C48.5367 2.87119 48.8462 2.93709 49.0317 3.0716C49.2209 3.20232 49.3166 3.42409 49.3185 3.73689C49.3199 3.96301 49.2852 4.13095 49.2143 4.24069C49.1434 4.35043 49.0194 4.42094 48.8425 4.4522L48.8426 4.4635C49.0462 4.48484 49.1898 4.55178 49.2735 4.66432C49.3609 4.77683 49.4053 4.94992 49.4068 5.18358C49.4087 5.50016 49.3178 5.72497 49.134 5.85804C48.9539 5.98731 48.6528 6.05328 48.2307 6.05593C47.6616 6.0595 47.2206 6.0472 46.9076 6.01901C46.8586 6.01555 46.8339 5.98933 46.8336 5.94033L46.8151 2.99508C46.8148 2.95362 46.8392 2.93086 46.8882 2.92678C47.2573 2.89431 47.6623 2.87669 48.1033 2.87392ZM48.0391 3.46226L47.5247 3.4655L47.5295 4.22866L47.9535 4.226C48.2211 4.22432 48.4037 4.19867 48.5014 4.14906C48.599 4.09569 48.6474 3.99551 48.6465 3.84853C48.6456 3.70155 48.5978 3.60009 48.5032 3.54415C48.4124 3.48819 48.2577 3.46089 48.0391 3.46226ZM48.1826 4.70509L47.5325 4.70917L47.5373 5.46669L48.1874 5.4626C48.3909 5.46132 48.5321 5.43405 48.6109 5.3808C48.6934 5.32374 48.7343 5.22738 48.7334 5.09171C48.7325 4.9485 48.6886 4.8489 48.6015 4.79291C48.5145 4.73316 48.3748 4.70388 48.1826 4.70509Z" fill="#CBCBCB"/>
</svg>
