<svg width="41" height="39" viewBox="0 0 41 39" fill="none" xmlns="http://www.w3.org/2000/svg">
<path fill-rule="evenodd" clip-rule="evenodd" d="M7.25293 16.9923C7.49304 17.423 7.93118 17.6086 8.4213 17.7993C9.40897 18.1928 9.15153 18.3513 9.49808 18.6805C9.94365 18.5221 10.1664 18.0171 10.4461 17.8686L10.6714 17.6483C11.5031 17.1136 12.7755 17.9181 13.3893 18.4206C15.8721 20.4627 17.6717 23.7946 17.7212 27.1833C19.1371 28.0522 21.0481 28.0175 22.469 27.2106C22.5432 24.5644 23.5383 22.1386 25.0854 20.2325C25.8602 19.277 27.9395 16.9453 29.3802 17.5641C29.9569 17.8116 30.1426 18.5171 30.7193 18.683C30.7862 18.6161 30.7515 18.6557 30.8184 18.5641C30.853 18.5122 30.8802 18.4626 30.9174 18.4082C31.004 18.277 31.0461 18.2324 31.1525 18.1458C31.7788 17.6433 31.7664 18.0889 32.9793 17.0591C33.0115 16.4353 32.6674 14.8041 32.4323 14.1233C32.3655 13.9303 32.3481 13.8931 32.2466 13.7743C30.2985 13.6505 26.8776 14.007 25.0186 14.507C20.8872 15.6135 21.1125 17.6804 20.0778 17.6507C18.9886 17.621 19.2386 15.1877 13.5651 14.1654C12.9463 14.054 12.3249 14.0417 11.7234 13.9476C10.8595 13.809 8.84459 13.6902 7.88662 13.7817C7.74553 14.356 7.07965 16.3536 7.25293 16.9923Z" fill="#fff"/>
<path fill-rule="evenodd" clip-rule="evenodd" d="M20.1398 32.2531C22.4369 32.2456 24.8528 31.6441 26.5287 30.4931C26.8876 30.2455 27.3579 30.0599 27.0114 29.4831C26.5262 28.6786 26.296 28.2554 25.9544 27.2479C25.3652 27.1018 24.5905 28.191 23.3874 28.0177C22.625 27.9063 23.1151 27.1662 22.1646 27.79C21.9641 27.9237 21.8428 27.9831 21.5854 28.0796C21.0779 28.2727 20.7437 28.3593 20.1447 28.3618C18.4862 28.3692 17.8179 27.5053 17.5753 27.5276C17.4391 27.54 16.8847 28.6044 15.1123 27.5474C14.8351 27.3816 14.6593 27.2008 14.3326 27.2157C14.1741 27.4781 13.991 28.0202 13.8375 28.3445C13.1989 29.7084 12.6691 29.899 13.637 30.4807C15.5999 31.6738 17.6223 32.2555 20.1398 32.2531Z" fill="#fff"/>
<path fill-rule="evenodd" clip-rule="evenodd" d="M9.1561 13.4996C9.78236 12.2199 14.436 13.6754 15.4633 14.017C16.7208 14.4378 18.2258 15.4032 19.0773 16.376C20.6591 18.1855 19.7828 17.3587 22.1394 15.4428C24.0454 13.8957 27.1866 13.1333 29.6174 13.0244C30.4689 12.9848 30.6175 12.9575 31.0853 13.5095H31.5408L31.5828 12.0243C27.7708 11.7149 23.4538 12.7447 21.0551 15.7745C20.8175 16.0715 20.4536 16.7795 20.0774 16.8537C19.8397 16.829 19.0179 15.4725 18.1615 14.7126C15.649 12.4897 12.1488 11.8411 8.64865 12.0169C8.60904 12.3288 8.63627 12.6506 8.6338 12.9699C8.6338 13.5764 8.59419 13.517 9.1561 13.4996Z" fill="#fff"/>
<path fill-rule="evenodd" clip-rule="evenodd" d="M26.2312 27.0146C26.256 27.4428 27.0604 29.1607 27.2931 29.4454C28.0036 29.4132 30.0433 26.9502 30.4839 26.3859C31.0978 25.6012 32.3775 23.2075 32.531 22.1183C32.3825 22.1332 30.667 22.8808 30.9171 21.2445C30.3032 20.9772 30.474 20.8559 30.2883 20.4673C30.1398 20.7247 30.1126 21.153 30.0111 21.4871C29.8848 21.8906 29.8007 22.1084 29.6645 22.4649C29.412 23.1357 29.1199 23.6531 28.7511 24.2571C28.1471 25.2522 27.0778 26.4279 26.2312 27.0146Z" fill="#fff"/>
<path fill-rule="evenodd" clip-rule="evenodd" d="M9.30682 21.2696C9.44049 22.5444 8.58154 22.2969 7.74487 22.1806C7.87359 23.4083 9.16325 25.599 9.77962 26.4704C10.2747 27.1709 12.3515 29.4408 12.9233 29.4755C13.1412 29.1215 13.958 27.4135 13.9828 27.0125C12.2203 25.8218 10.9059 23.6757 10.2351 21.5815C10.146 21.3018 10.0321 20.7176 9.92566 20.5146C9.8316 20.6879 9.87863 20.7919 9.71526 20.9825C9.57664 21.1558 9.4603 21.1558 9.30682 21.2696Z" fill="#fff"/>
<path fill-rule="evenodd" clip-rule="evenodd" d="M9.9707 11.7817C10.8965 11.8436 10.2851 11.4797 11.6564 11.6579C14.6887 12.049 17.8077 13.403 19.5875 16.0344C20.0726 16.7547 20.1395 16.7497 20.5751 16.1012C20.9514 15.5418 21.4366 14.9823 21.8995 14.5566C22.6445 13.8659 23.2213 13.5095 24.1446 12.9971C24.8402 12.6159 26.0407 12.1456 26.8774 11.9723C30.5236 11.2099 29.0211 11.903 30.2389 11.7718V10.9698C28.3676 10.7915 25.7808 11.596 24.1595 12.502C23.1149 13.0887 21.2336 14.5838 20.543 15.616C20.3821 15.8586 20.3425 16.0566 20.0801 16.168C19.9365 16.0641 19.5751 15.4774 19.2508 15.1061C18.9538 14.762 18.5528 14.3858 18.2879 14.1333C16.2235 12.1951 12.9114 10.799 9.97565 10.9574L9.9707 11.7817Z" fill="#fff"/>
<path fill-rule="evenodd" clip-rule="evenodd" d="M31.2166 19.3538C31.0309 19.6509 30.6844 19.7226 30.6027 20.2004C30.4666 20.9702 31.0582 20.7474 31.2092 21.0173C31.3428 21.2673 30.8106 21.901 31.5681 21.9703C32.0137 22.0099 32.4815 21.797 32.7464 21.5371C33.2489 21.042 32.8479 20.6583 32.9617 20.292C33.0261 20.0865 33.1375 20.0197 33.1994 19.7177C33.2736 19.3563 33.2167 19.2721 33.1598 18.9503C33.0706 18.4553 33.5137 18.2894 33.3306 17.5864C33.1523 16.8884 32.7241 17.5369 32.3949 17.7176C31.9914 17.9379 31.1597 18.1211 31.021 18.7275C30.927 19.1484 31.1052 19.0964 31.2166 19.3538Z" fill="#fff"/>
<path fill-rule="evenodd" clip-rule="evenodd" d="M9.5833 20.6708C9.68727 19.6385 9.25655 19.8588 8.98426 19.3539C9.08328 19.1063 9.15506 19.2227 9.19219 18.9628C9.30606 18.1806 8.06096 17.8984 7.69213 17.6632C7.38271 17.4627 7.35795 17.2275 7.01883 17.2523C6.95447 17.4775 6.83813 17.5939 6.84555 17.9528C6.85546 18.3712 7.03368 18.4702 7.06586 18.7227C7.10052 18.99 6.93467 19.1781 6.9916 19.6064C7.03121 19.9232 7.18715 20.0692 7.23666 20.3242C7.35795 20.9777 6.91981 21.2252 7.71688 21.7277C8.22185 22.0446 8.63029 22.1089 9.06595 21.7178C9.08823 21.4084 8.92238 21.1535 9.0412 20.9777C9.20705 20.7945 9.12041 20.9307 9.34814 20.8391C9.60558 20.7376 9.44963 20.7822 9.5833 20.6708Z" fill="#fff"/>
<path fill-rule="evenodd" clip-rule="evenodd" d="M40.3774 12.383C40.2784 12.0588 39.8625 9.24923 39.9813 8.65515C40.0259 8.43236 40.1818 8.1873 40.2016 8.04126C40.3303 6.98428 36.8426 8.13532 35.5851 10.9077C34.7682 12.7073 35.194 14.8039 34.9836 17.0466C34.3598 23.735 31.8621 28.6412 26.3965 31.6884L24.2034 32.7627C24.2603 33.181 25.545 34.4682 25.8 34.7034C26.2035 35.0722 27.4461 36.0524 27.9387 36.1886C28.2407 36.2678 29.8893 35.1415 30.2061 34.9014C31.4611 33.9533 33.1444 32.6315 34.4415 31.9235C35.9044 31.124 37.3129 29.8195 37.9317 28.1659C38.0753 27.7823 38.3104 27.1238 38.1322 26.6139C37.8872 25.9356 37.3871 26.3713 36.9737 26.1213C36.902 25.6683 37.2114 25.2995 37.454 25.042C38.3971 24.0247 38.7337 23.7152 39.2709 22.079C39.5432 21.2523 39.7164 20.4131 39.8204 19.47C40.0902 17.0417 39.0481 17.5095 38.8847 17.2496C38.7634 16.6877 39.1644 16.4649 39.4293 16.1877C40.1546 15.4475 40.1447 14.9772 40.3328 14.2618C40.3897 14.0143 40.4813 12.7246 40.3774 12.383ZM25.3866 33.0226C25.4014 33.0127 25.4163 32.9929 25.4212 32.9879C25.4311 32.9805 25.4485 32.9632 25.4584 32.9558L27.6639 31.7428C28.3471 31.3294 29.1071 30.8195 29.7011 30.2898C30.8349 29.2823 32.0404 27.911 32.9488 26.4678C34.5875 23.8687 35.5009 21.7374 35.8178 18.611C35.8895 17.9278 35.9465 15.8287 36.1594 15.4079C36.6619 15.3683 36.699 16.3337 36.7213 16.7298C36.8351 18.9551 36.4737 21.1532 35.6445 23.1509C34.5157 25.8663 32.3349 28.7031 30.1418 30.4878C29.1665 31.2874 26.5649 32.983 25.3866 33.0226ZM34.3598 30.1784C33.1345 31.5052 30.7433 32.9632 29.1516 33.6761C28.8051 33.832 26.9263 34.5944 26.6589 34.4855C26.7159 34.2801 26.6317 34.436 26.8941 34.3296L27.8421 33.9706C29.9883 33.0399 31.4215 32.1884 33.1518 30.5769C33.7285 30.0348 34.5578 28.9754 34.9959 29.0001C35.0628 29.5323 34.6197 29.8937 34.3598 30.1784ZM36.9515 28.7971C36.6718 29.2798 36.0183 30.265 35.4687 30.3418C35.5133 29.7848 36.5851 28.661 36.0851 27.9877C35.9291 27.7773 35.1618 27.6808 35.7905 27.1411C36.043 26.9233 36.4564 26.7228 36.8698 26.802C37.8599 26.9976 37.2411 28.2996 36.9515 28.7971ZM35.4935 26.7674C33.9439 28.9853 32.122 30.874 29.8546 32.2453C29.0699 32.7181 27.008 33.7776 26.0104 33.837C26.446 33.483 27.3025 33.2305 27.8917 32.9384C32.2953 30.7626 34.1964 27.7451 36.3821 23.542C36.5529 23.2127 36.647 22.8192 37.0109 22.8117C37.3302 23.7969 35.9415 26.1262 35.4935 26.7674ZM38.954 20.5492C38.8129 21.2027 38.35 22.5246 37.7411 22.6187C37.699 21.9454 38.4565 20.3116 37.8401 19.772C37.548 19.5121 36.8351 19.824 37.2807 18.8833C37.6867 18.017 39.6372 17.3932 38.954 20.5492ZM39.3847 13.2915C39.313 14.0093 38.8649 15.5639 38.0753 15.502C38.006 15.1332 38.2733 14.4277 38.2832 13.8683C38.3302 11.6875 37.2386 11.9127 36.8153 12.638C36.642 12.9375 36.4539 13.6529 36.0603 13.6504C35.4489 12.2518 37.6817 8.50415 38.7832 10.2963C39.2065 10.982 39.4912 12.237 39.3847 13.2915Z" fill="#fff"/>
<path fill-rule="evenodd" clip-rule="evenodd" d="M13.6213 31.5795C7.32897 27.9382 5.14817 21.8612 5.1358 14.1183C5.1358 13.2965 5.15312 12.8485 5.02193 12.0885C4.67538 10.0488 2.63816 7.99428 0.680149 7.67496C-0.495647 7.48188 0.197454 8.3136 0.239535 8.87798C0.298944 9.67752 0.561332 10.9919 0.452416 11.888C0.383106 12.4623 0.303895 12.2469 0.303895 12.997C0.303895 12.997 0.185077 14.9599 0.643019 15.6679C0.828671 15.955 0.8559 16.1234 1.08611 16.3412C1.31632 16.564 1.49949 16.7546 1.4079 17.2447C1.1975 17.5813 0.393008 16.9526 0.393008 18.9057C0.393008 20.7374 1.15542 23.3341 2.34854 24.6039C2.6035 24.8787 3.4377 25.5817 3.25205 26.1189C3.04164 26.3862 1.42028 25.6139 2.27428 28.1239C2.80401 29.671 4.29665 31.1315 5.73978 31.9013C7.42303 32.7974 8.49239 33.8494 9.99493 34.8668C10.3885 35.1391 11.9381 36.248 12.2376 36.196C12.6881 36.1168 14.0446 35.0326 14.3912 34.7306C14.7105 34.4509 15.9457 33.1637 16.015 32.7602C15.9927 32.7479 14.0372 31.8221 13.6213 31.5795ZM0.838572 13.3361C0.680149 12.346 1.11581 9.19978 2.55895 9.93248C3.61345 10.4696 4.63082 12.8509 4.11595 13.6331C3.52434 13.5416 3.5788 12.2965 2.81886 12.1529C1.99457 11.9945 1.89308 13.1876 1.9203 13.9302C1.93763 14.4129 2.03417 14.6976 2.14309 15.0911C2.38567 15.9699 1.19255 15.5565 0.838572 13.3361ZM2.35844 19.7498C1.77673 20.7226 2.52429 21.6855 2.46983 22.6138C1.44008 22.49 0.187553 17.8784 2.09358 18.2126C2.67529 18.3165 3.07382 18.7943 3.04164 19.5171C2.62578 19.8042 2.89312 19.6111 2.35844 19.7498ZM3.44265 26.8392C4.02684 26.807 4.62587 27.0224 4.62587 27.6783C4.36596 27.8442 3.70256 27.9531 4.14565 29.0274C4.28675 29.3715 4.74221 30.0869 4.77687 30.3245C3.96495 30.3765 1.69752 26.9283 3.44265 26.8392ZM5.19025 29.0225C5.58384 28.916 5.91801 29.4284 6.18287 29.7106C7.96266 31.6018 9.91819 32.9509 12.3069 33.9286C12.6163 34.0573 13.2203 34.2554 13.4728 34.4237C11.5594 34.4781 5.03431 30.5002 5.19025 29.0225ZM10.3217 32.2231C8.16811 30.8914 6.07891 28.8541 4.71746 26.7724C4.22734 26.0198 2.97481 23.9876 3.17036 22.8316C3.55404 22.7697 3.69266 23.2648 3.82881 23.5569C4.20754 24.3638 4.8437 25.4307 5.29174 26.2303C6.80171 28.9135 9.53204 31.7305 12.3589 32.9632C12.8465 33.1761 13.859 33.5623 14.2006 33.837C13.2154 33.7999 11.1707 32.7479 10.3217 32.2231ZM10.0469 30.4681C7.65819 28.5719 4.85113 24.7549 4.03426 21.683C3.6283 20.1359 3.33373 18.2794 3.48721 16.6382C3.52929 16.205 3.55157 15.3931 4.04911 15.4006C4.49468 16.5788 3.7991 21.4454 7.26461 26.4778C11.089 32.03 13.7847 32.082 14.8244 33.0251C13.6114 32.988 11.0618 31.2775 10.0469 30.4681Z" fill="#fff"/>
<path fill-rule="evenodd" clip-rule="evenodd" d="M29.8595 18.1011C29.0476 18.4749 29.1862 20.0492 30.1665 20.0492C30.5229 20.0492 31.1343 19.4477 30.2679 18.5442C30.1986 18.4724 30.159 18.4303 30.0922 18.3461C29.9239 18.1432 30.065 18.2446 29.8595 18.1011Z" fill="#fff"/>
<path fill-rule="evenodd" clip-rule="evenodd" d="M10.5996 19.861C10.6442 19.7422 10.7184 19.7075 10.7902 19.554C10.8645 19.3931 10.8843 19.257 10.8818 19.0317C10.8744 18.4797 10.6516 18.4822 10.5996 18.2099C10.5204 18.1703 10.4437 18.148 10.3546 18.106C10.164 18.2446 10.2976 18.1406 10.1516 18.3164C10.0823 18.3956 10.0451 18.4426 9.97832 18.5144C9.84217 18.6654 9.7382 18.7421 9.65404 18.8832C9.54018 19.0738 9.19858 20.4056 10.5996 19.861Z" fill="#fff"/>
<path fill-rule="evenodd" clip-rule="evenodd" d="M26.0039 35.8248C25.2044 35.2876 24.5038 34.4782 23.9345 33.7133C23.6399 33.3148 23.3899 32.6415 23.135 32.3469C22.6646 32.3321 22.276 32.5227 21.729 32.5672C20.2215 32.6811 20.1299 32.6737 18.6694 32.5821C16.7213 32.4608 17.3921 31.7875 16.6619 33.0895C16.4861 33.3989 16.2955 33.6861 16.0629 33.9881C15.5604 34.644 15.246 34.9386 14.6272 35.4906C13.8821 36.1614 13.5207 36.2134 13.09 36.5055C12.8375 36.6763 12.981 36.4783 12.9216 36.7209C13.684 37.0229 14.6519 37.2209 15.5307 37.4338C15.9539 37.5353 16.4861 37.664 16.8995 37.7061C18.5828 37.8719 17.8327 37.9536 18.3055 38.0501C18.6917 37.5674 19.058 36.2308 19.2214 36.008L20.9344 36.003C21.0928 36.0402 21.0408 36.0649 21.1943 36.5006C21.4988 37.362 21.4765 37.1491 21.7834 37.7927L21.9121 38.0501C22.4542 37.9239 21.4616 37.9363 23.2117 37.6912C24.1895 37.5526 26.0138 37.1318 26.9643 36.8199C27.2614 36.7233 27.1129 36.8372 27.2614 36.6466C27.2069 36.5773 26.2217 35.9733 26.0039 35.8248ZM20.4442 34.6539L19.8328 34.6564L19.4789 34.6465L19.7239 33.0227L20.0779 33.0128L20.1398 33.0054L20.4715 33.0351L20.7215 34.649L20.4442 34.6539Z" fill="#fff"/>
<path d="M24.7329 7.88837C25.8231 5.2946 24.6042 2.30814 22.0105 1.21791C19.4167 0.127675 16.4302 1.34653 15.34 3.94029C14.2498 6.53406 15.4686 9.52053 18.0624 10.6108C20.6562 11.701 23.6426 10.4821 24.7329 7.88837Z" fill="#fff"/>
</svg>
