<svg width="183" height="43" viewBox="0 0 183 43" fill="none" xmlns="http://www.w3.org/2000/svg">
<g clip-path="url(#clip0_2_5787)">
<path d="M70.8059 19.8662H68.2841C68.0521 19.8662 67.8477 19.717 67.7786 19.496L67.077 17.2918H62.5968L61.8787 19.4988C61.8069 19.717 61.6052 19.8662 61.3732 19.8662H58.8376C58.4702 19.8662 58.2133 19.4988 58.3404 19.1535L63.0996 6.12452C63.1769 5.9146 63.3758 5.77649 63.5967 5.77649H66.1683C66.392 5.77649 66.5937 5.91736 66.6682 6.13004L71.3059 19.1591C71.4302 19.5016 71.1733 19.8662 70.8059 19.8662ZM63.4945 14.2038H66.2208L64.8867 10.0274L63.4945 14.2038Z" fill="#2C2C2C"/>
<path d="M80.8602 12.1266C81.7109 12.3421 82.3683 12.773 82.8323 13.4138C83.2964 14.0546 83.5284 14.8225 83.5284 15.7119C83.5284 16.9079 83.1085 17.8995 82.2689 18.6867C81.4181 19.4739 80.3243 19.8689 78.9902 19.8689H72.6124C72.3141 19.8689 72.071 19.6259 72.071 19.3275V6.31787C72.071 6.01956 72.3141 5.77649 72.6124 5.77649H78.667C79.9763 5.77649 80.9872 6.12728 81.6971 6.8261C82.4208 7.51111 82.7826 8.32594 82.7826 9.26507C82.7826 9.88931 82.6058 10.4694 82.2495 11.0107C81.896 11.5494 81.4319 11.9222 80.8602 12.1266ZM77.9986 8.78998H75.5569V11.1737H77.8439C78.3135 11.1737 78.6726 11.0632 78.9211 10.8395C79.1697 10.6185 79.294 10.3285 79.294 9.97218C79.294 9.64072 79.1753 9.36175 78.9405 9.13249C78.7085 8.90323 78.3936 8.78998 77.9986 8.78998ZM75.5596 16.814H78.2278C78.7609 16.814 79.167 16.6814 79.4487 16.4135C79.7277 16.1456 79.8686 15.8169 79.8686 15.4219C79.8686 15.0158 79.7277 14.6789 79.4487 14.4109C79.1697 14.143 78.7886 14.0104 78.3052 14.0104H75.5596V16.814Z" fill="#2C2C2C"/>
<path d="M87.2705 19.3358V9.20707H83.8896C83.5968 9.20707 83.3621 8.96952 83.3621 8.6795V6.30406C83.3621 6.01127 83.5996 5.77649 83.8896 5.77649H94.2338C94.5266 5.77649 94.7614 6.01403 94.7614 6.30406V8.6795C94.7614 8.97228 94.5239 9.20707 94.2338 9.20707H90.8751V19.3358C90.8751 19.6286 90.6375 19.8634 90.3475 19.8634H87.8008C87.508 19.8662 87.2705 19.6286 87.2705 19.3358Z" fill="#2C2C2C"/>
<path d="M101.899 20.1484C99.8027 20.1484 98.0404 19.4496 96.6179 18.0519C95.2203 16.6543 94.5215 14.9307 94.5215 12.884C94.5215 10.8372 95.2258 9.10811 96.6373 7.69942C98.0487 6.28796 99.7944 5.58362 101.88 5.58362C103.976 5.58362 105.73 6.28796 107.142 7.69942C108.553 9.11087 109.257 10.84 109.257 12.884C109.257 14.9169 108.553 16.6405 107.142 18.0519C105.744 19.4496 103.998 20.1484 101.899 20.1484ZM101.883 16.6211C102.924 16.6211 103.802 16.2648 104.515 15.5522C105.228 14.8395 105.584 13.9446 105.584 12.8646C105.559 11.7708 105.189 10.8759 104.479 10.1771C103.766 9.46442 102.902 9.10811 101.885 9.10811C100.855 9.10811 99.985 9.46995 99.2724 10.1936C98.5597 10.9063 98.2034 11.7957 98.2034 12.8619C98.2034 13.9419 98.5597 14.8395 99.2724 15.5494C99.9822 16.2648 100.852 16.6211 101.883 16.6211Z" fill="#2C2C2C"/>
<path d="M127.927 19.8662H110.666C110.379 19.8662 110.144 19.6314 110.144 19.3441V6.29853C110.144 6.01127 110.379 5.77649 110.666 5.77649H113.207C113.495 5.77649 113.729 6.01127 113.729 6.29853V16.4549H117.505V6.29853C117.505 6.01127 117.74 5.77649 118.027 5.77649H120.568C120.856 5.77649 121.09 6.01127 121.09 6.29853V16.4549H124.847V6.29853C124.847 6.01127 125.082 5.77649 125.369 5.77649H127.929C128.217 5.77649 128.451 6.01127 128.451 6.29853V19.3441C128.449 19.6314 128.217 19.8662 127.927 19.8662Z" fill="#2C2C2C"/>
<path d="M142.114 19.8651H138.642C138.515 19.8651 138.399 19.7988 138.333 19.6911L135.314 14.7939L133.789 16.6445V19.5033C133.789 19.7049 133.626 19.8679 133.424 19.8679H130.588C130.386 19.8679 130.223 19.7049 130.223 19.5033V6.14007C130.223 5.93843 130.386 5.77547 130.588 5.77547H133.424C133.626 5.77547 133.789 5.93843 133.789 6.14007V11.5704L138.123 5.91634C138.192 5.82519 138.3 5.77271 138.413 5.77271H141.794C142.097 5.77271 142.269 6.1235 142.081 6.36104L137.661 12.0069L142.423 19.2989C142.578 19.5447 142.404 19.8651 142.114 19.8651Z" fill="#2C2C2C"/>
<path d="M148.696 20.0954C146.599 20.0954 144.837 19.3966 143.415 17.9989C142.017 16.6013 141.318 14.8777 141.318 12.831C141.318 10.7842 142.023 9.05513 143.434 7.64644C144.845 6.23499 146.591 5.53064 148.677 5.53064C150.773 5.53064 152.527 6.23499 153.938 7.64644C155.35 9.05789 156.054 10.787 156.054 12.831C156.054 14.8639 155.35 16.5875 153.938 17.9989C152.541 19.3966 150.795 20.0954 148.696 20.0954ZM148.677 16.5681C149.718 16.5681 150.596 16.2118 151.309 15.4992C152.022 14.7866 152.378 13.8916 152.378 12.8116C152.353 11.7178 151.983 10.8229 151.273 10.1241C150.56 9.41145 149.696 9.05513 148.679 9.05513C147.649 9.05513 146.779 9.41697 146.066 10.1407C145.354 10.8533 144.997 11.7427 144.997 12.8089C144.997 13.8889 145.354 14.7866 146.066 15.4964C146.776 16.2118 147.649 16.5681 148.677 16.5681Z" fill="#2C2C2C"/>
<path d="M158.692 19.8652H155.991C155.624 19.8652 155.364 19.5034 155.486 19.1554L159.996 6.1374C160.071 5.92195 160.275 5.77832 160.502 5.77832H163.7C163.929 5.77832 164.134 5.92471 164.208 6.14292L168.578 19.1609C168.694 19.5089 168.437 19.868 168.07 19.868H165.363C165.125 19.868 164.916 19.7105 164.849 19.4841L162.084 10.1259L159.206 19.4896C159.134 19.7105 158.927 19.8652 158.692 19.8652Z" fill="#2C2C2C"/>
<path d="M181.99 19.8662H179.446C179.22 19.8662 179.018 19.7198 178.952 19.5043L178.248 17.2918H173.767L173.046 19.5071C172.977 19.7198 172.776 19.8662 172.552 19.8662H169.994C169.632 19.8662 169.381 19.5071 169.505 19.1673L174.273 6.11899C174.347 5.9146 174.544 5.77649 174.762 5.77649H177.35C177.571 5.77649 177.767 5.9146 177.839 6.12176L182.482 19.1701C182.601 19.5098 182.349 19.8662 181.99 19.8662ZM174.662 14.2038H177.389L176.054 10.0274L174.662 14.2038Z" fill="#2C2C2C"/>
<path d="M58.2396 26.0585C58.2396 25.7464 58.4909 25.495 58.8031 25.495H63.844C65.6366 25.495 66.9652 25.9646 67.8297 26.9064C68.7081 27.8345 69.1445 28.9974 69.1445 30.395C69.1445 31.7816 68.6943 32.9251 67.7911 33.8256C66.9016 34.715 65.504 35.1597 63.5954 35.1597H61.8027V39.0212C61.8027 39.3333 61.5514 39.5847 61.2393 39.5847H58.8003C58.4882 39.5847 58.2368 39.3333 58.2368 39.0212V26.0585H58.2396ZM61.8055 31.9584H63.7694C64.3163 31.9584 64.7389 31.8092 65.0372 31.5109C65.3355 31.2126 65.4847 30.8287 65.4847 30.3564C65.4847 29.8978 65.3355 29.5167 65.0372 29.2128C64.7389 28.909 64.3411 28.7543 63.8467 28.7543H61.8055V31.9584Z" fill="#2C2C2C"/>
<path d="M80.1812 39.5847H71.0662C70.7762 39.5847 70.5414 39.3499 70.5414 39.0599V26.0198C70.5414 25.7298 70.7762 25.495 71.0662 25.495H80.1978C80.4878 25.495 80.7226 25.7298 80.7226 26.0198V28.2709C80.7226 28.561 80.4878 28.7958 80.1978 28.7958H74.1239V30.8729H79.7006C79.9907 30.8729 80.2254 31.1077 80.2254 31.3977V33.6295C80.2254 33.9195 79.9907 34.1543 79.7006 34.1543H74.1239V36.2894H80.1785C80.4685 36.2894 80.7033 36.5242 80.7033 36.8142V39.0654C80.7061 39.3499 80.4713 39.5847 80.1812 39.5847Z" fill="#2C2C2C"/>
<path d="M94.7271 39.5856H91.8766C91.7108 39.5856 91.5672 39.4779 91.5175 39.3232L90.7828 37.0113H86.3026L85.5485 39.3232C85.4988 39.4779 85.3524 39.5828 85.1894 39.5828H82.3251C82.0627 39.5828 81.8804 39.3232 81.9715 39.0746L86.8439 25.7418C86.8992 25.5926 87.0401 25.4932 87.1975 25.4932H89.9845C90.1447 25.4932 90.2856 25.5926 90.3408 25.7445L95.0862 39.0774C95.1718 39.3287 94.9895 39.5856 94.7271 39.5856ZM87.1975 33.9232H89.9237L88.5896 29.7469L87.1975 33.9232Z" fill="#2C2C2C"/>
<path d="M99.6051 39.5847H96.8347C96.4867 39.5847 96.2436 39.2422 96.3568 38.9135L100.887 25.8347C100.956 25.6303 101.149 25.495 101.365 25.495H104.607C104.826 25.495 105.016 25.6331 105.085 25.8403L109.474 38.919C109.585 39.2449 109.342 39.5847 108.996 39.5847H106.223C105.999 39.5847 105.803 39.4383 105.74 39.2228L102.967 29.8426L100.083 39.2283C100.022 39.441 99.8261 39.5847 99.6051 39.5847Z" fill="#2C2C2C"/>
<path fill-rule="evenodd" clip-rule="evenodd" d="M8.09376 18.7273C8.36169 19.208 8.85059 19.4151 9.39749 19.6278C10.4996 20.067 10.2123 20.2438 10.599 20.6111C11.0962 20.4343 11.3448 19.8709 11.6569 19.7051L11.9083 19.4593C12.8364 18.8627 14.2561 19.7604 14.9411 20.3211C17.7115 22.5999 19.7196 26.3177 19.7748 30.0991C21.3548 31.0686 23.4872 31.0299 25.0726 30.1295C25.1555 27.1767 26.2659 24.4698 27.9922 22.343C28.8568 21.2768 31.177 18.6749 32.7845 19.3654C33.4281 19.6416 33.6353 20.4288 34.2788 20.6139C34.3534 20.5393 34.3147 20.5835 34.3893 20.4813C34.428 20.4233 34.4584 20.3681 34.4998 20.3073C34.5965 20.1609 34.6434 20.1112 34.7622 20.0145C35.461 19.4538 35.4472 19.951 36.8007 18.8019C36.8366 18.1059 36.4526 16.2856 36.1902 15.526C36.1157 15.3106 36.0963 15.2691 35.9831 15.1366C33.8093 14.9985 29.992 15.3962 27.9176 15.9542C23.3076 17.1888 23.559 19.4952 22.4044 19.4621C21.1891 19.4289 21.468 16.7137 15.1372 15.573C14.4467 15.4487 13.7534 15.4349 13.0822 15.3299C12.1182 15.1752 9.86982 15.0427 8.80087 15.1449C8.64343 15.7857 7.90041 18.0147 8.09376 18.7273Z" fill="#4F8FFD"/>
<path fill-rule="evenodd" clip-rule="evenodd" d="M22.4733 35.7557C25.0365 35.7474 27.7324 35.0762 29.6023 33.7918C30.0029 33.5156 30.5277 33.3084 30.141 32.6649C29.5996 31.7672 29.3427 31.2948 28.9615 30.1707C28.3041 30.0077 27.4396 31.223 26.0972 31.0297C25.2465 30.9054 25.7934 30.0795 24.7327 30.7756C24.509 30.9247 24.3736 30.991 24.0864 31.0987C23.5201 31.3142 23.1472 31.4109 22.4788 31.4136C20.6282 31.4219 19.8824 30.4579 19.6117 30.4828C19.4598 30.4966 18.841 31.6843 16.8634 30.5049C16.554 30.3198 16.3579 30.1182 15.9933 30.1347C15.8165 30.4275 15.6121 31.0324 15.4409 31.3943C14.7282 32.9162 14.1371 33.1289 15.2171 33.778C17.4075 35.1094 19.6642 35.7585 22.4733 35.7557Z" fill="#FF941F"/>
<path fill-rule="evenodd" clip-rule="evenodd" d="M10.2181 14.8301C10.917 13.4021 16.1098 15.0262 17.2561 15.4074C18.6592 15.8769 20.3386 16.9542 21.2888 18.0397C23.0538 20.0588 22.076 19.1363 24.7056 16.9984C26.8324 15.272 30.3376 14.4213 33.05 14.2998C34.0001 14.2556 34.1659 14.2252 34.6879 14.8411H35.1962L35.2431 13.1839C30.9894 12.8386 26.1722 13.9876 23.4957 17.3685C23.2306 17.7 22.8245 18.4899 22.4047 18.5728C22.1395 18.5452 21.2225 17.0315 20.2668 16.1835C17.4632 13.7031 13.5576 12.9795 9.65189 13.1756C9.6077 13.5236 9.63808 13.8827 9.63532 14.239C9.63532 14.9157 9.59113 14.8494 10.2181 14.8301Z" fill="#FF941F"/>
<path fill-rule="evenodd" clip-rule="evenodd" d="M29.2717 29.9111C29.2993 30.3889 30.197 32.3059 30.4567 32.6235C31.2494 32.5876 33.5254 29.8393 34.0171 29.2095C34.7021 28.3339 36.1301 25.6629 36.3014 24.4476C36.1356 24.4641 34.2215 25.2983 34.5005 23.4725C33.8154 23.1742 34.006 23.0389 33.7989 22.6052C33.6331 22.8925 33.6028 23.3703 33.4895 23.7432C33.3486 24.1935 33.2547 24.4365 33.1028 24.8343C32.8211 25.5828 32.4951 26.1601 32.0836 26.8341C31.4096 27.9444 30.2164 29.2565 29.2717 29.9111Z" fill="#4F8FFD"/>
<path fill-rule="evenodd" clip-rule="evenodd" d="M10.3872 23.5007C10.5364 24.9232 9.57789 24.6469 8.64429 24.5171C8.78792 25.8871 10.227 28.3316 10.9148 29.3039C11.4672 30.0856 13.7846 32.6185 14.4227 32.6571C14.6657 32.2622 15.5773 30.3563 15.6049 29.9088C13.6382 28.5802 12.1715 26.1855 11.423 23.8487C11.3236 23.5366 11.1965 22.8847 11.0777 22.6582C10.9728 22.8516 11.0253 22.9676 10.8429 23.1802C10.6883 23.3736 10.5584 23.3736 10.3872 23.5007Z" fill="#4F8FFD"/>
<path fill-rule="evenodd" clip-rule="evenodd" d="M11.1273 12.9129C12.1604 12.982 11.4781 12.576 13.0083 12.7748C16.392 13.2113 19.8723 14.7221 21.8582 17.6583C22.3996 18.4621 22.4742 18.4566 22.9603 17.7329C23.3802 17.1086 23.9215 16.4844 24.4381 16.0093C25.2695 15.2387 25.9131 14.8409 26.9433 14.2692C27.7195 13.8438 29.0591 13.319 29.9927 13.1256C34.0614 12.2749 32.3847 13.0483 33.7437 12.9019V12.007C31.6555 11.8081 28.7691 12.7058 26.9599 13.7167C25.7943 14.3713 23.6951 16.0397 22.9244 17.1915C22.7449 17.4622 22.7007 17.6832 22.4079 17.8075C22.2477 17.6914 21.8444 17.0368 21.4826 16.6225C21.1511 16.2386 20.7037 15.8187 20.4081 15.537C18.1045 13.3742 14.4087 11.8164 11.1328 11.9931L11.1273 12.9129Z" fill="#FF941F"/>
<path fill-rule="evenodd" clip-rule="evenodd" d="M34.8338 21.362C34.6266 21.6934 34.2399 21.7735 34.1487 22.3066C33.9968 23.1656 34.657 22.917 34.8255 23.2181C34.9746 23.4971 34.3808 24.2042 35.226 24.2815C35.7232 24.3257 36.2452 24.0882 36.5408 23.7982C37.1015 23.2457 36.654 22.8176 36.7811 22.4088C36.8529 22.1795 36.9772 22.105 37.0462 21.768C37.1291 21.3647 37.0656 21.2708 37.002 20.9117C36.9026 20.3593 37.397 20.1742 37.1926 19.3898C36.9937 18.6109 36.5159 19.3345 36.1485 19.5362C35.6983 19.782 34.7702 19.9864 34.6155 20.6631C34.5106 21.1327 34.7095 21.0747 34.8338 21.362Z" fill="#FF941F"/>
<path fill-rule="evenodd" clip-rule="evenodd" d="M10.6954 22.8306C10.8115 21.6788 10.3308 21.9246 10.027 21.3611C10.1375 21.0849 10.2176 21.2147 10.259 20.9247C10.3861 20.0519 8.99673 19.737 8.58517 19.4746C8.2399 19.2508 8.21228 18.9884 7.83387 19.016C7.76205 19.2674 7.63223 19.3972 7.64052 19.7977C7.65156 20.2645 7.85044 20.375 7.88635 20.6568C7.92502 20.9551 7.73995 21.165 7.80348 21.6428C7.84768 21.9964 8.02169 22.1594 8.07693 22.4439C8.21228 23.1731 7.72338 23.4493 8.61279 24.01C9.17626 24.3635 9.63202 24.4354 10.1182 23.9989C10.143 23.6537 9.95795 23.3692 10.0905 23.1731C10.2756 22.9687 10.1789 23.1206 10.433 23.0184C10.7203 22.9051 10.5463 22.9549 10.6954 22.8306Z" fill="#FF941F"/>
<path fill-rule="evenodd" clip-rule="evenodd" d="M45.0568 13.5842C44.9464 13.2223 44.4823 10.0873 44.6149 9.42441C44.6646 9.17582 44.8386 8.90236 44.8607 8.7394C45.0044 7.55996 41.1125 8.84436 39.7093 11.938C38.7978 13.946 39.2729 16.2856 39.0381 18.7881C38.3421 26.2514 35.5551 31.7259 29.4563 35.1261L27.009 36.3249C27.0726 36.7917 28.5061 38.228 28.7906 38.4904C29.2408 38.902 30.6274 39.9958 31.1771 40.1477C31.5141 40.2361 33.3537 38.9793 33.7072 38.7114C35.1076 37.6535 36.9859 36.1785 38.4332 35.3885C40.0657 34.4963 41.6373 33.0407 42.3279 31.1956C42.4881 30.7675 42.7505 30.0327 42.5516 29.4637C42.2781 28.7069 41.7202 29.193 41.2589 28.9141C41.1788 28.4086 41.5241 27.997 41.7948 27.7098C42.8471 26.5745 43.2228 26.2293 43.8222 24.4035C44.126 23.4809 44.3194 22.5446 44.4354 21.4922C44.7364 18.7825 43.5736 19.3046 43.3913 19.0146C43.2559 18.3876 43.7034 18.139 43.9989 17.8296C44.8083 17.0037 44.7972 16.4789 45.0071 15.6807C45.0707 15.4044 45.1729 13.9654 45.0568 13.5842ZM28.3293 36.6149C28.3459 36.6039 28.3625 36.5818 28.368 36.5762C28.3791 36.5679 28.3984 36.5486 28.4094 36.5403L30.8705 35.1869C31.6329 34.7256 32.4808 34.1566 33.1437 33.5655C34.4088 32.4413 35.754 30.9111 36.7677 29.3008C38.5962 26.4005 39.6154 24.0223 39.969 20.5337C40.0491 19.7714 40.1126 17.4291 40.3502 16.9595C40.9109 16.9153 40.9523 17.9926 40.9772 18.4345C41.1042 20.9177 40.701 23.3704 39.7756 25.5995C38.5161 28.6296 36.0827 31.795 33.6354 33.7865C32.5471 34.6786 29.6441 36.5707 28.3293 36.6149ZM38.3421 33.4412C36.9748 34.9217 34.3066 36.5486 32.5305 37.3441C32.1438 37.5181 30.0474 38.3689 29.7491 38.2473C29.8126 38.0181 29.7187 38.1921 30.0115 38.0733L31.0694 37.6728C33.4642 36.6342 35.0634 35.6841 36.9942 33.8859C37.6377 33.281 38.5631 32.0988 39.052 32.1264C39.1265 32.7203 38.6321 33.1236 38.3421 33.4412ZM41.234 31.8999C40.9219 32.4386 40.1927 33.5379 39.5795 33.6235C39.6292 33.002 40.8253 31.748 40.2673 30.9967C40.0933 30.7619 39.237 30.6542 39.9386 30.0521C40.2203 29.809 40.6816 29.5853 41.1429 29.6736C42.2478 29.8919 41.5572 31.3447 41.234 31.8999ZM39.6072 29.635C37.8781 32.1099 35.8451 34.2174 33.315 35.7476C32.4394 36.2752 30.1385 37.4574 29.0254 37.5237C29.5115 37.1287 30.4672 36.8469 31.1246 36.521C36.0385 34.0931 38.1598 30.726 40.5988 26.0359C40.7893 25.6685 40.8943 25.2294 41.3003 25.2211C41.6567 26.3204 40.1071 28.9196 39.6072 29.635ZM43.4686 22.6965C43.3112 23.4257 42.7947 24.9007 42.1152 25.0056C42.0682 24.2543 42.9134 22.4313 42.2257 21.8292C41.8997 21.5392 41.1042 21.8872 41.6014 20.8376C42.0544 19.8708 44.231 19.1748 43.4686 22.6965ZM43.9492 14.5979C43.8691 15.3989 43.3692 17.1335 42.4881 17.0645C42.4107 16.6529 42.709 15.8657 42.7201 15.2415C42.7726 12.808 41.5545 13.0594 41.0821 13.8687C40.8888 14.2029 40.6789 15.0012 40.2397 14.9984C39.5574 13.4378 42.0489 9.25592 43.278 11.2557C43.7504 12.0208 44.068 13.4212 43.9492 14.5979Z" fill="#FF941F"/>
<path fill-rule="evenodd" clip-rule="evenodd" d="M15.201 35.0047C8.17969 30.9416 5.74624 24.1605 5.73243 15.5206C5.73243 14.6035 5.75177 14.1036 5.60537 13.2556C5.21867 10.9796 2.94543 8.68704 0.760582 8.33072C-0.551435 8.11527 0.221964 9.04335 0.268921 9.67312C0.335212 10.5653 0.627999 12.032 0.506465 13.0319C0.429125 13.6727 0.340736 13.4324 0.340736 14.2693C0.340736 14.2693 0.208154 16.4597 0.719149 17.2497C0.92631 17.5701 0.956693 17.7579 1.21357 18.001C1.47045 18.2496 1.67485 18.4622 1.57265 19.0091C1.33787 19.3848 0.440173 18.6832 0.440173 20.8625C0.440173 22.9065 1.29091 25.804 2.62226 27.221C2.90676 27.5276 3.8376 28.312 3.63044 28.9114C3.39566 29.2097 1.58646 28.3479 2.5394 31.1487C3.1305 32.8751 4.79607 34.5047 6.40639 35.3638C8.28465 36.3637 9.47789 37.5376 11.1545 38.6728C11.5937 38.9766 13.3228 40.2141 13.657 40.1561C14.1597 40.0677 15.6734 38.8579 16.0601 38.5209C16.4164 38.2088 17.7947 36.7725 17.872 36.3222C17.8472 36.3084 15.6651 35.2754 15.201 35.0047ZM0.937358 14.6477C0.760582 13.5429 1.24672 10.0322 2.85705 10.8498C4.03372 11.4492 5.16896 14.1064 4.59443 14.9792C3.93428 14.877 3.99505 13.4876 3.14707 13.3274C2.22728 13.1507 2.11403 14.482 2.14441 15.3106C2.16375 15.8493 2.27147 16.1669 2.39301 16.6061C2.6637 17.5866 1.33234 17.1254 0.937358 14.6477ZM2.63331 21.8044C1.98421 22.89 2.81838 23.9644 2.75761 25.0002C1.60856 24.8621 0.210916 19.7163 2.33776 20.0891C2.98687 20.2052 3.43157 20.7382 3.39566 21.5448C2.93162 21.8652 3.22993 21.6498 2.63331 21.8044ZM3.84313 29.7152C4.49499 29.6793 5.16343 29.9196 5.16343 30.6516C4.87341 30.8366 4.13315 30.9582 4.62758 32.1569C4.78502 32.5409 5.29325 33.3391 5.33192 33.6043C4.42594 33.6623 1.89582 29.8146 3.84313 29.7152ZM5.7932 32.1514C6.23238 32.0326 6.60527 32.6044 6.90082 32.9193C8.8868 35.0296 11.0689 36.5349 13.7344 37.626C14.0796 37.7696 14.7536 37.9906 15.0353 38.1784C12.9002 38.2392 5.61918 33.8004 5.7932 32.1514ZM11.5191 35.7229C9.11605 34.2368 6.78481 31.9636 5.26563 29.6406C4.71873 28.8009 3.32108 26.5332 3.53929 25.2433C3.96743 25.1742 4.12211 25.7267 4.27402 26.0526C4.69663 26.9531 5.4065 28.1435 5.90645 29.0357C7.59135 32.0299 10.638 35.1732 13.7924 36.5487C14.3365 36.7863 15.4662 37.2172 15.8474 37.5238C14.7481 37.4823 12.4665 36.3084 11.5191 35.7229ZM11.2125 33.7645C8.54705 31.6487 5.41479 27.3895 4.50328 23.9617C4.05029 22.2353 3.72159 20.1637 3.89285 18.3324C3.9398 17.8491 3.96466 16.9431 4.51985 16.9514C5.01704 18.2661 4.24088 23.6965 8.10787 29.3119C12.3754 35.5074 15.3833 35.5654 16.5434 36.6178C15.19 36.5764 12.345 34.6677 11.2125 33.7645Z" fill="#FF941F"/>
<path fill-rule="evenodd" clip-rule="evenodd" d="M33.3208 19.9653C32.4148 20.3824 32.5695 22.1391 33.6633 22.1391C34.0611 22.1391 34.7433 21.4679 33.7766 20.4598C33.6992 20.3797 33.655 20.3327 33.5805 20.2388C33.3926 20.0123 33.5501 20.1255 33.3208 19.9653Z" fill="#FF941F"/>
<path fill-rule="evenodd" clip-rule="evenodd" d="M11.8288 21.9275C11.8786 21.7949 11.9614 21.7562 12.0415 21.585C12.1244 21.4054 12.1465 21.2535 12.1437 21.0022C12.1354 20.3862 11.8868 20.389 11.8288 20.0851C11.7404 20.0409 11.6548 20.0161 11.5554 19.9691C11.3427 20.1238 11.4919 20.0078 11.3289 20.2039C11.2515 20.2923 11.2101 20.3448 11.1355 20.4249C10.9836 20.5934 10.8676 20.679 10.7737 20.8364C10.6466 21.0491 10.2655 22.5351 11.8288 21.9275Z" fill="#FF941F"/>
<path fill-rule="evenodd" clip-rule="evenodd" d="M29.0177 39.7419C28.1255 39.1425 27.3438 38.2393 26.7086 37.3858C26.3799 36.9411 26.1009 36.1898 25.8164 35.8611C25.2916 35.8445 24.8579 36.0572 24.2475 36.1069C22.5653 36.234 22.4631 36.2257 20.8335 36.1235C18.6597 35.9882 19.4082 35.2369 18.5934 36.6897C18.3973 37.035 18.1846 37.3554 17.925 37.6924C17.3642 38.4244 17.0134 38.7531 16.3229 39.369C15.4915 40.1176 15.0882 40.1756 14.6076 40.5015C14.3259 40.6921 14.4861 40.4711 14.4198 40.7418C15.2705 41.0788 16.3505 41.2998 17.3311 41.5373C17.8034 41.6505 18.3973 41.7942 18.8586 41.8411C20.7368 42.0262 19.8999 42.1173 20.4275 42.2251C20.8583 41.6865 21.2671 40.1949 21.4494 39.9463L23.3608 39.9408C23.5376 39.9822 23.4796 40.0098 23.6509 40.496C23.9906 41.4572 23.9658 41.2197 24.3083 41.9378L24.4519 42.2251C25.0568 42.0842 23.9492 42.098 25.902 41.8246C26.9931 41.6699 29.0288 41.2003 30.0894 40.8523C30.4209 40.7446 30.2551 40.8716 30.4209 40.6589C30.3601 40.5816 29.2608 39.9076 29.0177 39.7419ZM22.8139 38.4354L22.1317 38.4382L21.7367 38.4271L22.0102 36.6152L22.4051 36.6041L22.4742 36.5958L22.8443 36.629L23.1233 38.4299L22.8139 38.4354Z" fill="#4F8FFD"/>
<path d="M27.5981 8.56668C28.8146 5.67242 27.4546 2.33996 24.5603 1.12342C21.666 -0.0931139 18.3336 1.26695 17.117 4.16121C15.9005 7.05547 17.2606 10.3879 20.1548 11.6045C23.0491 12.821 26.3816 11.4609 27.5981 8.56668Z" fill="#FF941F"/>
<path d="M116.047 28.4296C116.036 28.5069 116.03 28.5953 116.03 28.6975C116.03 28.7997 116.036 28.8881 116.047 28.9654C116.064 29.1229 116.097 29.2582 116.155 29.3715C116.21 29.4847 116.282 29.5731 116.365 29.6422C116.448 29.7112 116.541 29.7609 116.644 29.7941C116.746 29.8272 116.851 29.8438 116.958 29.8438C117.086 29.8438 117.193 29.8328 117.279 29.8134C117.365 29.7941 117.439 29.7637 117.5 29.725C117.561 29.6864 117.613 29.6422 117.657 29.5952C117.702 29.5483 117.743 29.493 117.784 29.4322C117.815 29.3853 117.851 29.3411 117.892 29.2941C117.934 29.2472 117.98 29.2251 118.038 29.2251H118.621C118.677 29.2251 118.726 29.2444 118.77 29.2859C118.815 29.3273 118.834 29.3742 118.828 29.4322C118.823 29.54 118.784 29.6698 118.712 29.8217C118.641 29.9736 118.53 30.12 118.378 30.2609C118.229 30.4018 118.036 30.5205 117.801 30.6172C117.566 30.7139 117.284 30.7636 116.958 30.7636C116.677 30.7636 116.425 30.7166 116.202 30.6227C115.978 30.5288 115.782 30.4018 115.616 30.2416C115.45 30.0813 115.321 29.8935 115.227 29.6836C115.133 29.4709 115.075 29.2499 115.055 29.0152C115.044 28.924 115.039 28.8218 115.039 28.7086C115.039 28.5953 115.044 28.4931 115.055 28.3964C115.072 28.1617 115.127 27.9379 115.224 27.7225C115.321 27.507 115.45 27.322 115.613 27.159C115.776 26.9988 115.972 26.8717 116.199 26.7778C116.425 26.6839 116.68 26.637 116.961 26.637C117.287 26.637 117.569 26.6867 117.804 26.7834C118.038 26.88 118.232 26.9988 118.381 27.1397C118.53 27.2805 118.643 27.4269 118.715 27.5789C118.787 27.7308 118.826 27.8606 118.831 27.9683C118.837 28.0236 118.817 28.0733 118.773 28.1147C118.729 28.1561 118.679 28.1755 118.624 28.1755H118.041C117.986 28.1755 117.936 28.1534 117.895 28.1064C117.853 28.0595 117.818 28.0153 117.787 27.9683C117.746 27.9075 117.704 27.8523 117.66 27.8026C117.616 27.7529 117.563 27.7114 117.503 27.6728C117.442 27.6341 117.367 27.6065 117.282 27.5844C117.196 27.565 117.088 27.554 116.961 27.554C116.854 27.554 116.749 27.5706 116.646 27.6037C116.544 27.6369 116.45 27.6866 116.367 27.7556C116.285 27.8247 116.213 27.9158 116.157 28.0263C116.097 28.1368 116.061 28.2721 116.047 28.4296Z" fill="#2C2C2C"/>
<path d="M119.266 28.6965C119.266 28.412 119.311 28.1413 119.396 27.89C119.482 27.6386 119.609 27.4176 119.772 27.2326C119.935 27.0475 120.134 26.9011 120.366 26.7934C120.598 26.6857 120.857 26.6332 121.142 26.6332C121.426 26.6332 121.686 26.6857 121.918 26.7906C122.15 26.8956 122.349 27.0365 122.512 27.2105C122.675 27.3872 122.802 27.5916 122.89 27.8292C122.979 28.0667 123.023 28.3153 123.023 28.575V28.9202C123.023 28.9755 123.004 29.0252 122.962 29.0666C122.921 29.1081 122.874 29.1274 122.816 29.1274H120.261C120.261 29.2434 120.286 29.3484 120.333 29.4368C120.382 29.5251 120.446 29.6025 120.529 29.6632C120.609 29.724 120.706 29.771 120.813 29.8014C120.921 29.8317 121.029 29.8483 121.142 29.8483C121.305 29.8483 121.438 29.8317 121.54 29.7986C121.642 29.7654 121.725 29.724 121.791 29.6715C121.846 29.6301 121.893 29.6025 121.929 29.5887C121.965 29.5721 122.012 29.5666 122.076 29.5666H122.689C122.744 29.5666 122.794 29.5859 122.838 29.6273C122.882 29.6688 122.901 29.7157 122.896 29.7737C122.89 29.8455 122.852 29.9367 122.777 30.0499C122.703 30.1632 122.592 30.2709 122.446 30.3786C122.297 30.4864 122.114 30.5775 121.899 30.6549C121.681 30.7322 121.432 30.7709 121.145 30.7709C120.857 30.7709 120.601 30.7211 120.369 30.6217C120.137 30.5223 119.938 30.3814 119.775 30.1963C119.612 30.014 119.487 29.7958 119.399 29.5417C119.308 29.2821 119.266 29.0031 119.266 28.6965ZM121.139 27.5502C120.99 27.5502 120.866 27.5723 120.761 27.6165C120.656 27.6607 120.567 27.7159 120.496 27.785C120.424 27.854 120.369 27.9314 120.33 28.0142C120.291 28.0971 120.266 28.18 120.258 28.2546H121.987C121.976 28.1772 121.957 28.0971 121.929 28.0142C121.902 27.9314 121.855 27.854 121.791 27.785C121.728 27.7159 121.642 27.6607 121.54 27.6165C121.438 27.5723 121.302 27.5502 121.139 27.5502Z" fill="#2C2C2C"/>
<path d="M126.923 26.7078C126.978 26.7078 127.028 26.7272 127.069 26.7686C127.111 26.81 127.13 26.857 127.13 26.915V27.4205C127.13 27.4757 127.111 27.5254 127.069 27.5669C127.028 27.6083 126.981 27.6276 126.923 27.6276H125.669V30.4809C125.669 30.5362 125.649 30.5859 125.608 30.6273C125.567 30.6687 125.52 30.6881 125.462 30.6881H124.882C124.826 30.6881 124.777 30.6687 124.735 30.6273C124.694 30.5859 124.674 30.5389 124.674 30.4809V27.6249H123.42C123.365 27.6249 123.315 27.6055 123.274 27.5641C123.233 27.5227 123.213 27.4757 123.213 27.4177V26.9122C123.213 26.857 123.233 26.8073 123.274 26.7658C123.315 26.7244 123.362 26.7051 123.42 26.7051H126.923V26.7078Z" fill="#2C2C2C"/>
<path d="M131.07 29.1423C131.07 29.3716 131.028 29.5815 130.943 29.7748C130.86 29.9654 130.741 30.1284 130.595 30.2637C130.445 30.3991 130.269 30.504 130.059 30.5786C129.849 30.6532 129.62 30.6891 129.371 30.6891H127.797C127.741 30.6891 127.692 30.6698 127.65 30.6283C127.609 30.5869 127.589 30.5399 127.589 30.4819V26.916C127.589 26.8608 127.609 26.8111 127.65 26.7696C127.692 26.7282 127.739 26.7089 127.797 26.7089H128.377C128.432 26.7089 128.482 26.7282 128.523 26.7696C128.564 26.8111 128.584 26.858 128.584 26.916V27.5983H129.371C129.62 27.5983 129.852 27.6342 130.059 27.7088C130.269 27.7833 130.445 27.8883 130.595 28.0236C130.744 28.159 130.86 28.322 130.943 28.5125C131.025 28.7031 131.07 28.913 131.07 29.1423ZM128.584 29.7693H129.241C129.368 29.7693 129.484 29.761 129.589 29.7417C129.694 29.7251 129.785 29.692 129.86 29.645C129.937 29.5981 129.995 29.5345 130.037 29.4544C130.078 29.3743 130.097 29.2694 130.097 29.1395C130.097 29.0125 130.078 28.9075 130.037 28.8247C129.995 28.7446 129.937 28.6783 129.86 28.6341C129.782 28.5871 129.694 28.5567 129.589 28.5374C129.484 28.5181 129.368 28.5098 129.241 28.5098H128.584V29.7693Z" fill="#2C2C2C"/>
<path d="M133.992 28.4296C133.981 28.5069 133.975 28.5953 133.975 28.6975C133.975 28.7997 133.981 28.8881 133.992 28.9654C134.009 29.1229 134.042 29.2582 134.1 29.3715C134.155 29.4847 134.227 29.5731 134.31 29.6422C134.392 29.7112 134.486 29.7609 134.589 29.7941C134.691 29.8272 134.796 29.8438 134.903 29.8438C135.031 29.8438 135.138 29.8328 135.224 29.8134C135.309 29.7941 135.384 29.7637 135.445 29.725C135.506 29.6864 135.558 29.6422 135.602 29.5952C135.646 29.5483 135.688 29.493 135.729 29.4322C135.76 29.3853 135.796 29.3411 135.837 29.2941C135.878 29.2472 135.925 29.2251 135.983 29.2251H136.566C136.622 29.2251 136.671 29.2444 136.715 29.2859C136.76 29.3273 136.779 29.3742 136.773 29.4322C136.768 29.54 136.729 29.6698 136.657 29.8217C136.586 29.9736 136.475 30.12 136.323 30.2609C136.174 30.4018 135.981 30.5205 135.746 30.6172C135.511 30.7139 135.229 30.7636 134.903 30.7636C134.622 30.7636 134.37 30.7166 134.147 30.6227C133.923 30.5288 133.727 30.4018 133.561 30.2416C133.395 30.0813 133.266 29.8935 133.172 29.6836C133.078 29.4709 133.02 29.2499 133 29.0152C132.989 28.924 132.984 28.8218 132.984 28.7086C132.984 28.5953 132.989 28.4931 133 28.3964C133.017 28.1617 133.072 27.9379 133.169 27.7225C133.265 27.507 133.395 27.322 133.558 27.159C133.721 26.9988 133.917 26.8717 134.144 26.7778C134.37 26.6839 134.624 26.637 134.906 26.637C135.232 26.637 135.514 26.6867 135.749 26.7834C135.983 26.88 136.177 26.9988 136.326 27.1397C136.475 27.2805 136.588 27.4269 136.66 27.5789C136.732 27.7308 136.771 27.8606 136.776 27.9683C136.782 28.0236 136.762 28.0733 136.718 28.1147C136.674 28.1561 136.624 28.1755 136.569 28.1755H135.986C135.931 28.1755 135.881 28.1534 135.84 28.1064C135.798 28.0595 135.762 28.0153 135.732 27.9683C135.691 27.9075 135.649 27.8523 135.605 27.8026C135.561 27.7529 135.508 27.7114 135.448 27.6728C135.387 27.6341 135.312 27.6065 135.227 27.5844C135.141 27.565 135.033 27.554 134.906 27.554C134.798 27.554 134.694 27.5706 134.591 27.6037C134.489 27.6369 134.395 27.6866 134.312 27.7556C134.229 27.8247 134.158 27.9158 134.102 28.0263C134.044 28.1368 134.009 28.2721 133.992 28.4296Z" fill="#2C2C2C"/>
<path d="M139.165 26.6313C139.444 26.6313 139.699 26.6755 139.928 26.7612C140.154 26.8468 140.35 26.9683 140.516 27.1202C140.682 27.2722 140.814 27.4517 140.914 27.6561C141.013 27.8605 141.071 28.0787 141.085 28.3135C141.091 28.3604 141.093 28.4185 141.093 28.4903C141.093 28.5621 141.093 28.6339 141.093 28.7057C141.093 28.7775 141.093 28.8466 141.093 28.9156C141.093 28.9847 141.091 29.0427 141.085 29.0869C141.066 29.3217 141.005 29.5399 140.908 29.7443C140.812 29.9487 140.679 30.1255 140.513 30.2746C140.348 30.4238 140.152 30.5425 139.925 30.6309C139.699 30.7166 139.444 30.7607 139.163 30.7607C138.881 30.7607 138.63 30.7166 138.4 30.6309C138.174 30.5453 137.978 30.4265 137.812 30.2746C137.646 30.1255 137.514 29.9459 137.417 29.7443C137.32 29.5399 137.262 29.3217 137.24 29.0869C137.235 29.0399 137.232 28.9847 137.229 28.9156C137.226 28.8466 137.226 28.7775 137.226 28.7057C137.226 28.6339 137.226 28.5621 137.229 28.4903C137.232 28.4185 137.235 28.3604 137.24 28.3135C137.257 28.0787 137.312 27.8605 137.412 27.6561C137.511 27.4517 137.644 27.2749 137.809 27.1202C137.975 26.9683 138.171 26.8468 138.398 26.7612C138.63 26.6755 138.884 26.6313 139.165 26.6313ZM140.091 28.3549C140.074 28.1975 140.038 28.0649 139.98 27.9599C139.922 27.855 139.848 27.7721 139.762 27.7113C139.676 27.6506 139.58 27.6091 139.48 27.5843C139.378 27.5622 139.273 27.5511 139.165 27.5511C139.058 27.5511 138.953 27.5622 138.851 27.5843C138.748 27.6064 138.654 27.6506 138.569 27.7113C138.483 27.7721 138.409 27.855 138.351 27.9599C138.293 28.0649 138.254 28.1947 138.24 28.3549C138.235 28.3964 138.232 28.4461 138.229 28.5068C138.226 28.5676 138.226 28.6311 138.226 28.6974C138.226 28.7637 138.226 28.83 138.229 28.8935C138.232 28.9571 138.235 29.0068 138.24 29.0427C138.257 29.2001 138.293 29.3327 138.351 29.4377C138.409 29.5426 138.483 29.6255 138.569 29.6863C138.654 29.747 138.751 29.7885 138.851 29.8133C138.953 29.8354 139.058 29.8465 139.165 29.8465C139.273 29.8465 139.378 29.8354 139.48 29.8133C139.583 29.7912 139.676 29.747 139.762 29.6863C139.848 29.6255 139.922 29.5426 139.98 29.4377C140.038 29.3327 140.077 29.2029 140.091 29.0427C140.096 29.0068 140.099 28.9571 140.099 28.8935C140.099 28.83 140.099 28.7637 140.099 28.6974C140.099 28.6311 140.099 28.5676 140.099 28.5068C140.096 28.4461 140.094 28.3936 140.091 28.3549Z" fill="#2C2C2C"/>
<path d="M141.925 30.6853C141.883 30.6853 141.847 30.6687 141.817 30.6384C141.786 30.608 141.77 30.5721 141.77 30.5306V26.8598C141.77 26.8183 141.786 26.7824 141.817 26.752C141.847 26.7217 141.883 26.7051 141.925 26.7051H144.074C144.267 26.7051 144.446 26.7327 144.609 26.7852C144.772 26.8377 144.91 26.9122 145.026 27.0062C145.142 27.1001 145.231 27.2161 145.294 27.3514C145.358 27.4868 145.391 27.6359 145.391 27.7989C145.391 28.0171 145.355 28.1883 145.283 28.3126C145.212 28.4342 145.12 28.5336 145.007 28.611C145.181 28.7187 145.3 28.8485 145.366 29.0004C145.432 29.1523 145.466 29.3291 145.466 29.528C145.466 29.7158 145.432 29.8843 145.369 30.0279C145.305 30.1743 145.217 30.2931 145.104 30.3925C144.991 30.4892 144.858 30.561 144.706 30.6107C144.554 30.6577 144.386 30.6826 144.201 30.6826H141.925V30.6853ZM144.397 27.9094C144.397 27.7934 144.361 27.7105 144.289 27.6691C144.217 27.6249 144.098 27.6028 143.93 27.6028H142.767V28.216H143.93C144.098 28.216 144.217 28.1939 144.289 28.1497C144.361 28.1082 144.397 28.0254 144.397 27.9094ZM142.767 29.7904H143.977C144.145 29.7904 144.27 29.7655 144.352 29.7186C144.433 29.6716 144.474 29.5832 144.474 29.4534C144.474 29.3236 144.433 29.2352 144.352 29.1855C144.27 29.1358 144.145 29.1081 143.977 29.1081H142.767V29.7904Z" fill="#2C2C2C"/>
<path d="M148.33 30.7635C148.172 30.7635 148.032 30.7469 147.904 30.7166C147.78 30.6862 147.67 30.6475 147.576 30.6033C147.482 30.5591 147.402 30.5066 147.335 30.4541C147.269 30.4017 147.217 30.3519 147.175 30.305V31.9347C147.175 31.9899 147.156 32.0396 147.115 32.081C147.073 32.1225 147.026 32.1418 146.968 32.1418H146.388C146.333 32.1418 146.283 32.1225 146.242 32.081C146.2 32.0396 146.181 31.9927 146.181 31.9347V26.9158C146.181 26.8606 146.2 26.8109 146.242 26.7695C146.283 26.728 146.33 26.7087 146.388 26.7087H146.968C147.023 26.7087 147.073 26.728 147.115 26.7695C147.156 26.8109 147.175 26.8578 147.175 26.9158V27.0926C147.217 27.0457 147.269 26.996 147.335 26.9435C147.402 26.891 147.482 26.8413 147.576 26.7943C147.67 26.7474 147.78 26.7115 147.904 26.6783C148.029 26.6479 148.17 26.6313 148.33 26.6313C148.584 26.6313 148.816 26.6811 149.023 26.7805C149.23 26.8799 149.404 27.0125 149.551 27.1783C149.697 27.344 149.81 27.5346 149.896 27.7528C149.979 27.9682 150.026 28.1947 150.037 28.4295C150.042 28.5068 150.045 28.5952 150.045 28.6974C150.045 28.7996 150.042 28.888 150.037 28.9654C150.026 29.2001 149.979 29.4266 149.896 29.6421C149.813 29.8575 149.697 30.0509 149.551 30.2166C149.404 30.3823 149.23 30.5149 149.023 30.6144C148.813 30.7138 148.584 30.7635 148.33 30.7635ZM149.04 28.9129C149.056 28.7692 149.056 28.6284 149.04 28.4847C149.009 28.1533 148.907 27.9157 148.733 27.7693C148.559 27.623 148.349 27.5511 148.098 27.5511C147.846 27.5511 147.637 27.6257 147.465 27.7721C147.294 27.9213 147.197 28.1312 147.17 28.4074C147.159 28.4847 147.153 28.5814 147.153 28.6974C147.153 28.8134 147.159 28.9129 147.17 28.9875C147.195 29.2526 147.294 29.4625 147.465 29.6145C147.637 29.7664 147.846 29.8437 148.098 29.8437C148.346 29.8437 148.559 29.7719 148.733 29.6255C148.907 29.4819 149.009 29.2443 149.04 28.9129Z" fill="#2C2C2C"/>
<path d="M150.526 28.6965C150.526 28.412 150.57 28.1413 150.656 27.89C150.741 27.6386 150.868 27.4176 151.031 27.2326C151.194 27.0475 151.393 26.9011 151.625 26.7934C151.857 26.6857 152.117 26.6332 152.401 26.6332C152.686 26.6332 152.945 26.6857 153.177 26.7906C153.409 26.8956 153.608 27.0365 153.771 27.2105C153.934 27.3872 154.061 27.5916 154.15 27.8292C154.238 28.0667 154.282 28.3153 154.282 28.575V28.9202C154.282 28.9755 154.263 29.0252 154.221 29.0666C154.18 29.1081 154.133 29.1274 154.075 29.1274H151.52C151.52 29.2434 151.545 29.3484 151.592 29.4368C151.642 29.5251 151.705 29.6025 151.788 29.6632C151.868 29.724 151.965 29.771 152.073 29.8014C152.18 29.8317 152.288 29.8483 152.401 29.8483C152.564 29.8483 152.697 29.8317 152.799 29.7986C152.901 29.7654 152.984 29.724 153.05 29.6715C153.106 29.6301 153.153 29.6025 153.188 29.5887C153.224 29.5721 153.271 29.5666 153.335 29.5666H153.948C154.003 29.5666 154.053 29.5859 154.097 29.6273C154.141 29.6688 154.161 29.7157 154.155 29.7737C154.15 29.8455 154.111 29.9367 154.036 30.0499C153.962 30.1632 153.851 30.2709 153.705 30.3786C153.556 30.4864 153.374 30.5775 153.158 30.6549C152.94 30.7322 152.691 30.7709 152.404 30.7709C152.12 30.7709 151.86 30.7211 151.628 30.6217C151.396 30.5223 151.197 30.3814 151.034 30.1963C150.871 30.014 150.747 29.7958 150.658 29.5417C150.567 29.2821 150.526 29.0031 150.526 28.6965ZM152.398 27.5502C152.249 27.5502 152.125 27.5723 152.02 27.6165C151.915 27.6607 151.827 27.7159 151.755 27.785C151.683 27.854 151.628 27.9314 151.589 28.0142C151.551 28.0971 151.526 28.18 151.517 28.2546H153.246C153.235 28.1772 153.216 28.0971 153.188 28.0142C153.161 27.9314 153.114 27.854 153.05 27.785C152.987 27.7159 152.901 27.6607 152.799 27.6165C152.697 27.5723 152.561 27.5502 152.398 27.5502Z" fill="#2C2C2C"/>
<path d="M157.059 28.8274L158.144 26.8608C158.161 26.8304 158.188 26.7972 158.227 26.7613C158.269 26.7254 158.34 26.7089 158.443 26.7089H158.987C159.042 26.7089 159.092 26.7282 159.133 26.7696C159.175 26.8111 159.194 26.858 159.194 26.916V30.4819C159.194 30.5372 159.175 30.5869 159.133 30.6283C159.092 30.6698 159.045 30.6891 158.987 30.6891H158.407C158.351 30.6891 158.302 30.6698 158.26 30.6283C158.219 30.5869 158.2 30.5399 158.2 30.4819V28.5623L157.473 29.8467C157.448 29.8881 157.415 29.9295 157.374 29.9737C157.332 30.0179 157.277 30.04 157.205 30.04H156.915C156.843 30.04 156.788 30.0179 156.747 29.9737C156.705 29.9295 156.672 29.8881 156.647 29.8467L155.921 28.5623V30.4819C155.921 30.5372 155.901 30.5869 155.86 30.6283C155.819 30.6698 155.772 30.6891 155.714 30.6891H155.134C155.078 30.6891 155.029 30.6698 154.987 30.6283C154.946 30.5869 154.926 30.5399 154.926 30.4819V26.916C154.926 26.8608 154.946 26.8111 154.987 26.7696C155.029 26.7282 155.076 26.7089 155.134 26.7089H155.678C155.78 26.7089 155.852 26.7282 155.893 26.7613C155.935 26.7972 155.962 26.8304 155.976 26.8608L157.059 28.8274Z" fill="#2C2C2C"/>
<path d="M159.856 28.6965C159.856 28.412 159.9 28.1413 159.985 27.89C160.071 27.6386 160.198 27.4176 160.361 27.2326C160.524 27.0475 160.723 26.9011 160.955 26.7934C161.187 26.6857 161.447 26.6332 161.731 26.6332C162.016 26.6332 162.275 26.6857 162.507 26.7906C162.739 26.8956 162.938 27.0365 163.101 27.2105C163.264 27.3872 163.391 27.5916 163.48 27.8292C163.568 28.0667 163.612 28.3153 163.612 28.575V28.9202C163.612 28.9755 163.593 29.0252 163.551 29.0666C163.51 29.1081 163.463 29.1274 163.405 29.1274H160.85C160.85 29.2434 160.875 29.3484 160.922 29.4368C160.971 29.5251 161.035 29.6025 161.118 29.6632C161.198 29.724 161.295 29.771 161.402 29.8014C161.51 29.8317 161.618 29.8483 161.731 29.8483C161.894 29.8483 162.027 29.8317 162.129 29.7986C162.231 29.7654 162.314 29.724 162.38 29.6715C162.435 29.6301 162.482 29.6025 162.518 29.5887C162.554 29.5721 162.601 29.5666 162.665 29.5666H163.278C163.333 29.5666 163.383 29.5859 163.427 29.6273C163.471 29.6688 163.491 29.7157 163.485 29.7737C163.48 29.8455 163.441 29.9367 163.366 30.0499C163.292 30.1632 163.181 30.2709 163.035 30.3786C162.886 30.4864 162.703 30.5775 162.488 30.6549C162.27 30.7322 162.021 30.7709 161.734 30.7709C161.449 30.7709 161.19 30.7211 160.958 30.6217C160.726 30.5223 160.527 30.3814 160.364 30.1963C160.201 30.014 160.077 29.7958 159.988 29.5417C159.9 29.2821 159.856 29.0031 159.856 28.6965ZM161.731 27.5502C161.582 27.5502 161.458 27.5723 161.353 27.6165C161.248 27.6607 161.159 27.7159 161.088 27.785C161.016 27.854 160.96 27.9314 160.922 28.0142C160.883 28.0971 160.858 28.18 160.85 28.2546H162.579C162.568 28.1772 162.549 28.0971 162.521 28.0142C162.493 27.9314 162.446 27.854 162.383 27.785C162.319 27.7159 162.234 27.6607 162.132 27.6165C162.027 27.5723 161.894 27.5502 161.731 27.5502Z" fill="#2C2C2C"/>
<path d="M167.828 26.7089C167.883 26.7089 167.933 26.7282 167.974 26.7696C168.015 26.8111 168.035 26.858 168.035 26.916V30.4819C168.035 30.5372 168.015 30.5869 167.974 30.6283C167.933 30.6698 167.886 30.6891 167.828 30.6891H167.245C167.19 30.6891 167.14 30.6698 167.098 30.6283C167.057 30.5869 167.038 30.5399 167.038 30.4819V29.1423H165.248V30.4819C165.248 30.5372 165.228 30.5869 165.187 30.6283C165.146 30.6698 165.099 30.6891 165.041 30.6891H164.461C164.405 30.6891 164.356 30.6698 164.314 30.6311C164.273 30.5924 164.253 30.5427 164.253 30.4819V26.916C164.253 26.8608 164.273 26.8111 164.314 26.7696C164.356 26.7282 164.403 26.7089 164.461 26.7089H165.041C165.096 26.7089 165.146 26.7282 165.187 26.7696C165.228 26.8111 165.248 26.858 165.248 26.916V28.2253H167.038V26.916C167.038 26.8608 167.057 26.8111 167.098 26.7696C167.14 26.7282 167.187 26.7089 167.245 26.7089H167.828Z" fill="#2C2C2C"/>
<path d="M172.474 26.7089C172.529 26.7089 172.579 26.7282 172.621 26.7696C172.662 26.8111 172.681 26.858 172.681 26.916V30.4819C172.681 30.5372 172.662 30.5869 172.621 30.6283C172.579 30.6698 172.532 30.6891 172.474 30.6891H171.891C171.836 30.6891 171.786 30.6698 171.745 30.6283C171.703 30.5869 171.684 30.5399 171.684 30.4819V29.1423H169.894V30.4819C169.894 30.5372 169.875 30.5869 169.834 30.6283C169.792 30.6698 169.745 30.6891 169.687 30.6891H169.107C169.052 30.6891 169.002 30.6698 168.961 30.6311C168.919 30.5924 168.9 30.5427 168.9 30.4819V26.916C168.9 26.8608 168.919 26.8111 168.961 26.7696C169.002 26.7282 169.049 26.7089 169.107 26.7089H169.687C169.742 26.7089 169.792 26.7282 169.834 26.7696C169.875 26.8111 169.894 26.858 169.894 26.916V28.2253H171.684V26.916C171.684 26.8608 171.703 26.8111 171.745 26.7696C171.786 26.7282 171.833 26.7089 171.891 26.7089H172.474Z" fill="#2C2C2C"/>
<path d="M177.023 29.1423C177.023 29.3716 176.981 29.5815 176.896 29.7748C176.813 29.9654 176.694 30.1284 176.548 30.2637C176.399 30.3991 176.222 30.504 176.012 30.5786C175.802 30.6532 175.573 30.6891 175.324 30.6891H173.747C173.692 30.6891 173.642 30.6698 173.601 30.6283C173.559 30.5869 173.54 30.5399 173.54 30.4819V26.916C173.54 26.8608 173.559 26.8111 173.601 26.7696C173.642 26.7282 173.689 26.7089 173.747 26.7089H174.327C174.382 26.7089 174.432 26.7282 174.473 26.7696C174.515 26.8111 174.534 26.858 174.534 26.916V27.5983H175.321C175.57 27.5983 175.802 27.6342 176.009 27.7088C176.219 27.7833 176.396 27.8883 176.545 28.0236C176.694 28.159 176.81 28.322 176.893 28.5125C176.976 28.7031 177.023 28.913 177.023 29.1423ZM174.537 29.7693H175.194C175.321 29.7693 175.437 29.761 175.542 29.7417C175.647 29.7251 175.738 29.692 175.813 29.645C175.89 29.5981 175.948 29.5345 175.99 29.4544C176.031 29.3743 176.051 29.2694 176.051 29.1395C176.051 29.0125 176.031 28.9075 175.99 28.8247C175.948 28.7446 175.89 28.6783 175.813 28.6341C175.736 28.5871 175.647 28.5567 175.542 28.5374C175.437 28.5181 175.321 28.5098 175.194 28.5098H174.537V29.7693ZM177.407 26.916C177.407 26.8608 177.426 26.8111 177.468 26.7696C177.509 26.7282 177.556 26.7089 177.614 26.7089H178.197C178.252 26.7089 178.302 26.7282 178.343 26.7696C178.385 26.8111 178.404 26.858 178.404 26.916V30.4819C178.404 30.5372 178.385 30.5869 178.343 30.6283C178.302 30.6698 178.255 30.6891 178.197 30.6891H177.614C177.559 30.6891 177.509 30.6698 177.468 30.6283C177.426 30.5869 177.407 30.5399 177.407 30.4819V26.916Z" fill="#2C2C2C"/>
<path d="M180.964 29.424L180.061 30.5399C180.009 30.6007 179.959 30.6421 179.904 30.6587C179.851 30.6753 179.791 30.6863 179.724 30.6863H179.136C179.081 30.6863 179.034 30.667 178.995 30.6256C178.956 30.5841 178.937 30.5344 178.937 30.4737C178.937 30.4322 178.948 30.3963 178.967 30.3659L180.346 28.6589L179.031 27.0293C179.012 26.9989 179.001 26.963 179.001 26.9215C179.001 26.8608 179.02 26.8083 179.059 26.7696C179.097 26.7282 179.144 26.7089 179.199 26.7089H179.788C179.854 26.7089 179.915 26.7171 179.967 26.7365C180.02 26.7531 180.072 26.7945 180.125 26.8553L180.989 27.927L181.846 26.8553C181.895 26.7945 181.948 26.7558 182.003 26.7365C182.055 26.7199 182.116 26.7089 182.183 26.7089H182.771C182.826 26.7089 182.873 26.7282 182.912 26.7696C182.95 26.8111 182.97 26.8608 182.97 26.9215C182.97 26.963 182.959 26.9989 182.939 27.0293L181.608 28.6893L182.97 30.3659C182.989 30.3963 183 30.4322 183 30.4737C183 30.5344 182.981 30.5869 182.942 30.6256C182.903 30.667 182.856 30.6863 182.801 30.6863H182.213C182.147 30.6863 182.086 30.6781 182.033 30.6587C181.981 30.6421 181.928 30.6007 181.876 30.5399L180.964 29.424Z" fill="#2C2C2C"/>
<path d="M115.234 35.9705C115.253 35.8628 115.3 35.7495 115.375 35.6252C115.449 35.5037 115.554 35.3877 115.69 35.28C115.825 35.1722 115.991 35.0839 116.187 35.0148C116.383 34.9457 116.612 34.9126 116.872 34.9126C117.132 34.9126 117.366 34.9457 117.576 35.0148C117.786 35.0839 117.966 35.1833 118.115 35.3159C118.264 35.4485 118.38 35.6142 118.463 35.8158C118.546 36.0175 118.584 36.2495 118.584 36.5091V38.7575C118.584 38.8127 118.565 38.8625 118.524 38.9039C118.482 38.9453 118.435 38.9647 118.377 38.9647H117.797C117.742 38.9647 117.692 38.9453 117.651 38.9039C117.609 38.8625 117.59 38.8155 117.59 38.7575V38.5061C117.482 38.6553 117.328 38.7796 117.126 38.8846C116.924 38.9895 116.668 39.042 116.358 39.042C116.14 39.042 115.941 39.0116 115.77 38.9536C115.596 38.8956 115.452 38.8127 115.333 38.705C115.217 38.5973 115.126 38.473 115.063 38.3266C114.999 38.1802 114.966 38.0228 114.966 37.8488C114.966 37.498 115.09 37.2217 115.342 37.0229C115.59 36.824 115.925 36.6887 116.344 36.6168L117.59 36.4014C117.59 36.1915 117.521 36.0451 117.383 35.9567C117.245 35.8711 117.074 35.8269 116.869 35.8269C116.742 35.8269 116.643 35.8434 116.571 35.8793C116.499 35.9153 116.43 35.9622 116.364 36.0257C116.317 36.0672 116.275 36.0948 116.237 36.1086C116.198 36.1252 116.157 36.1307 116.11 36.1307H115.397C115.344 36.1307 115.303 36.1141 115.267 36.0837C115.231 36.0534 115.223 36.023 115.234 35.9705ZM116.51 38.1277C116.684 38.1277 116.839 38.1029 116.974 38.0559C117.109 38.0062 117.223 37.9427 117.314 37.8598C117.405 37.7769 117.474 37.6858 117.521 37.5836C117.568 37.4814 117.59 37.3764 117.59 37.2687V37.1914L116.549 37.3764C116.339 37.4123 116.19 37.4648 116.099 37.5339C116.007 37.6029 115.96 37.6968 115.96 37.8128C115.96 37.9206 116.016 37.9979 116.126 38.0504C116.234 38.1029 116.364 38.1277 116.51 38.1277Z" fill="#2C2C2C"/>
<path d="M119.565 38.9704C119.523 38.9704 119.487 38.9538 119.457 38.9234C119.427 38.893 119.41 38.8571 119.41 38.8157V35.1448C119.41 35.1034 119.427 35.0675 119.457 35.0371C119.487 35.0067 119.523 34.9901 119.565 34.9901H121.714C121.907 34.9901 122.087 35.0177 122.25 35.0702C122.413 35.1227 122.551 35.1973 122.667 35.2912C122.78 35.3851 122.871 35.5011 122.935 35.6365C122.998 35.7718 123.031 35.921 123.031 36.0839C123.031 36.3021 122.995 36.4734 122.924 36.5977C122.852 36.7192 122.761 36.8186 122.647 36.896C122.821 37.0037 122.94 37.1335 123.006 37.2855C123.073 37.4374 123.106 37.6141 123.106 37.813C123.106 38.0008 123.073 38.1693 123.009 38.313C122.946 38.4594 122.857 38.5781 122.744 38.6776C122.631 38.7742 122.498 38.8461 122.346 38.8958C122.194 38.9427 122.026 38.9676 121.841 38.9676H119.565V38.9704ZM122.034 36.1944C122.034 36.0784 121.998 35.9955 121.926 35.9541C121.855 35.9099 121.736 35.8878 121.567 35.8878H120.405V36.501H121.567C121.736 36.501 121.855 36.4789 121.926 36.4347C121.998 36.3905 122.034 36.3104 122.034 36.1944ZM120.405 38.0754H121.614C121.783 38.0754 121.907 38.0506 121.99 38.0036C122.07 37.9566 122.112 37.8683 122.112 37.7384C122.112 37.6086 122.07 37.5202 121.99 37.4705C121.907 37.4208 121.783 37.3932 121.614 37.3932H120.405V38.0754Z" fill="#2C2C2C"/>
<path d="M127.092 34.9919C127.147 34.9919 127.197 35.0113 127.238 35.0527C127.28 35.0941 127.299 35.1411 127.299 35.1991V35.7046C127.299 35.7598 127.28 35.8095 127.238 35.851C127.197 35.8924 127.15 35.9117 127.092 35.9117H125.838V38.765C125.838 38.8203 125.819 38.87 125.777 38.9114C125.736 38.9529 125.689 38.9722 125.631 38.9722H125.051C124.996 38.9722 124.946 38.9529 124.904 38.9114C124.863 38.87 124.844 38.823 124.844 38.765V35.9117H123.59C123.534 35.9117 123.485 35.8924 123.443 35.851C123.402 35.8095 123.382 35.7626 123.382 35.7046V35.1991C123.382 35.1439 123.402 35.0941 123.443 35.0527C123.485 35.0113 123.532 34.9919 123.59 34.9919H127.092Z" fill="#2C2C2C"/>
<path d="M129.448 34.9144C129.727 34.9144 129.981 34.9586 130.21 35.0442C130.437 35.1299 130.633 35.2514 130.799 35.4033C130.964 35.5552 131.097 35.7348 131.196 35.9392C131.296 36.1436 131.354 36.3618 131.368 36.5966C131.373 36.6435 131.376 36.7015 131.376 36.7733C131.376 36.8452 131.376 36.917 131.376 36.9888C131.376 37.0606 131.376 37.1297 131.376 37.1987C131.376 37.2678 131.373 37.3258 131.368 37.37C131.348 37.6048 131.288 37.823 131.191 38.0274C131.094 38.2318 130.962 38.4085 130.796 38.5577C130.63 38.7068 130.434 38.8256 130.208 38.914C129.981 38.9996 129.727 39.0438 129.445 39.0438C129.163 39.0438 128.912 38.9996 128.683 38.914C128.456 38.8284 128.26 38.7096 128.094 38.5577C127.929 38.4085 127.796 38.229 127.699 38.0274C127.603 37.823 127.545 37.6048 127.523 37.37C127.517 37.323 127.514 37.2678 127.512 37.1987C127.509 37.1297 127.509 37.0606 127.509 36.9888C127.509 36.917 127.509 36.8452 127.512 36.7733C127.514 36.7015 127.517 36.6435 127.523 36.5966C127.539 36.3618 127.595 36.1436 127.694 35.9392C127.793 35.7348 127.926 35.558 128.092 35.4033C128.257 35.2514 128.454 35.1299 128.68 35.0442C128.915 34.9586 129.169 34.9144 129.448 34.9144ZM130.373 36.6352C130.357 36.4778 130.321 36.3452 130.263 36.2403C130.205 36.1353 130.13 36.0524 130.045 35.9917C129.959 35.9309 129.862 35.8895 129.763 35.8646C129.661 35.8425 129.556 35.8315 129.448 35.8315C129.34 35.8315 129.235 35.8425 129.133 35.8646C129.031 35.8867 128.937 35.9309 128.851 35.9917C128.766 36.0524 128.691 36.1353 128.633 36.2403C128.575 36.3452 128.536 36.475 128.523 36.6352C128.517 36.6767 128.514 36.7264 128.512 36.7872C128.509 36.8479 128.509 36.9115 128.509 36.9777C128.509 37.044 128.509 37.1103 128.512 37.1739C128.514 37.2374 128.517 37.2871 128.523 37.323C128.539 37.4805 128.575 37.613 128.633 37.718C128.691 37.823 128.766 37.9058 128.851 37.9666C128.937 38.0274 129.034 38.0688 129.133 38.0936C129.235 38.1157 129.34 38.1268 129.448 38.1268C129.556 38.1268 129.661 38.1157 129.763 38.0936C129.865 38.0716 129.959 38.0274 130.045 37.9666C130.13 37.9058 130.205 37.823 130.263 37.718C130.321 37.613 130.359 37.4832 130.373 37.323C130.379 37.2871 130.382 37.2374 130.382 37.1739C130.382 37.1103 130.382 37.044 130.382 36.9777C130.382 36.9115 130.382 36.8479 130.382 36.7872C130.382 36.7292 130.379 36.6767 130.373 36.6352Z" fill="#2C2C2C"/>
<path d="M132.845 34.9919C132.901 34.9919 132.95 35.0113 132.992 35.0527C133.033 35.0941 133.053 35.1411 133.053 35.1991V38.0524H134.086V35.1991C134.086 35.1439 134.105 35.0941 134.146 35.0527C134.188 35.0113 134.235 34.9919 134.293 34.9919H134.873C134.928 34.9919 134.978 35.0113 135.019 35.0527C135.061 35.0941 135.08 35.1411 135.08 35.1991V38.0524H136.113V35.1991C136.113 35.1439 136.132 35.0941 136.174 35.0527C136.215 35.0113 136.262 34.9919 136.32 34.9919H136.903C136.958 34.9919 137.008 35.0113 137.049 35.0527C137.091 35.0941 137.11 35.1411 137.11 35.1991V38.765C137.11 38.8203 137.091 38.87 137.049 38.9114C137.008 38.9529 136.961 38.9722 136.903 38.9722H132.268C132.213 38.9722 132.163 38.9529 132.122 38.9114C132.08 38.87 132.061 38.823 132.061 38.765V35.1991C132.061 35.1439 132.08 35.0941 132.122 35.0527C132.163 35.0113 132.21 34.9919 132.268 34.9919H132.845Z" fill="#2C2C2C"/>
<path d="M138.963 37.5617V38.7632C138.963 38.8184 138.944 38.8682 138.902 38.9096C138.861 38.951 138.814 38.9704 138.756 38.9704H138.176C138.121 38.9704 138.071 38.951 138.03 38.9096C137.988 38.8682 137.969 38.8212 137.969 38.7632V35.1973C137.969 35.142 137.988 35.0923 138.03 35.0509C138.071 35.0094 138.118 34.9901 138.176 34.9901H138.756C138.811 34.9901 138.861 35.0094 138.902 35.0509C138.944 35.0923 138.963 35.1393 138.963 35.1973V36.4071L140.372 35.1227C140.402 35.0978 140.441 35.0702 140.491 35.0398C140.54 35.0094 140.598 34.9929 140.67 34.9929H141.397C141.446 34.9929 141.49 35.0094 141.526 35.0454C141.562 35.0813 141.579 35.1255 141.579 35.1752C141.579 35.2 141.576 35.2249 141.568 35.247C141.56 35.2691 141.535 35.2967 141.496 35.3271L139.714 36.9402L141.664 38.6389C141.695 38.6693 141.714 38.6941 141.725 38.7162C141.736 38.7356 141.739 38.7604 141.739 38.7853C141.739 38.8378 141.723 38.8792 141.687 38.9151C141.651 38.951 141.606 38.9676 141.557 38.9676H140.745C140.667 38.9676 140.604 38.951 140.549 38.9206C140.496 38.8903 140.455 38.8626 140.43 38.8378L138.963 37.5617Z" fill="#2C2C2C"/>
<path d="M143.648 34.9144C143.927 34.9144 144.181 34.9586 144.411 35.0442C144.637 35.1299 144.833 35.2514 144.999 35.4033C145.165 35.5552 145.297 35.7348 145.397 35.9392C145.496 36.1436 145.554 36.3618 145.568 36.5966C145.574 36.6435 145.576 36.7015 145.576 36.7733C145.576 36.8452 145.576 36.917 145.576 36.9888C145.576 37.0606 145.576 37.1297 145.576 37.1987C145.576 37.2678 145.574 37.3258 145.568 37.37C145.549 37.6048 145.488 37.823 145.391 38.0274C145.295 38.2318 145.162 38.4085 144.996 38.5577C144.831 38.7068 144.634 38.8256 144.408 38.914C144.181 38.9996 143.927 39.0438 143.646 39.0438C143.364 39.0438 143.113 38.9996 142.883 38.914C142.657 38.8284 142.461 38.7096 142.295 38.5577C142.129 38.4085 141.997 38.229 141.9 38.0274C141.803 37.823 141.745 37.6048 141.723 37.37C141.718 37.323 141.715 37.2678 141.712 37.1987C141.709 37.1297 141.709 37.0606 141.709 36.9888C141.709 36.917 141.709 36.8452 141.712 36.7733C141.715 36.7015 141.718 36.6435 141.723 36.5966C141.74 36.3618 141.795 36.1436 141.894 35.9392C141.994 35.7348 142.126 35.558 142.292 35.4033C142.458 35.2514 142.654 35.1299 142.881 35.0442C143.113 34.9586 143.367 34.9144 143.648 34.9144ZM144.574 36.6352C144.557 36.4778 144.521 36.3452 144.463 36.2403C144.405 36.1353 144.331 36.0524 144.245 35.9917C144.159 35.9309 144.063 35.8895 143.963 35.8646C143.861 35.8425 143.756 35.8315 143.648 35.8315C143.541 35.8315 143.436 35.8425 143.333 35.8646C143.231 35.8867 143.137 35.9309 143.052 35.9917C142.966 36.0524 142.892 36.1353 142.834 36.2403C142.776 36.3452 142.737 36.475 142.723 36.6352C142.718 36.6767 142.715 36.7264 142.712 36.7872C142.709 36.8479 142.709 36.9115 142.709 36.9777C142.709 37.044 142.709 37.1103 142.712 37.1739C142.715 37.2374 142.718 37.2871 142.723 37.323C142.74 37.4805 142.776 37.613 142.834 37.718C142.892 37.823 142.966 37.9058 143.052 37.9666C143.137 38.0274 143.234 38.0688 143.333 38.0936C143.436 38.1157 143.541 38.1268 143.648 38.1268C143.756 38.1268 143.861 38.1157 143.963 38.0936C144.065 38.0716 144.159 38.0274 144.245 37.9666C144.331 37.9058 144.405 37.823 144.463 37.718C144.521 37.613 144.56 37.4832 144.574 37.323C144.579 37.2871 144.582 37.2374 144.582 37.1739C144.582 37.1103 144.582 37.044 144.582 36.9777C144.582 36.9115 144.582 36.8479 144.582 36.7872C144.579 36.7292 144.579 36.6767 144.574 36.6352Z" fill="#2C2C2C"/>
<path d="M147.626 35.9099V37.5617C147.626 38.0257 147.51 38.3903 147.278 38.6527C147.046 38.9151 146.681 39.0477 146.187 39.0477H146.01C145.955 39.0477 145.905 39.0284 145.864 38.9869C145.822 38.9455 145.803 38.8985 145.803 38.8405V38.3351C145.803 38.2798 145.822 38.2301 145.864 38.1887C145.905 38.1472 145.952 38.1279 146.01 38.1279H146.148C146.352 38.1279 146.482 38.0754 146.543 37.9705C146.601 37.8655 146.631 37.7163 146.631 37.523V35.1973C146.631 35.142 146.651 35.0923 146.692 35.0509C146.734 35.0094 146.781 34.9901 146.839 34.9901H149.645C149.7 34.9901 149.75 35.0094 149.791 35.0509C149.833 35.0923 149.852 35.1393 149.852 35.1973V38.7632C149.852 38.8184 149.833 38.8682 149.791 38.9096C149.75 38.951 149.703 38.9704 149.645 38.9704H149.065C149.01 38.9704 148.96 38.951 148.918 38.9096C148.877 38.8682 148.858 38.8212 148.858 38.7632V35.9099H147.626Z" fill="#2C2C2C"/>
</g>
<defs>
<clipPath id="clip0_2_5787">
<rect width="183" height="41.5509" fill="white" transform="translate(0 0.681641)"/>
</clipPath>
</defs>
</svg>
