<svg width="151" height="122" viewBox="0 0 151 122" fill="none" xmlns="http://www.w3.org/2000/svg">
<g filter="url(#filter0_d_2_15908)">
<rect x="77.4482" y="8" width="41.8834" height="41.8834" rx="20.9417" transform="rotate(12.8456 77.4482 8)" fill="#4B8EFF"/>
</g>
<rect y="56.7285" width="145.476" height="56.6225" rx="16.525" transform="rotate(-5.41485 0 56.7285)" fill="#202020"/>
<path d="M45.7226 80.2038L45.9708 83.2767L31.7077 84.4289L31.3251 82.0649L38.5207 68.3043L41.6343 68.0528L38.7181 73.9679L35.1578 81.0573L45.7226 80.2038ZM42.4773 67.9847L44.0766 87.7818L40.1607 88.0981L38.5614 68.301L42.4773 67.9847ZM57.9088 83.6672L58.1672 83.6464C59.2549 83.5585 60.178 83.3516 60.9363 83.0258C61.7029 82.6901 62.3196 82.248 62.7862 81.6994C63.2528 81.1508 63.5788 80.4994 63.7642 79.7454C63.9489 78.9824 64.0032 78.1295 63.9271 77.1868L63.6239 73.434C63.5661 72.7179 63.4426 72.0938 63.2537 71.5616C63.0738 71.0287 62.8381 70.5961 62.5467 70.2639C62.2636 69.9218 61.9425 69.674 61.5834 69.5205C61.2333 69.3663 60.8544 69.3057 60.4465 69.3387C60.0114 69.3738 59.6349 69.5137 59.3171 69.7584C58.9985 69.9939 58.7361 70.3025 58.5297 70.6842C58.3324 71.0651 58.1893 71.4963 58.1005 71.9779C58.02 72.4497 58.0002 72.9394 58.0412 73.4471C58.0822 73.9547 58.1803 74.4349 58.3355 74.8876C58.49 75.3314 58.6993 75.7205 58.9636 76.0549C59.2271 76.3803 59.544 76.633 59.9144 76.8129C60.284 76.9838 60.709 77.0498 61.1894 77.011C61.6517 76.9737 62.0572 76.8543 62.4059 76.6527C62.7629 76.4414 63.0566 76.1805 63.2869 75.8699C63.5264 75.5586 63.6998 75.2207 63.8072 74.8562C63.9237 74.491 63.9673 74.1271 63.938 73.7645L65.2868 74.3672C65.3381 75.0017 65.2526 75.6381 65.0305 76.2765C64.8083 76.9148 64.473 77.5076 64.0246 78.0548C63.5844 78.5921 63.0592 79.036 62.4488 79.3864C61.8384 79.7368 61.1707 79.9413 60.4455 79.9998C59.5209 80.0745 58.687 79.9731 57.9438 79.6956C57.1999 79.409 56.5545 78.9867 56.0076 78.4287C55.4691 77.8609 55.0403 77.1839 54.7213 76.3976C54.4023 75.6114 54.2048 74.7469 54.1286 73.8042C54.051 72.8433 54.1322 71.929 54.3723 71.0611C54.6215 70.1924 55.0101 69.4129 55.5383 68.7224C56.0755 68.0312 56.7374 67.4714 57.5239 67.0429C58.3187 66.6046 59.2193 66.3449 60.2254 66.2636C61.2316 66.1823 62.1629 66.3032 63.0192 66.6264C63.8756 66.9495 64.6273 67.4453 65.2743 68.1138C65.9207 68.7733 66.4424 69.5842 66.8394 70.5466C67.2456 71.5083 67.4973 72.5919 67.5947 73.7975L67.7046 75.1572C67.8086 76.4444 67.7647 77.6523 67.573 78.7808C67.3904 79.9087 67.0589 80.9436 66.5785 81.8857C66.1064 82.818 65.488 83.6343 64.7235 84.3347C63.968 85.0344 63.069 85.5952 62.0264 86.017C60.9839 86.4388 59.8009 86.7031 58.4775 86.81L58.1648 86.8353L57.9088 83.6672ZM83.7503 72.862L84.0271 76.2884C84.1472 77.775 84.0922 79.0704 83.8621 80.1747C83.6312 81.27 83.2445 82.1862 82.7019 82.9235C82.1676 83.6509 81.5057 84.2107 80.7163 84.603C79.9268 84.9952 79.0335 85.2316 78.0364 85.3121C77.2387 85.3766 76.4874 85.3369 75.7824 85.1931C75.0766 85.0403 74.4297 84.7687 73.8416 84.3782C73.2626 83.9871 72.7469 83.4767 72.2946 82.8473C71.8507 82.208 71.4871 81.4344 71.2039 80.5267C70.9207 79.6189 70.7308 78.5668 70.6342 77.3703L70.3574 73.9439C70.2373 72.4573 70.293 71.1709 70.5246 70.0847C70.7645 68.9887 71.1516 68.077 71.6859 67.3496C72.2292 66.6214 72.896 66.0657 73.6862 65.6826C74.4756 65.2903 75.3689 65.0539 76.366 64.9734C77.1637 64.9089 77.9109 64.9535 78.6076 65.1071C79.3126 65.2508 79.9588 65.5134 80.5461 65.8948C81.1335 66.2762 81.6492 66.7865 82.0931 67.4258C82.5364 68.056 82.8996 68.825 83.1827 69.7327C83.4652 70.6314 83.6544 71.6745 83.7503 72.862ZM80.1393 77.1225L79.778 72.6491C79.7201 71.933 79.6288 71.3108 79.504 70.7826C79.3883 70.2537 79.2384 69.8096 79.0543 69.4504C78.8694 69.0821 78.6541 68.7893 78.4085 68.5719C78.1628 68.3546 77.8906 68.2032 77.5917 68.1179C77.2929 68.0325 76.9667 68.0041 76.6132 68.0327C76.169 68.0686 75.7817 68.1865 75.4511 68.3866C75.1296 68.5859 74.8664 68.8854 74.6615 69.2852C74.4558 69.6759 74.3148 70.1891 74.2385 70.8248C74.1704 71.4507 74.1723 72.2078 74.244 73.0962L74.6054 77.5695C74.6632 78.2856 74.7504 78.9127 74.8669 79.4507C74.9924 79.988 75.1479 80.4453 75.3335 80.8226C75.5274 81.1902 75.743 81.4875 75.9804 81.7147C76.226 81.9321 76.4983 82.0834 76.7971 82.1688C77.105 82.2534 77.4358 82.2814 77.7893 82.2528C78.2244 82.2177 78.6027 82.1005 78.9242 81.9011C79.254 81.692 79.5213 81.3876 79.7263 80.9878C79.9395 80.5783 80.0798 80.056 80.1471 79.421C80.2144 78.7861 80.2118 78.0199 80.1393 77.1225ZM99.7402 71.5702L100.017 74.9967C100.137 76.4833 100.082 77.7787 99.852 78.883C99.6211 79.9783 99.2344 80.8945 98.6918 81.6318C98.1575 82.3592 97.4957 82.919 96.7062 83.3113C95.9168 83.7035 95.0235 83.9399 94.0264 84.0204C93.2287 84.0849 92.4773 84.0452 91.7723 83.9014C91.0666 83.7486 90.4196 83.477 89.8316 83.0865C89.2525 82.6954 88.7369 82.185 88.2846 81.5555C87.8406 80.9163 87.477 80.1427 87.1939 79.235C86.9107 78.3272 86.7208 77.2751 86.6241 76.0786L86.3473 72.6522C86.2272 71.1656 86.283 69.8792 86.5146 68.793C86.7545 67.697 87.1416 66.7853 87.6758 66.0579C88.2192 65.3297 88.886 64.774 89.6761 64.3908C90.4656 63.9986 91.3589 63.7622 92.356 63.6817C93.1537 63.6172 93.9008 63.6618 94.5975 63.8154C95.3026 63.9591 95.9487 64.2217 96.5361 64.6031C97.1235 64.9844 97.6391 65.4948 98.0831 66.1341C98.5263 66.7643 98.8895 67.5333 99.1727 68.441C99.4551 69.3397 99.6443 70.3828 99.7402 71.5702ZM96.1293 75.8308L95.7679 71.3574C95.7101 70.6413 95.6187 70.0191 95.494 69.4909C95.3782 68.962 95.2283 68.5179 95.0442 68.1587C94.8593 67.7904 94.6441 67.4976 94.3984 67.2802C94.1528 67.0629 93.8805 66.9115 93.5817 66.8262C93.2828 66.7408 92.9566 66.7124 92.6031 66.741C92.1589 66.7769 91.7716 66.8948 91.4411 67.0949C91.1196 67.2942 90.8564 67.5937 90.6515 67.9935C90.4458 68.3842 90.3048 68.8974 90.2284 69.5331C90.1604 70.159 90.1622 70.9161 90.234 71.8044L90.5953 76.2778C90.6532 76.9939 90.7403 77.621 90.8568 78.159C90.9823 78.6963 91.1379 79.1536 91.3235 79.5309C91.5174 79.8985 91.733 80.1958 91.9703 80.423C92.216 80.6404 92.4882 80.7917 92.7871 80.8771C93.095 80.9617 93.4257 80.9897 93.7792 80.9611C94.2143 80.926 94.5926 80.8088 94.9141 80.6094C95.2439 80.4003 95.5113 80.0959 95.7162 79.6961C95.9295 79.2866 96.0697 78.7643 96.1371 78.1293C96.2044 77.4944 96.2018 76.7282 96.1293 75.8308ZM119.486 74.5872L109.071 75.4286L108.814 72.2469L119.134 71.4132C119.977 71.3451 120.637 71.1595 121.114 70.8563C121.601 70.5525 121.938 70.1602 122.128 69.6796C122.316 69.19 122.386 68.646 122.338 68.0477C122.29 67.4585 122.125 66.9291 121.84 66.4594C121.564 65.9798 121.165 65.6107 120.642 65.3518C120.128 65.0831 119.49 64.9796 118.729 65.0411L115.125 65.3322L116.466 81.934L112.387 82.2635L110.788 62.4664L118.457 61.8469C120.016 61.721 121.371 61.8898 122.521 62.3534C123.681 62.8163 124.599 63.5085 125.276 64.4301C125.952 65.3517 126.341 66.4379 126.442 67.6888C126.548 69.0032 126.331 70.1566 125.791 71.1491C125.26 72.1409 124.457 72.9311 123.382 73.5197C122.317 74.1076 121.018 74.4634 119.486 74.5872ZM120.324 75.6417L120.581 78.8234L109.418 79.7252L109.161 76.5435L120.324 75.6417Z" fill="white"/>
<path d="M96.5415 31.8109C96.7335 31.005 97.5424 30.5074 98.3483 30.6994C99.1542 30.8915 99.6518 31.7004 99.4598 32.5063C99.2677 33.3121 98.4588 33.8098 97.6529 33.6177C96.8471 33.4257 96.3494 32.6168 96.5415 31.8109Z" fill="white"/>
<path fill-rule="evenodd" clip-rule="evenodd" d="M102.583 27.7753C102.301 26.1193 101.145 24.7015 99.5047 24.1236L98.8865 23.9058C95.7641 22.8057 92.5285 22.0582 89.24 21.6773L88.8079 21.6272C87.1384 21.4338 85.55 22.3957 84.9476 23.9646C83.7608 27.056 82.9899 30.2914 82.6551 33.5858C82.4852 35.2578 83.4692 36.8326 85.0465 37.4128L85.4547 37.563C88.5617 38.706 91.7867 39.498 95.0696 39.9241L95.7196 40.0085C97.4442 40.2323 99.1156 39.4883 100.114 38.1372C101.196 38.0771 102.177 37.3845 102.561 36.3318C103.251 34.4454 103.718 32.4851 103.953 30.4906C104.085 29.3775 103.522 28.3172 102.583 27.7753ZM98.388 25.3205C95.3711 24.2576 92.2448 23.5353 89.0674 23.1673L88.6353 23.1172C87.6461 23.0027 86.7049 23.5726 86.348 24.5022C85.2088 27.4696 84.4688 30.5752 84.1474 33.7375C84.0467 34.7282 84.6298 35.6613 85.5644 36.0051L85.9726 36.1553C88.9746 37.2597 92.0906 38.0249 95.2627 38.4366L95.9127 38.5209C96.7608 38.631 97.5901 38.3976 98.2416 37.9131C96.7542 37.6491 95.2767 37.2567 93.8657 36.7492C92.6638 36.317 91.8968 35.1067 92.0479 33.8266C92.2833 31.8321 92.7504 29.8718 93.4398 27.9854C93.8822 26.7747 95.1125 26.0404 96.3802 26.1966C97.8684 26.38 99.3641 26.696 100.811 27.1311C100.448 26.4049 99.8128 25.8226 99.0062 25.5384L98.388 25.3205ZM101.14 28.8097C101.139 28.8136 101.139 28.8175 101.139 28.8213L101.136 28.8606L101.336 28.8766C101.434 28.9103 101.531 28.9446 101.628 28.9795C102.184 29.1795 102.532 29.7394 102.464 30.3148C102.242 32.1935 101.802 34.0401 101.153 35.817C100.954 36.3611 100.391 36.7042 99.8045 36.6319C99.7023 36.6193 99.5999 36.606 99.4976 36.5921L99.3115 36.516L99.2966 36.5525C99.2952 36.5561 99.2937 36.5597 99.2922 36.5632C97.6241 36.3219 95.9534 35.906 94.3733 35.3377C93.8171 35.1377 93.4697 34.5778 93.5376 34.0024C93.7593 32.1237 94.1993 30.2771 94.8486 28.5003C95.0475 27.9561 95.6101 27.613 96.1967 27.6853C97.8633 27.8907 99.542 28.2729 101.14 28.8097Z" fill="white"/>
<circle cx="47.1367" cy="112" r="10" fill="#FF941F"/>
<path d="M44.1367 112H50.1367" stroke="white" stroke-width="1.5" stroke-linecap="round"/>
<path d="M47.1367 109L47.1367 115" stroke="white" stroke-width="1.5" stroke-linecap="round"/>
<defs>
<filter id="filter0_d_2_15908" x="50.2637" y="0.127197" width="83.8926" height="83.8926" filterUnits="userSpaceOnUse" color-interpolation-filters="sRGB">
<feFlood flood-opacity="0" result="BackgroundImageFix"/>
<feColorMatrix in="SourceAlpha" type="matrix" values="0 0 0 0 0 0 0 0 0 0 0 0 0 0 0 0 0 0 127 0" result="hardAlpha"/>
<feMorphology radius="3" operator="erode" in="SourceAlpha" result="effect1_dropShadow_2_15908"/>
<feOffset dx="-1" dy="9"/>
<feGaussianBlur stdDeviation="12"/>
<feComposite in2="hardAlpha" operator="out"/>
<feColorMatrix type="matrix" values="0 0 0 0 0.309804 0 0 0 0 0.560784 0 0 0 0 0.992157 0 0 0 0.84 0"/>
<feBlend mode="normal" in2="BackgroundImageFix" result="effect1_dropShadow_2_15908"/>
<feBlend mode="normal" in="SourceGraphic" in2="effect1_dropShadow_2_15908" result="shape"/>
</filter>
</defs>
</svg>
