<svg width="152" height="28" viewBox="0 0 152 28" fill="none" xmlns="http://www.w3.org/2000/svg">
<path d="M21.3006 13.885C21.2826 11.925 22.9466 10.9714 23.0227 10.927C22.0803 9.58734 20.6195 9.4043 20.1062 9.3897C18.8794 9.26382 17.6893 10.1055 17.0643 10.1055C16.4269 10.1055 15.4645 9.40186 14.4273 9.42254C13.0925 9.44261 11.8438 10.1961 11.159 11.3661C9.74563 13.7518 10.7997 17.2576 12.1538 19.186C12.8312 20.1304 13.6227 21.1849 14.6587 21.1478C15.6722 21.1071 16.0508 20.5178 17.2739 20.5178C18.4858 20.5178 18.8413 21.1478 19.8979 21.1241C20.9857 21.1071 21.6705 20.1754 22.3242 19.2225C23.1069 18.14 23.4213 17.074 23.4338 17.0193C23.4082 17.0107 21.3212 16.2342 21.3006 13.885Z" fill="#CBCBCB"/>
<path d="M19.3047 8.12115C19.8499 7.45647 20.2229 6.55218 20.1193 5.63452C19.3303 5.66858 18.3436 6.16663 17.7754 6.81672C17.2727 7.38957 16.8236 8.32852 16.9396 9.21152C17.8259 9.27598 18.7359 8.77549 19.3047 8.12115Z" fill="#CBCBCB"/>
<path d="M38.4454 21.755H36.8912L36.0399 19.1468H33.0808L32.2699 21.755H30.7568L33.6885 12.8755H35.4993L38.4454 21.755ZM35.7833 18.0525L35.0134 15.7339C34.932 15.497 34.7794 14.9392 34.5542 14.0612H34.5268C34.4372 14.4388 34.2928 14.9966 34.0943 15.7339L33.3382 18.0525H35.7833Z" fill="#CBCBCB"/>
<path d="M45.9846 18.475C45.9846 19.5639 45.6828 20.4247 45.0792 21.0565C44.5386 21.619 43.8673 21.8999 43.0659 21.8999C42.2009 21.8999 41.5795 21.597 41.2011 20.9911H41.1737V24.364H39.7147V17.4602C39.7147 16.7756 39.6962 16.073 39.6606 15.3524H40.9438L41.0252 16.3672H41.0526C41.5392 15.6026 42.2776 15.2209 43.2685 15.2209C44.0431 15.2209 44.6898 15.5192 45.2072 16.1164C45.7259 16.7142 45.9846 17.5002 45.9846 18.475ZM44.4982 18.5271C44.4982 17.9039 44.3545 17.3901 44.0657 16.9858C43.7502 16.5641 43.3266 16.3532 42.7956 16.3532C42.4356 16.3532 42.1085 16.4707 41.8163 16.7022C41.5234 16.9357 41.3318 17.2406 41.2421 17.6183C41.197 17.7944 41.1744 17.9386 41.1744 18.052V19.1196C41.1744 19.5853 41.3208 19.9783 41.6137 20.2992C41.9066 20.6202 42.2871 20.7803 42.7552 20.7803C43.3047 20.7803 43.7325 20.5735 44.0384 20.1611C44.3449 19.7481 44.4982 19.2036 44.4982 18.5271Z" fill="#CBCBCB"/>
<path d="M53.5381 18.475C53.5381 19.5639 53.2363 20.4247 52.6321 21.0565C52.0921 21.619 51.4208 21.8999 50.6194 21.8999C49.7544 21.8999 49.133 21.597 48.7553 20.9911H48.7279V24.364H47.2689V17.4602C47.2689 16.7756 47.2504 16.073 47.2148 15.3524H48.498L48.5794 16.3672H48.6068C49.0927 15.6026 49.8311 15.2209 50.8227 15.2209C51.5967 15.2209 52.2434 15.5192 52.7621 16.1164C53.2788 16.7142 53.5381 17.5002 53.5381 18.475ZM52.0517 18.5271C52.0517 17.9039 51.9073 17.3901 51.6186 16.9858C51.3031 16.5641 50.8808 16.3532 50.3491 16.3532C49.9885 16.3532 49.662 16.4707 49.3691 16.7022C49.0762 16.9357 48.8853 17.2406 48.7957 17.6183C48.7512 17.7944 48.7279 17.9386 48.7279 18.052V19.1196C48.7279 19.5853 48.8744 19.9783 49.1659 20.2992C49.4588 20.6195 49.8393 20.7803 50.3087 20.7803C50.8583 20.7803 51.286 20.5735 51.5919 20.1611C51.8985 19.7481 52.0517 19.2036 52.0517 18.5271Z" fill="#CBCBCB"/>
<path d="M61.9827 19.2641C61.9827 20.0194 61.7137 20.6339 61.1738 21.1083C60.5804 21.6268 59.7545 21.8857 58.693 21.8857C57.7131 21.8857 56.9275 21.7015 56.3328 21.3325L56.6708 20.1469C57.3114 20.5245 58.0142 20.714 58.78 20.714C59.3295 20.714 59.7572 20.5926 60.0645 20.351C60.3704 20.1095 60.523 19.7852 60.523 19.3809C60.523 19.0206 60.397 18.717 60.1445 18.4708C59.8934 18.2246 59.4739 17.9957 58.8881 17.7842C57.2936 17.2044 56.497 16.355 56.497 15.2381C56.497 14.5081 56.7762 13.9096 57.3353 13.4439C57.8924 12.9775 58.6356 12.7446 59.5649 12.7446C60.3936 12.7446 61.0821 12.8854 61.6316 13.1663L61.2668 14.326C60.7536 14.0537 60.1733 13.9176 59.5238 13.9176C59.0106 13.9176 58.6096 14.0411 58.3221 14.2866C58.0792 14.5061 57.9574 14.7737 57.9574 15.0906C57.9574 15.4416 58.0963 15.7318 58.3755 15.96C58.6185 16.1708 59.0599 16.399 59.7004 16.6452C60.484 16.9528 61.0595 17.3125 61.4297 17.7248C61.7986 18.1358 61.9827 18.6503 61.9827 19.2641Z" fill="#CBCBCB"/>
<path d="M66.8066 16.4193H65.1984V19.5279C65.1984 20.3185 65.4818 20.7135 66.0498 20.7135C66.3105 20.7135 66.5267 20.6915 66.6978 20.6475L66.7382 21.7277C66.4508 21.8325 66.0723 21.8852 65.6036 21.8852C65.0274 21.8852 64.5771 21.7137 64.252 21.3714C63.9283 21.0285 63.7654 20.4533 63.7654 19.6453V16.4179H62.8074V15.3504H63.7654V14.178L65.1984 13.7563V15.3504H66.8066V16.4193Z" fill="#CBCBCB"/>
<path d="M74.0627 18.5004C74.0627 19.4845 73.7739 20.2926 73.1977 20.9244C72.5934 21.575 71.7914 21.8992 70.7916 21.8992C69.828 21.8992 69.0609 21.5876 68.4888 20.9645C67.9167 20.3413 67.6306 19.5546 67.6306 18.6065C67.6306 17.6143 67.9249 16.8016 68.5155 16.1697C69.1047 15.5372 69.8999 15.2209 70.8997 15.2209C71.8632 15.2209 72.6386 15.5325 73.2237 16.1564C73.7835 16.7616 74.0627 17.5429 74.0627 18.5004ZM72.5489 18.5464C72.5489 17.9559 72.4196 17.4495 72.1575 17.0271C71.8516 16.516 71.4143 16.2612 70.8477 16.2612C70.2612 16.2612 69.8157 16.5167 69.5098 17.0271C69.2477 17.4502 69.1184 17.9646 69.1184 18.5731C69.1184 19.1636 69.2477 19.67 69.5098 20.0917C69.8253 20.6028 70.266 20.8577 70.8347 20.8577C71.3917 20.8577 71.829 20.5975 72.1445 20.0784C72.4134 19.648 72.5489 19.1362 72.5489 18.5464Z" fill="#CBCBCB"/>
<path d="M78.8044 16.6034C78.66 16.5774 78.506 16.5641 78.3445 16.5641C77.8313 16.5641 77.4344 16.7529 77.1552 17.1312C76.9122 17.4648 76.7904 17.8865 76.7904 18.3956V21.7551H75.3321L75.3458 17.3688C75.3458 16.6308 75.3273 15.9589 75.291 15.3531H76.5618L76.6152 16.5781H76.6556C76.8096 16.1571 77.0525 15.8181 77.3851 15.5639C77.7102 15.335 78.0612 15.2209 78.4397 15.2209C78.5745 15.2209 78.6963 15.2303 78.8044 15.247V16.6034Z" fill="#CBCBCB"/>
<path d="M85.3297 18.2504C85.3297 18.5053 85.3126 18.7201 85.2763 18.8956H80.8993C80.9164 19.5281 81.1278 20.0119 81.5343 20.3455C81.9032 20.6437 82.3802 20.7932 82.966 20.7932C83.614 20.7932 84.2053 20.6924 84.737 20.4903L84.9656 21.4778C84.3442 21.742 83.6106 21.8734 82.7641 21.8734C81.7458 21.8734 80.9465 21.5812 80.3648 20.9974C79.7845 20.4135 79.4937 19.6296 79.4937 18.6461C79.4937 17.6806 79.764 16.8766 80.3053 16.2354C80.8719 15.5508 81.6377 15.2085 82.6012 15.2085C83.5477 15.2085 84.2642 15.5508 84.7507 16.2354C85.136 16.7792 85.3297 17.4517 85.3297 18.2504ZM83.9384 17.8814C83.948 17.4597 83.8529 17.0954 83.6551 16.7878C83.4026 16.3922 83.0146 16.1947 82.4924 16.1947C82.0154 16.1947 81.6274 16.3875 81.3311 16.7745C81.0882 17.0821 80.9438 17.4511 80.8993 17.8807H83.9384V17.8814Z" fill="#CBCBCB"/>
<path d="M34.3242 5.58175L36.088 5.57067C36.1369 5.57036 36.1616 5.59282 36.1619 5.63804L36.1773 8.09713L36.3921 8.09578C36.4411 8.09548 36.4658 8.11793 36.4661 8.16316L36.4726 9.20898C36.4729 9.25797 36.4486 9.28262 36.3996 9.28293L35.8965 9.28609C35.8512 9.28638 35.8285 9.26202 35.8282 9.21303L35.8249 8.6986L34.1516 8.70911L34.1549 9.22354C34.1552 9.27254 34.1308 9.29719 34.0818 9.29749L33.5844 9.30062C33.5354 9.30093 33.5107 9.27658 33.5104 9.22759L33.5038 8.17612C33.5035 8.13466 33.5279 8.11378 33.5769 8.11347L33.7521 8.11237C33.9063 8.05864 34.0031 7.86205 34.0424 7.5226L34.2511 5.65005C34.2546 5.6048 34.279 5.58203 34.3242 5.58175ZM35.4876 8.10147L35.4755 6.17377L34.8876 6.17746L34.7108 7.72758C34.6929 7.87467 34.6654 8.0011 34.6284 8.10687L35.4876 8.10147ZM38.2482 5.52883C38.8135 5.52528 39.1854 5.62847 39.3639 5.8384C39.5423 6.04834 39.6336 6.47365 39.6376 7.11433C39.6416 7.75501 39.5557 8.18143 39.3799 8.3936C39.2079 8.60196 38.8373 8.70794 38.2682 8.71151C37.7029 8.71506 37.3329 8.61375 37.1583 8.40755C36.9798 8.19762 36.8886 7.77231 36.8845 7.13163C36.8805 6.49095 36.9664 6.06452 37.1422 5.85236C37.318 5.6402 37.6867 5.53236 38.2482 5.52883ZM38.252 6.1224C37.958 6.12425 37.77 6.1895 37.6879 6.31816C37.6057 6.44682 37.566 6.71654 37.5686 7.12733C37.5711 7.53812 37.6143 7.80732 37.698 7.93494C37.7817 8.05879 37.9705 8.11979 38.2645 8.11794C38.5585 8.11609 38.7484 8.05271 38.8343 7.9278C38.9164 7.79914 38.9561 7.52942 38.9536 7.11863C38.951 6.70784 38.9078 6.43863 38.8241 6.31102C38.7404 6.1834 38.5497 6.12053 38.252 6.1224ZM41.5386 5.50815C41.874 5.50605 42.17 5.52491 42.4265 5.56476C42.4869 5.57569 42.5173 5.60942 42.5176 5.66595L42.5198 6.01079C42.5202 6.06732 42.4902 6.09577 42.4299 6.09615L41.5424 6.10173C41.2484 6.10357 41.0604 6.16883 40.9783 6.29748C40.8961 6.4186 40.8563 6.68644 40.8589 7.101C40.8615 7.51179 40.9047 7.781 40.9884 7.90861C41.0721 8.03623 41.2609 8.09911 41.5549 8.09726L42.4424 8.09169C42.5027 8.09131 42.5331 8.11938 42.5334 8.17592L42.5356 8.52075C42.5359 8.57728 42.506 8.61139 42.4458 8.62308C42.1898 8.66614 41.894 8.68873 41.5586 8.69084C40.9895 8.69441 40.6177 8.59311 40.443 8.38692C40.2683 8.18073 40.179 7.75352 40.1749 7.1053C40.1727 6.75858 40.188 6.49278 40.2208 6.3079C40.2573 6.11922 40.3241 5.9624 40.4213 5.83741C40.5223 5.7124 40.6575 5.62676 40.8268 5.58047C40.9961 5.53418 41.2334 5.51007 41.5386 5.50815ZM42.9071 5.52782L45.4227 5.51201C45.4793 5.51166 45.5077 5.53975 45.5081 5.59628L45.511 6.05983C45.5113 6.11636 45.4832 6.1448 45.4267 6.14516L44.5335 6.15077L44.5487 8.55898C44.549 8.61552 44.5209 8.64396 44.4644 8.64431L43.9047 8.64783C43.8482 8.64819 43.8198 8.6201 43.8194 8.56357L43.8043 6.15535L42.9111 6.16097C42.8546 6.16132 42.8261 6.13323 42.8258 6.0767L42.8228 5.61315C42.8225 5.55662 42.8506 5.52818 42.9071 5.52782ZM48.0777 5.49533L48.5921 5.4921C48.6487 5.49175 48.6771 5.51983 48.6775 5.57636L48.6954 8.43682C48.6979 8.83631 48.6508 9.13434 48.5541 9.33093C48.4797 9.48969 48.3466 9.6036 48.1548 9.67264C47.9668 9.74543 47.7014 9.7829 47.3584 9.78506C47.023 9.78716 46.7044 9.76844 46.4027 9.72888C46.3536 9.71788 46.3289 9.68788 46.3286 9.63889L46.3265 9.30536C46.3261 9.24883 46.3523 9.22039 46.4051 9.22006L47.3153 9.21434C47.5941 9.21259 47.7804 9.16996 47.8741 9.08646C47.9678 9.00673 48.014 8.8538 48.0126 8.62767L48.0124 8.59941C47.8016 8.63465 47.5605 8.65313 47.2891 8.65483C46.7728 8.65808 46.4235 8.55474 46.2413 8.34483C46.0629 8.13489 45.9718 7.74162 45.9682 7.16501L45.9583 5.59345C45.958 5.53692 45.9861 5.50848 46.0426 5.50812L46.557 5.50489C46.6135 5.50453 46.642 5.53262 46.6423 5.58915L46.6516 7.06461C46.6542 7.47163 46.6992 7.74082 46.7867 7.87218C46.8779 7.99598 47.08 8.0569 47.3928 8.05493C47.6453 8.05334 47.8506 8.04075 48.0087 8.01714L47.9934 5.58066C47.9931 5.52413 48.0212 5.49569 48.0777 5.49533ZM49.4991 5.4864L51.8395 5.4717C51.896 5.47134 51.9245 5.49943 51.9248 5.55596L51.9434 8.51252C51.9438 8.56905 51.9157 8.5975 51.8592 8.59785L51.2995 8.60137C51.243 8.60172 51.2145 8.57363 51.2142 8.5171L51.199 6.10889L50.1419 6.11553L50.157 8.52375C50.1574 8.58028 50.1293 8.60872 50.0728 8.60907L49.5188 8.61256C49.4622 8.61291 49.4338 8.58482 49.4334 8.52829L49.4149 5.57173C49.4145 5.5152 49.4426 5.48676 49.4991 5.4864ZM54.8821 5.45258L55.4418 5.44906C55.4983 5.44871 55.5267 5.4768 55.5271 5.53333L55.5457 8.48989C55.546 8.54642 55.5179 8.57486 55.4614 8.57522L54.9017 8.57873C54.8452 8.57909 54.8168 8.551 54.8164 8.49447L54.8092 7.34689L53.3959 7.35577L53.4031 8.50335C53.4035 8.55988 53.3754 8.58832 53.3189 8.58868L52.7649 8.59216C52.7084 8.59251 52.6799 8.56443 52.6796 8.5079L52.661 5.55133C52.6606 5.4948 52.6887 5.46636 52.7452 5.46601L53.2992 5.46252C53.3558 5.46217 53.3842 5.49026 53.3846 5.54679L53.3919 6.71698L54.8052 6.7081L54.7978 5.53791C54.7975 5.48138 54.8256 5.45293 54.8821 5.45258ZM57.5316 5.40767C58.0969 5.40411 58.4688 5.50731 58.6473 5.71724C58.8257 5.92718 58.917 6.35248 58.921 6.99317C58.925 7.63385 58.8391 8.06027 58.6633 8.27243C58.4913 8.4808 58.1207 8.58677 57.5516 8.59035C56.9863 8.5939 56.6163 8.49258 56.4417 8.28639C56.2632 8.07646 56.172 7.65115 56.1679 7.01047C56.1639 6.36978 56.2498 5.94336 56.4256 5.7312C56.6014 5.51904 56.9701 5.41119 57.5316 5.40767ZM57.5354 6.00124C57.2414 6.00309 57.0534 6.06834 56.9713 6.197C56.8892 6.32565 56.8494 6.59538 56.852 7.00617C56.8546 7.41696 56.8977 7.68616 56.9814 7.81378C57.0651 7.93762 57.2539 7.99862 57.5479 7.99678C57.8419 7.99493 58.0318 7.93155 58.1177 7.80664C58.1998 7.67798 58.2396 7.40826 58.237 6.99747C58.2344 6.58667 58.1912 6.31747 58.1075 6.18986C58.0238 6.06224 57.8331 5.99937 57.5354 6.00124ZM62.0479 5.37929C62.4813 5.37657 62.7907 5.44246 62.9763 5.57697C63.1655 5.7077 63.2611 5.92946 63.2631 6.24226C63.2645 6.46839 63.2298 6.63632 63.1589 6.74606C63.0879 6.8558 62.964 6.92631 62.7871 6.95757L62.7871 6.96888C62.9908 6.99021 63.1344 7.05715 63.218 7.16969C63.3054 7.2822 63.3499 7.45529 63.3513 7.68895C63.3533 8.00553 63.2624 8.23035 63.0786 8.36341C62.8985 8.49268 62.5974 8.55865 62.1753 8.5613C61.6062 8.56487 61.1652 8.55257 60.8522 8.52439C60.8032 8.52092 60.7785 8.4947 60.7782 8.4457L60.7597 5.50045C60.7594 5.45899 60.7838 5.43623 60.8327 5.43215C61.2019 5.39968 61.6069 5.38206 62.0479 5.37929ZM61.9837 5.96764L61.4693 5.97087L61.4741 6.73403L61.8981 6.73137C62.1657 6.72969 62.3483 6.70404 62.446 6.65443C62.5436 6.60106 62.592 6.50088 62.5911 6.3539C62.5901 6.20692 62.5424 6.10546 62.4478 6.04952C62.357 5.99356 62.2023 5.96626 61.9837 5.96764ZM62.1272 7.21046L61.4771 7.21455L61.4819 7.97206L62.132 7.96797C62.3355 7.9667 62.4766 7.93943 62.5555 7.88617C62.638 7.82911 62.6789 7.73275 62.678 7.59708C62.6771 7.45387 62.6331 7.35427 62.5461 7.29828C62.4591 7.23853 62.3194 7.20925 62.1272 7.21046Z" fill="#CBCBCB"/>
</svg>
