<svg width="16" height="20" viewBox="0 0 16 20" fill="none" xmlns="http://www.w3.org/2000/svg">
<path d="M9.02 2C9.02 1.43667 8.56333 0.980001 8 0.98C7.43667 0.979999 6.98 1.43667 6.98 2L9.02 2ZM7.27871 19.0412C7.67705 19.4396 8.32287 19.4396 8.72121 19.0413L15.2125 12.55C15.6108 12.1517 15.6108 11.5059 15.2125 11.1075C14.8141 10.7092 14.1683 10.7092 13.77 11.1075L7.99997 16.8775L2.22999 11.1075C1.83165 10.7092 1.18583 10.7092 0.787489 11.1075C0.389154 11.5058 0.389153 12.1517 0.787487 12.55L7.27871 19.0412ZM6.98 2L6.97996 18.32L9.01996 18.32L9.02 2L6.98 2Z" fill="#CBCBCB"/>
</svg>
