<svg width="164" height="39" viewBox="0 0 164 39" fill="none" xmlns="http://www.w3.org/2000/svg">
<g clip-path="url(#clip0_2_11662)">
<g clip-path="url(#clip1_2_11662)">
<path d="M63.4532 18.013H61.1932C60.9853 18.013 60.8021 17.8794 60.7402 17.6813L60.1115 15.706H56.0965L55.4529 17.6838C55.3885 17.8794 55.2078 18.013 54.9999 18.013H52.7275C52.3983 18.013 52.1681 17.6838 52.2819 17.3744L56.547 5.69813C56.6163 5.51 56.7945 5.38623 56.9925 5.38623H59.2971C59.4976 5.38623 59.6783 5.51247 59.7451 5.70308L63.9013 17.3793C64.0126 17.6863 63.7824 18.013 63.4532 18.013ZM56.9009 12.9386H59.3441L58.1485 9.19581L56.9009 12.9386Z" fill="#191919"/>
<path d="M72.4635 11.0771C73.2259 11.2702 73.8151 11.6563 74.2309 12.2306C74.6468 12.8049 74.8547 13.493 74.8547 14.2901C74.8547 15.3619 74.4784 16.2506 73.7259 16.9561C72.9635 17.6615 71.9833 18.0155 70.7877 18.0155H65.0721C64.8047 18.0155 64.5869 17.7977 64.5869 17.5303V5.8714C64.5869 5.60406 64.8047 5.38623 65.0721 5.38623H70.4981C71.6714 5.38623 72.5774 5.7006 73.2135 6.32687C73.8621 6.94076 74.1864 7.67099 74.1864 8.51261C74.1864 9.07204 74.0279 9.59187 73.7086 10.077C73.3918 10.5597 72.9759 10.8939 72.4635 11.0771ZM69.899 8.08685H67.7108V10.2231H69.7604C70.1812 10.2231 70.503 10.1241 70.7258 9.92356C70.9486 9.72554 71.06 9.46562 71.06 9.1463C71.06 8.84926 70.9535 8.59925 70.7431 8.39379C70.5352 8.18834 70.253 8.08685 69.899 8.08685ZM67.7133 15.2778H70.1045C70.5822 15.2778 70.9461 15.159 71.1986 14.9188C71.4486 14.6787 71.5748 14.3842 71.5748 14.0302C71.5748 13.6663 71.4486 13.3643 71.1986 13.1242C70.9486 12.8841 70.607 12.7653 70.1738 12.7653H67.7133V15.2778Z" fill="#191919"/>
<path d="M78.2087 17.5378V8.46063H75.1788C74.9165 8.46063 74.7061 8.24775 74.7061 7.98783V5.85902C74.7061 5.59664 74.9189 5.38623 75.1788 5.38623H84.4491C84.7115 5.38623 84.9219 5.59911 84.9219 5.85902V7.98783C84.9219 8.25022 84.709 8.46063 84.4491 8.46063H81.439V17.5378C81.439 17.8002 81.2262 18.0106 80.9662 18.0106H78.684C78.4216 18.013 78.2087 17.8002 78.2087 17.5378Z" fill="#191919"/>
<path d="M91.3182 18.265C89.4394 18.265 87.8602 17.6387 86.5853 16.3862C85.3328 15.1336 84.7065 13.589 84.7065 11.7548C84.7065 9.92054 85.3378 8.37096 86.6027 7.10853C87.8676 5.84362 89.432 5.2124 91.3009 5.2124C93.1797 5.2124 94.7516 5.84362 96.0165 7.10853C97.2814 8.37344 97.9126 9.92301 97.9126 11.7548C97.9126 13.5766 97.2814 15.1213 96.0165 16.3862C94.7639 17.6387 93.1995 18.265 91.3182 18.265ZM91.3034 15.1039C92.2366 15.1039 93.0237 14.7846 93.6624 14.146C94.301 13.5073 94.6204 12.7053 94.6204 11.7375C94.5981 10.7572 94.2664 9.95519 93.6302 9.32893C92.9916 8.69028 92.2168 8.37096 91.3058 8.37096C90.3825 8.37096 89.6028 8.69523 88.9642 9.34378C88.3255 9.98242 88.0062 10.7795 88.0062 11.735C88.0062 12.7028 88.3255 13.5073 88.9642 14.1435C89.6003 14.7846 90.3801 15.1039 91.3034 15.1039Z" fill="#191919"/>
<path d="M114.644 18.013H99.1751C98.9177 18.013 98.7073 17.8026 98.7073 17.5452V5.85407C98.7073 5.59664 98.9177 5.38623 99.1751 5.38623H101.452C101.71 5.38623 101.92 5.59664 101.92 5.85407V14.956H105.304V5.85407C105.304 5.59664 105.515 5.38623 105.772 5.38623H108.049C108.307 5.38623 108.517 5.59664 108.517 5.85407V14.956H111.884V5.85407C111.884 5.59664 112.094 5.38623 112.351 5.38623H114.646C114.904 5.38623 115.114 5.59664 115.114 5.85407V17.5452C115.111 17.8026 114.904 18.013 114.644 18.013Z" fill="#191919"/>
<path d="M127.358 18.0126H124.246C124.132 18.0126 124.028 17.9532 123.969 17.8566L121.263 13.4678L119.897 15.1263V17.6883C119.897 17.869 119.751 18.0151 119.57 18.0151H117.028C116.847 18.0151 116.701 17.869 116.701 17.6883V5.71252C116.701 5.53182 116.847 5.38578 117.028 5.38578H119.57C119.751 5.38578 119.897 5.53182 119.897 5.71252V10.5791L123.781 5.51202C123.843 5.43033 123.939 5.3833 124.041 5.3833H127.07C127.343 5.3833 127.496 5.69767 127.328 5.91055L123.367 10.9702L127.635 17.5051C127.773 17.7254 127.618 18.0126 127.358 18.0126Z" fill="#191919"/>
<path d="M133.255 18.2181C131.377 18.2181 129.797 17.5918 128.523 16.3393C127.27 15.0868 126.644 13.5421 126.644 11.7079C126.644 9.87366 127.275 8.32409 128.54 7.06165C129.805 5.79674 131.369 5.16553 133.238 5.16553C135.117 5.16553 136.689 5.79674 137.954 7.06165C139.219 8.32656 139.85 9.87614 139.85 11.7079C139.85 13.5298 139.219 15.0744 137.954 16.3393C136.701 17.5918 135.137 18.2181 133.255 18.2181ZM133.238 15.0571C134.171 15.0571 134.959 14.7377 135.597 14.0991C136.236 13.4605 136.555 12.6584 136.555 11.6906C136.533 10.7103 136.201 9.90832 135.565 9.28205C134.926 8.64341 134.152 8.32409 133.241 8.32409C132.317 8.32409 131.538 8.64836 130.899 9.2969C130.26 9.93555 129.941 10.7326 129.941 11.6881C129.941 12.656 130.26 13.4605 130.899 14.0966C131.535 14.7377 132.317 15.0571 133.238 15.0571Z" fill="#191919"/>
<path d="M142.215 18.0125H139.794C139.465 18.0125 139.232 17.6882 139.341 17.3763L143.383 5.70998C143.45 5.5169 143.633 5.38818 143.836 5.38818H146.703C146.908 5.38818 147.091 5.51938 147.158 5.71493L151.074 17.3813C151.178 17.6932 150.948 18.015 150.619 18.015H148.193C147.98 18.015 147.792 17.8739 147.733 17.6709L145.255 9.2844L142.675 17.6759C142.611 17.8739 142.425 18.0125 142.215 18.0125Z" fill="#191919"/>
<path d="M163.094 18.013H160.814C160.611 18.013 160.431 17.8818 160.371 17.6888L159.74 15.706H155.725L155.079 17.6912C155.017 17.8818 154.836 18.013 154.636 18.013H152.344C152.019 18.013 151.794 17.6912 151.906 17.3868L156.178 5.69318C156.245 5.51 156.421 5.38623 156.616 5.38623H158.936C159.134 5.38623 159.309 5.51 159.374 5.69565L163.535 17.3892C163.641 17.6937 163.416 18.013 163.094 18.013ZM156.527 12.9386H158.97L157.775 9.19581L156.527 12.9386Z" fill="#191919"/>
<path d="M52.1929 23.565C52.1929 23.2853 52.4182 23.0601 52.6979 23.0601H57.2154C58.8219 23.0601 60.0126 23.4809 60.7874 24.325C61.5745 25.1567 61.9656 26.1988 61.9656 27.4513C61.9656 28.694 61.5621 29.7188 60.7527 30.5257C59.9556 31.3228 58.7031 31.7213 56.9926 31.7213H55.3861V35.1819C55.3861 35.4616 55.1609 35.6869 54.8811 35.6869H52.6954C52.4157 35.6869 52.1904 35.4616 52.1904 35.1819V23.565H52.1929ZM55.3886 28.8524H57.1486C57.6387 28.8524 58.0174 28.7187 58.2848 28.4514C58.5521 28.1841 58.6858 27.84 58.6858 27.4167C58.6858 27.0058 58.5521 26.6642 58.2848 26.3919C58.0174 26.1196 57.661 25.981 57.2179 25.981H55.3886V28.8524Z" fill="#191919"/>
<path d="M71.8568 35.6864H63.6881C63.4282 35.6864 63.2178 35.476 63.2178 35.2161V23.5299C63.2178 23.27 63.4282 23.0596 63.6881 23.0596H71.8716C72.1315 23.0596 72.3419 23.27 72.3419 23.5299V25.5473C72.3419 25.8072 72.1315 26.0176 71.8716 26.0176H66.4283V27.8791H71.4261C71.686 27.8791 71.8964 28.0895 71.8964 28.3494V30.3495C71.8964 30.6094 71.686 30.8198 71.4261 30.8198H66.4283V32.7333H71.8543C72.1142 32.7333 72.3246 32.9437 72.3246 33.2036V35.221C72.3271 35.476 72.1167 35.6864 71.8568 35.6864Z" fill="#191919"/>
<path d="M84.892 35.6864H82.3374C82.1889 35.6864 82.0602 35.5899 82.0156 35.4513L81.3572 33.3794H77.3421L76.6664 35.4513C76.6218 35.5899 76.4906 35.6839 76.3446 35.6839H73.7776C73.5424 35.6839 73.3791 35.4513 73.4608 35.2285L77.8273 23.2799C77.8768 23.1462 78.003 23.0571 78.1441 23.0571H80.6418C80.7853 23.0571 80.9116 23.1462 80.9611 23.2824L85.2138 35.2309C85.2905 35.4562 85.1271 35.6864 84.892 35.6864ZM78.1441 30.6119H80.5873L79.3917 26.8692L78.1441 30.6119Z" fill="#191919"/>
<path d="M89.2633 35.6864H86.7806C86.4687 35.6864 86.2508 35.3794 86.3523 35.0849L90.4119 23.364C90.4738 23.1809 90.6471 23.0596 90.8402 23.0596H93.7462C93.9418 23.0596 94.1126 23.1833 94.1745 23.369L98.1078 35.0898C98.2068 35.3819 97.989 35.6864 97.6796 35.6864H95.1943C94.9938 35.6864 94.8181 35.5552 94.7611 35.3621L92.2759 26.9558L89.6916 35.3671C89.6371 35.5577 89.4614 35.6864 89.2633 35.6864Z" fill="#191919"/>
<path fill-rule="evenodd" clip-rule="evenodd" d="M7.25293 16.9923C7.49304 17.423 7.93118 17.6086 8.4213 17.7993C9.40897 18.1928 9.15153 18.3513 9.49808 18.6805C9.94365 18.5221 10.1664 18.0171 10.4461 17.8686L10.6714 17.6483C11.5031 17.1136 12.7755 17.9181 13.3893 18.4206C15.8721 20.4627 17.6717 23.7946 17.7212 27.1833C19.1371 28.0522 21.0481 28.0175 22.469 27.2106C22.5432 24.5644 23.5383 22.1386 25.0854 20.2325C25.8602 19.277 27.9395 16.9453 29.3802 17.5641C29.9569 17.8116 30.1426 18.5171 30.7193 18.683C30.7862 18.6161 30.7515 18.6557 30.8184 18.5641C30.853 18.5122 30.8802 18.4626 30.9174 18.4082C31.004 18.277 31.0461 18.2324 31.1525 18.1458C31.7788 17.6433 31.7664 18.0889 32.9793 17.0591C33.0115 16.4353 32.6674 14.8041 32.4323 14.1233C32.3655 13.9303 32.3481 13.8931 32.2466 13.7743C30.2985 13.6505 26.8776 14.007 25.0186 14.507C20.8872 15.6135 21.1125 17.6804 20.0778 17.6507C18.9886 17.621 19.2386 15.1877 13.5651 14.1654C12.9463 14.054 12.3249 14.0417 11.7234 13.9476C10.8595 13.809 8.84459 13.6902 7.88662 13.7817C7.74553 14.356 7.07965 16.3536 7.25293 16.9923Z" fill="#4188FF"/>
<path fill-rule="evenodd" clip-rule="evenodd" d="M20.1398 32.2531C22.4369 32.2456 24.8528 31.6441 26.5287 30.4931C26.8876 30.2455 27.3579 30.0599 27.0114 29.4831C26.5262 28.6786 26.296 28.2554 25.9544 27.2479C25.3652 27.1018 24.5905 28.191 23.3874 28.0177C22.625 27.9063 23.1151 27.1662 22.1646 27.79C21.9641 27.9237 21.8428 27.9831 21.5854 28.0796C21.0779 28.2727 20.7437 28.3593 20.1447 28.3618C18.4862 28.3692 17.8179 27.5053 17.5753 27.5276C17.4391 27.54 16.8847 28.6044 15.1123 27.5474C14.8351 27.3816 14.6593 27.2008 14.3326 27.2157C14.1741 27.4781 13.991 28.0202 13.8375 28.3445C13.1989 29.7084 12.6691 29.899 13.637 30.4807C15.5999 31.6738 17.6223 32.2555 20.1398 32.2531Z" fill="#FF931E"/>
<path fill-rule="evenodd" clip-rule="evenodd" d="M9.1561 13.4996C9.78236 12.2199 14.436 13.6754 15.4633 14.017C16.7208 14.4378 18.2258 15.4032 19.0773 16.376C20.6591 18.1855 19.7828 17.3587 22.1394 15.4428C24.0454 13.8957 27.1866 13.1333 29.6174 13.0244C30.4689 12.9848 30.6175 12.9575 31.0853 13.5095H31.5408L31.5828 12.0243C27.7708 11.7149 23.4538 12.7447 21.0551 15.7745C20.8175 16.0715 20.4536 16.7795 20.0774 16.8537C19.8397 16.829 19.0179 15.4725 18.1615 14.7126C15.649 12.4897 12.1488 11.8411 8.64865 12.0169C8.60904 12.3288 8.63627 12.6506 8.6338 12.9699C8.6338 13.5764 8.59419 13.517 9.1561 13.4996Z" fill="#FF931E"/>
<path fill-rule="evenodd" clip-rule="evenodd" d="M26.2312 27.0146C26.256 27.4428 27.0604 29.1607 27.2931 29.4454C28.0036 29.4132 30.0433 26.9502 30.4839 26.3859C31.0978 25.6012 32.3775 23.2075 32.531 22.1183C32.3825 22.1332 30.667 22.8808 30.9171 21.2445C30.3032 20.9772 30.474 20.8559 30.2883 20.4673C30.1398 20.7247 30.1126 21.153 30.0111 21.4871C29.8848 21.8906 29.8007 22.1084 29.6645 22.4649C29.412 23.1357 29.1199 23.6531 28.7511 24.2571C28.1471 25.2522 27.0778 26.4279 26.2312 27.0146Z" fill="#4188FF"/>
<path fill-rule="evenodd" clip-rule="evenodd" d="M9.30682 21.2696C9.44049 22.5444 8.58154 22.2969 7.74487 22.1806C7.87359 23.4083 9.16325 25.599 9.77962 26.4704C10.2747 27.1709 12.3515 29.4408 12.9233 29.4755C13.1412 29.1215 13.958 27.4135 13.9828 27.0125C12.2203 25.8218 10.9059 23.6757 10.2351 21.5815C10.146 21.3018 10.0321 20.7176 9.92566 20.5146C9.8316 20.6879 9.87863 20.7919 9.71526 20.9825C9.57664 21.1558 9.4603 21.1558 9.30682 21.2696Z" fill="#4188FF"/>
<path fill-rule="evenodd" clip-rule="evenodd" d="M9.9707 11.7817C10.8965 11.8436 10.2851 11.4797 11.6564 11.6579C14.6887 12.049 17.8077 13.403 19.5875 16.0344C20.0726 16.7547 20.1395 16.7497 20.5751 16.1012C20.9514 15.5418 21.4366 14.9823 21.8995 14.5566C22.6445 13.8659 23.2213 13.5095 24.1446 12.9971C24.8402 12.6159 26.0407 12.1456 26.8774 11.9723C30.5236 11.2099 29.0211 11.903 30.2389 11.7718V10.9698C28.3676 10.7915 25.7808 11.596 24.1595 12.502C23.1149 13.0887 21.2336 14.5838 20.543 15.616C20.3821 15.8586 20.3425 16.0566 20.0801 16.168C19.9365 16.0641 19.5751 15.4774 19.2508 15.1061C18.9538 14.762 18.5528 14.3858 18.2879 14.1333C16.2235 12.1951 12.9114 10.799 9.97565 10.9574L9.9707 11.7817Z" fill="#FF931E"/>
<path fill-rule="evenodd" clip-rule="evenodd" d="M31.2166 19.3538C31.0309 19.6509 30.6844 19.7226 30.6027 20.2004C30.4666 20.9702 31.0582 20.7474 31.2092 21.0173C31.3428 21.2673 30.8106 21.901 31.5681 21.9703C32.0137 22.0099 32.4815 21.797 32.7464 21.5371C33.2489 21.042 32.8479 20.6583 32.9617 20.292C33.0261 20.0865 33.1375 20.0197 33.1994 19.7177C33.2736 19.3563 33.2167 19.2721 33.1598 18.9503C33.0706 18.4553 33.5137 18.2894 33.3306 17.5864C33.1523 16.8884 32.7241 17.5369 32.3949 17.7176C31.9914 17.9379 31.1597 18.1211 31.021 18.7276C30.927 19.1484 31.1052 19.0964 31.2166 19.3538Z" fill="#FF931E"/>
<path fill-rule="evenodd" clip-rule="evenodd" d="M9.5833 20.6708C9.68727 19.6385 9.25655 19.8588 8.98426 19.3539C9.08328 19.1063 9.15506 19.2227 9.19219 18.9628C9.30606 18.1806 8.06096 17.8984 7.69213 17.6632C7.38271 17.4627 7.35795 17.2275 7.01883 17.2523C6.95447 17.4775 6.83813 17.5939 6.84555 17.9528C6.85546 18.3712 7.03368 18.4702 7.06586 18.7227C7.10052 18.99 6.93467 19.1781 6.9916 19.6064C7.03121 19.9232 7.18715 20.0692 7.23666 20.3242C7.35795 20.9777 6.91981 21.2252 7.71688 21.7277C8.22185 22.0446 8.63029 22.1089 9.06595 21.7178C9.08823 21.4084 8.92238 21.1535 9.0412 20.9777C9.20705 20.7945 9.12041 20.9307 9.34814 20.8391C9.60558 20.7376 9.44963 20.7822 9.5833 20.6708Z" fill="#FF931E"/>
<path fill-rule="evenodd" clip-rule="evenodd" d="M40.3774 12.383C40.2784 12.0588 39.8625 9.24923 39.9813 8.65515C40.0259 8.43236 40.1818 8.1873 40.2016 8.04126C40.3303 6.98428 36.8426 8.13532 35.5851 10.9077C34.7682 12.7073 35.194 14.8039 34.9836 17.0466C34.3598 23.735 31.8621 28.6412 26.3965 31.6884L24.2034 32.7627C24.2603 33.181 25.545 34.4682 25.8 34.7034C26.2035 35.0722 27.4461 36.0524 27.9387 36.1886C28.2407 36.2678 29.8893 35.1415 30.2061 34.9014C31.4611 33.9533 33.1444 32.6315 34.4415 31.9235C35.9044 31.124 37.3129 29.8195 37.9317 28.1659C38.0753 27.7823 38.3104 27.1238 38.1322 26.6139C37.8872 25.9356 37.3871 26.3713 36.9737 26.1213C36.902 25.6683 37.2114 25.2995 37.454 25.042C38.3971 24.0247 38.7337 23.7152 39.2709 22.079C39.5432 21.2523 39.7164 20.4131 39.8204 19.47C40.0902 17.0417 39.0481 17.5095 38.8847 17.2496C38.7634 16.6877 39.1644 16.4649 39.4293 16.1877C40.1546 15.4475 40.1447 14.9772 40.3328 14.2618C40.3897 14.0143 40.4813 12.7246 40.3774 12.383ZM25.3866 33.0226C25.4014 33.0127 25.4163 32.9929 25.4212 32.9879C25.4311 32.9805 25.4485 32.9632 25.4584 32.9558L27.6639 31.7428C28.3471 31.3294 29.1071 30.8195 29.7011 30.2898C30.8349 29.2823 32.0404 27.911 32.9488 26.4678C34.5875 23.8687 35.5009 21.7374 35.8178 18.611C35.8895 17.9278 35.9465 15.8287 36.1594 15.4079C36.6619 15.3683 36.699 16.3337 36.7213 16.7298C36.8351 18.9551 36.4737 21.1532 35.6445 23.1509C34.5157 25.8663 32.3349 28.7031 30.1418 30.4878C29.1665 31.2874 26.5649 32.983 25.3866 33.0226ZM34.3598 30.1784C33.1345 31.5052 30.7433 32.9632 29.1516 33.6761C28.8051 33.832 26.9263 34.5944 26.6589 34.4855C26.7159 34.2801 26.6317 34.436 26.8941 34.3296L27.8421 33.9706C29.9883 33.0399 31.4215 32.1884 33.1518 30.5769C33.7285 30.0348 34.5578 28.9754 34.9959 29.0001C35.0628 29.5323 34.6197 29.8937 34.3598 30.1784ZM36.9515 28.7971C36.6718 29.2798 36.0183 30.265 35.4687 30.3418C35.5133 29.7848 36.5851 28.661 36.0851 27.9877C35.9291 27.7773 35.1618 27.6808 35.7905 27.1411C36.043 26.9233 36.4564 26.7228 36.8698 26.802C37.8599 26.9976 37.2411 28.2996 36.9515 28.7971ZM35.4935 26.7674C33.9439 28.9853 32.122 30.874 29.8546 32.2453C29.0699 32.7181 27.008 33.7776 26.0104 33.837C26.446 33.483 27.3025 33.2305 27.8917 32.9384C32.2953 30.7626 34.1964 27.7451 36.3821 23.542C36.5529 23.2127 36.647 22.8192 37.0109 22.8117C37.3302 23.7969 35.9415 26.1262 35.4935 26.7674ZM38.954 20.5492C38.8129 21.2027 38.35 22.5246 37.7411 22.6187C37.699 21.9454 38.4565 20.3116 37.8401 19.772C37.548 19.5121 36.8351 19.824 37.2807 18.8833C37.6867 18.017 39.6372 17.3932 38.954 20.5492ZM39.3847 13.2915C39.313 14.0093 38.8649 15.5639 38.0753 15.502C38.006 15.1332 38.2733 14.4277 38.2832 13.8683C38.3302 11.6875 37.2386 11.9127 36.8153 12.638C36.642 12.9375 36.4539 13.6529 36.0603 13.6504C35.4489 12.2518 37.6817 8.50415 38.7832 10.2963C39.2065 10.982 39.4912 12.237 39.3847 13.2915Z" fill="#FF931E"/>
<path fill-rule="evenodd" clip-rule="evenodd" d="M13.6213 31.5795C7.32897 27.9382 5.14817 21.8612 5.1358 14.1183C5.1358 13.2965 5.15312 12.8485 5.02193 12.0885C4.67538 10.0488 2.63816 7.99428 0.680149 7.67496C-0.495647 7.48188 0.197454 8.3136 0.239535 8.87798C0.298944 9.67752 0.561332 10.9919 0.452416 11.888C0.383106 12.4623 0.303895 12.2469 0.303895 12.997C0.303895 12.997 0.185077 14.9599 0.643019 15.6679C0.828671 15.955 0.8559 16.1234 1.08611 16.3412C1.31632 16.564 1.49949 16.7546 1.4079 17.2447C1.1975 17.5813 0.393008 16.9526 0.393008 18.9057C0.393008 20.7374 1.15542 23.3341 2.34854 24.6039C2.6035 24.8787 3.4377 25.5817 3.25205 26.1189C3.04164 26.3862 1.42028 25.6139 2.27428 28.1239C2.80401 29.671 4.29665 31.1315 5.73978 31.9013C7.42303 32.7974 8.49238 33.8494 9.99493 34.8668C10.3885 35.1391 11.9381 36.248 12.2376 36.196C12.6881 36.1168 14.0446 35.0326 14.3912 34.7306C14.7105 34.4509 15.9457 33.1637 16.015 32.7602C15.9927 32.7479 14.0372 31.8221 13.6213 31.5795ZM0.838572 13.3361C0.680149 12.346 1.11581 9.19978 2.55895 9.93248C3.61345 10.4696 4.63082 12.8509 4.11595 13.6331C3.52434 13.5416 3.5788 12.2965 2.81886 12.1529C1.99457 11.9945 1.89308 13.1876 1.9203 13.9302C1.93763 14.4129 2.03417 14.6976 2.14309 15.0911C2.38567 15.9699 1.19255 15.5565 0.838572 13.3361ZM2.35844 19.7498C1.77673 20.7226 2.52429 21.6855 2.46983 22.6138C1.44008 22.49 0.187553 17.8784 2.09358 18.2126C2.67529 18.3165 3.07382 18.7943 3.04164 19.5171C2.62578 19.8042 2.89312 19.6111 2.35844 19.7498ZM3.44265 26.8392C4.02684 26.807 4.62587 27.0224 4.62587 27.6783C4.36596 27.8442 3.70256 27.9531 4.14565 29.0274C4.28675 29.3715 4.74221 30.0869 4.77687 30.3245C3.96495 30.3765 1.69752 26.9283 3.44265 26.8392ZM5.19025 29.0225C5.58384 28.916 5.91801 29.4284 6.18287 29.7106C7.96266 31.6018 9.91819 32.9509 12.3069 33.9286C12.6163 34.0573 13.2203 34.2554 13.4728 34.4237C11.5594 34.4781 5.03431 30.5002 5.19025 29.0225ZM10.3217 32.2231C8.16811 30.8914 6.07891 28.8541 4.71746 26.7724C4.22734 26.0198 2.97481 23.9876 3.17036 22.8316C3.55404 22.7697 3.69266 23.2648 3.82881 23.5569C4.20754 24.3638 4.8437 25.4307 5.29174 26.2303C6.80171 28.9135 9.53204 31.7305 12.3589 32.9632C12.8465 33.1761 13.859 33.5623 14.2006 33.837C13.2154 33.7999 11.1707 32.7479 10.3217 32.2231ZM10.0469 30.4681C7.65819 28.5719 4.85113 24.7549 4.03426 21.683C3.6283 20.1359 3.33373 18.2794 3.48721 16.6382C3.52929 16.205 3.55157 15.3931 4.04911 15.4006C4.49468 16.5788 3.7991 21.4454 7.26461 26.4778C11.089 32.03 13.7847 32.082 14.8244 33.0251C13.6114 32.988 11.0618 31.2775 10.0469 30.4681Z" fill="#FF931E"/>
<path fill-rule="evenodd" clip-rule="evenodd" d="M29.8595 18.1011C29.0476 18.4749 29.1862 20.0492 30.1665 20.0492C30.5229 20.0492 31.1343 19.4477 30.2679 18.5442C30.1986 18.4724 30.159 18.4303 30.0922 18.3461C29.9239 18.1432 30.065 18.2446 29.8595 18.1011Z" fill="#FF931E"/>
<path fill-rule="evenodd" clip-rule="evenodd" d="M10.5996 19.861C10.6442 19.7422 10.7184 19.7075 10.7902 19.554C10.8645 19.3931 10.8843 19.257 10.8818 19.0317C10.8744 18.4797 10.6516 18.4822 10.5996 18.2099C10.5204 18.1703 10.4437 18.148 10.3546 18.106C10.164 18.2446 10.2976 18.1406 10.1516 18.3164C10.0823 18.3956 10.0451 18.4426 9.97832 18.5144C9.84217 18.6654 9.7382 18.7421 9.65404 18.8832C9.54018 19.0738 9.19858 20.4056 10.5996 19.861Z" fill="#FF931E"/>
<path fill-rule="evenodd" clip-rule="evenodd" d="M26.0039 35.8248C25.2044 35.2876 24.5038 34.4782 23.9345 33.7133C23.6399 33.3148 23.3899 32.6415 23.135 32.3469C22.6646 32.3321 22.276 32.5227 21.729 32.5672C20.2215 32.6811 20.1299 32.6737 18.6694 32.5821C16.7213 32.4608 17.3921 31.7875 16.6619 33.0895C16.4861 33.3989 16.2955 33.6861 16.0629 33.9881C15.5604 34.644 15.246 34.9386 14.6272 35.4906C13.8821 36.1614 13.5207 36.2134 13.09 36.5055C12.8375 36.6763 12.981 36.4783 12.9216 36.7209C13.684 37.0229 14.6519 37.2209 15.5307 37.4338C15.9539 37.5353 16.4861 37.664 16.8995 37.7061C18.5828 37.8719 17.8327 37.9536 18.3055 38.0501C18.6917 37.5674 19.058 36.2308 19.2214 36.008L20.9344 36.003C21.0928 36.0402 21.0408 36.0649 21.1943 36.5006C21.4988 37.362 21.4765 37.1491 21.7834 37.7927L21.9121 38.0501C22.4542 37.9239 21.4616 37.9363 23.2117 37.6912C24.1895 37.5526 26.0138 37.1318 26.9643 36.8199C27.2614 36.7233 27.1129 36.8372 27.2614 36.6466C27.2069 36.5773 26.2217 35.9733 26.0039 35.8248ZM20.4442 34.6539L19.8328 34.6564L19.4789 34.6465L19.7239 33.0227L20.0779 33.0128L20.1398 33.0054L20.4715 33.0351L20.7215 34.649L20.4442 34.6539Z" fill="#4188FF"/>
<path d="M24.7329 7.88837C25.8231 5.2946 24.6042 2.30814 22.0105 1.21791C19.4167 0.127675 16.4302 1.34653 15.34 3.94029C14.2498 6.53406 15.4686 9.52053 18.0624 10.6108C20.6562 11.701 23.6426 10.4821 24.7329 7.88837Z" fill="#FF931E"/>
<path d="M103.999 25.6881C103.989 25.7574 103.984 25.8366 103.984 25.9282C103.984 26.0197 103.989 26.099 103.999 26.1683C104.014 26.3094 104.043 26.4307 104.095 26.5321C104.145 26.6336 104.209 26.7128 104.283 26.7747C104.358 26.8366 104.442 26.8812 104.533 26.9109C104.625 26.9406 104.719 26.9554 104.816 26.9554C104.929 26.9554 105.026 26.9455 105.103 26.9282C105.179 26.9109 105.246 26.8837 105.301 26.849C105.355 26.8143 105.402 26.7747 105.442 26.7327C105.481 26.6906 105.519 26.6411 105.556 26.5866C105.583 26.5445 105.615 26.5049 105.652 26.4628C105.689 26.4208 105.731 26.401 105.783 26.401H106.306C106.355 26.401 106.4 26.4183 106.439 26.4554C106.479 26.4925 106.496 26.5346 106.491 26.5866C106.486 26.6831 106.452 26.7995 106.387 26.9356C106.323 27.0718 106.224 27.203 106.088 27.3292C105.954 27.4555 105.781 27.5619 105.571 27.6485C105.36 27.7352 105.108 27.7797 104.816 27.7797C104.563 27.7797 104.338 27.7376 104.137 27.6535C103.937 27.5693 103.761 27.4555 103.613 27.3119C103.464 27.1683 103.348 27 103.264 26.8119C103.179 26.6213 103.127 26.4232 103.11 26.2128C103.1 26.1311 103.095 26.0396 103.095 25.9381C103.095 25.8366 103.1 25.745 103.11 25.6583C103.125 25.4479 103.174 25.2474 103.261 25.0544C103.348 24.8613 103.464 24.6954 103.61 24.5494C103.756 24.4058 103.932 24.2919 104.135 24.2078C104.338 24.1236 104.566 24.0815 104.818 24.0815C105.11 24.0815 105.363 24.1261 105.573 24.2127C105.783 24.2994 105.957 24.4058 106.09 24.5321C106.224 24.6583 106.326 24.7895 106.39 24.9256C106.454 25.0618 106.489 25.1781 106.494 25.2747C106.499 25.3242 106.482 25.3687 106.442 25.4059C106.402 25.443 106.358 25.4603 106.308 25.4603H105.786C105.736 25.4603 105.692 25.4405 105.655 25.3984C105.618 25.3564 105.585 25.3167 105.558 25.2747C105.521 25.2202 105.484 25.1707 105.444 25.1261C105.405 25.0816 105.358 25.0445 105.303 25.0098C105.249 24.9751 105.182 24.9504 105.105 24.9306C105.028 24.9133 104.932 24.9034 104.818 24.9034C104.722 24.9034 104.627 24.9182 104.536 24.9479C104.444 24.9776 104.36 25.0222 104.286 25.0841C104.212 25.1459 104.147 25.2276 104.098 25.3266C104.043 25.4257 104.011 25.547 103.999 25.6881Z" fill="#191919"/>
<path d="M106.884 25.9282C106.884 25.6732 106.923 25.4306 107 25.2054C107.077 24.9801 107.19 24.7821 107.337 24.6163C107.483 24.4504 107.661 24.3192 107.869 24.2227C108.077 24.1261 108.309 24.0791 108.564 24.0791C108.819 24.0791 109.052 24.1261 109.26 24.2202C109.468 24.3143 109.646 24.4405 109.792 24.5965C109.938 24.7549 110.052 24.9381 110.131 25.1509C110.21 25.3638 110.25 25.5866 110.25 25.8193V26.1287C110.25 26.1782 110.233 26.2228 110.196 26.2599C110.158 26.297 110.116 26.3144 110.064 26.3144H107.775C107.775 26.4183 107.797 26.5124 107.839 26.5916C107.884 26.6708 107.941 26.7401 108.015 26.7946C108.087 26.849 108.173 26.8911 108.27 26.9183C108.366 26.9456 108.463 26.9604 108.564 26.9604C108.71 26.9604 108.829 26.9456 108.921 26.9159C109.012 26.8862 109.087 26.849 109.146 26.802C109.196 26.7649 109.238 26.7401 109.27 26.7277C109.302 26.7129 109.344 26.7079 109.401 26.7079H109.951C110 26.7079 110.045 26.7253 110.084 26.7624C110.124 26.7995 110.141 26.8416 110.136 26.8936C110.131 26.9579 110.097 27.0396 110.03 27.1411C109.963 27.2426 109.864 27.3391 109.733 27.4357C109.599 27.5322 109.436 27.6139 109.243 27.6832C109.047 27.7525 108.824 27.7872 108.567 27.7872C108.309 27.7872 108.079 27.7426 107.871 27.6535C107.663 27.5644 107.485 27.4382 107.339 27.2723C107.193 27.1089 107.082 26.9134 107.002 26.6857C106.921 26.453 106.884 26.203 106.884 25.9282ZM108.562 24.9009C108.428 24.9009 108.317 24.9207 108.223 24.9603C108.129 24.9999 108.049 25.0494 107.985 25.1113C107.921 25.1732 107.871 25.2425 107.837 25.3168C107.802 25.391 107.78 25.4653 107.772 25.5321H109.322C109.312 25.4628 109.295 25.391 109.27 25.3168C109.245 25.2425 109.203 25.1732 109.146 25.1113C109.089 25.0494 109.012 24.9999 108.921 24.9603C108.829 24.9207 108.708 24.9009 108.562 24.9009Z" fill="#191919"/>
<path d="M113.744 24.146C113.794 24.146 113.838 24.1634 113.876 24.2005C113.913 24.2376 113.93 24.2797 113.93 24.3317V24.7847C113.93 24.8342 113.913 24.8787 113.876 24.9159C113.838 24.953 113.796 24.9703 113.744 24.9703H112.621V27.5274C112.621 27.5769 112.603 27.6214 112.566 27.6586C112.529 27.6957 112.487 27.713 112.435 27.713H111.915C111.866 27.713 111.821 27.6957 111.784 27.6586C111.747 27.6214 111.729 27.5794 111.729 27.5274V24.9678H110.606C110.556 24.9678 110.512 24.9505 110.474 24.9134C110.437 24.8763 110.42 24.8342 110.42 24.7822V24.3292C110.42 24.2797 110.437 24.2351 110.474 24.198C110.512 24.1609 110.554 24.1436 110.606 24.1436H113.744V24.146Z" fill="#191919"/>
<path d="M117.46 26.3268C117.46 26.5322 117.423 26.7204 117.347 26.8936C117.272 27.0644 117.166 27.2105 117.035 27.3318C116.901 27.4531 116.743 27.5471 116.555 27.614C116.366 27.6808 116.161 27.713 115.938 27.713H114.527C114.478 27.713 114.433 27.6957 114.396 27.6585C114.359 27.6214 114.342 27.5793 114.342 27.5273V24.3316C114.342 24.2821 114.359 24.2376 114.396 24.2005C114.433 24.1633 114.475 24.146 114.527 24.146H115.047C115.097 24.146 115.141 24.1633 115.178 24.2005C115.215 24.2376 115.233 24.2797 115.233 24.3316V24.9431H115.938C116.161 24.9431 116.369 24.9752 116.555 25.0421C116.743 25.1089 116.901 25.203 117.035 25.3243C117.168 25.4456 117.272 25.5916 117.347 25.7624C117.421 25.9332 117.46 26.1213 117.46 26.3268ZM115.233 26.8887H115.822C115.936 26.8887 116.04 26.8813 116.134 26.8639C116.228 26.8491 116.309 26.8194 116.376 26.7773C116.446 26.7352 116.498 26.6783 116.535 26.6065C116.572 26.5347 116.589 26.4407 116.589 26.3243C116.589 26.2104 116.572 26.1164 116.535 26.0421C116.498 25.9703 116.446 25.9109 116.376 25.8713C116.307 25.8292 116.228 25.802 116.134 25.7847C116.04 25.7674 115.936 25.7599 115.822 25.7599H115.233V26.8887Z" fill="#191919"/>
<path d="M120.08 25.6881C120.07 25.7574 120.065 25.8366 120.065 25.9282C120.065 26.0197 120.07 26.099 120.08 26.1683C120.095 26.3094 120.125 26.4307 120.177 26.5321C120.226 26.6336 120.291 26.7128 120.365 26.7747C120.439 26.8366 120.523 26.8812 120.615 26.9109C120.707 26.9406 120.801 26.9554 120.897 26.9554C121.011 26.9554 121.108 26.9455 121.184 26.9282C121.261 26.9109 121.328 26.8837 121.382 26.849C121.437 26.8143 121.484 26.7747 121.523 26.7327C121.563 26.6906 121.6 26.6411 121.637 26.5866C121.664 26.5445 121.697 26.5049 121.734 26.4628C121.771 26.4208 121.813 26.401 121.865 26.401H122.387C122.437 26.401 122.481 26.4183 122.521 26.4554C122.561 26.4925 122.578 26.5346 122.573 26.5866C122.568 26.6831 122.533 26.7995 122.469 26.9356C122.405 27.0718 122.306 27.203 122.169 27.3292C122.036 27.4555 121.863 27.5619 121.652 27.6485C121.442 27.7352 121.189 27.7797 120.897 27.7797C120.645 27.7797 120.419 27.7376 120.219 27.6535C120.018 27.5693 119.843 27.4555 119.694 27.3119C119.546 27.1683 119.429 27 119.345 26.8119C119.261 26.6213 119.209 26.4232 119.192 26.2128C119.182 26.1311 119.177 26.0396 119.177 25.9381C119.177 25.8366 119.182 25.745 119.192 25.6583C119.206 25.4479 119.256 25.2474 119.343 25.0544C119.429 24.8613 119.546 24.6954 119.692 24.5494C119.838 24.4058 120.013 24.2919 120.216 24.2078C120.419 24.1236 120.647 24.0815 120.9 24.0815C121.192 24.0815 121.444 24.1261 121.655 24.2127C121.865 24.2994 122.038 24.4058 122.172 24.5321C122.306 24.6583 122.407 24.7895 122.471 24.9256C122.536 25.0618 122.57 25.1781 122.575 25.2747C122.58 25.3242 122.563 25.3687 122.523 25.4059C122.484 25.443 122.439 25.4603 122.39 25.4603H121.867C121.818 25.4603 121.773 25.4405 121.736 25.3984C121.699 25.3564 121.667 25.3167 121.64 25.2747C121.603 25.2202 121.565 25.1707 121.526 25.1261C121.486 25.0816 121.439 25.0445 121.385 25.0098C121.33 24.9751 121.263 24.9504 121.187 24.9306C121.11 24.9133 121.013 24.9034 120.9 24.9034C120.803 24.9034 120.709 24.9182 120.617 24.9479C120.526 24.9776 120.442 25.0222 120.367 25.0841C120.293 25.1459 120.229 25.2276 120.179 25.3266C120.127 25.4257 120.095 25.547 120.08 25.6881Z" fill="#191919"/>
<path d="M124.716 24.0767C124.966 24.0767 125.194 24.1163 125.399 24.193C125.602 24.2697 125.778 24.3787 125.926 24.5148C126.075 24.6509 126.194 24.8118 126.283 24.995C126.372 25.1782 126.424 25.3737 126.436 25.5842C126.441 25.6262 126.444 25.6782 126.444 25.7426C126.444 25.8069 126.444 25.8713 126.444 25.9357C126.444 26 126.444 26.0619 126.444 26.1238C126.444 26.1857 126.441 26.2376 126.436 26.2773C126.419 26.4877 126.365 26.6832 126.278 26.8664C126.191 27.0496 126.072 27.208 125.924 27.3417C125.775 27.4753 125.6 27.5818 125.397 27.661C125.194 27.7377 124.966 27.7773 124.714 27.7773C124.461 27.7773 124.236 27.7377 124.03 27.661C123.827 27.5842 123.652 27.4778 123.503 27.3417C123.355 27.208 123.236 27.0471 123.149 26.8664C123.062 26.6832 123.01 26.4877 122.991 26.2773C122.986 26.2352 122.983 26.1857 122.981 26.1238C122.978 26.0619 122.978 26 122.978 25.9357C122.978 25.8713 122.978 25.8069 122.981 25.7426C122.983 25.6782 122.986 25.6262 122.991 25.5842C123.005 25.3737 123.055 25.1782 123.144 24.995C123.233 24.8118 123.352 24.6534 123.501 24.5148C123.649 24.3787 123.825 24.2697 124.028 24.193C124.236 24.1163 124.463 24.0767 124.716 24.0767ZM125.545 25.6213C125.53 25.4802 125.498 25.3614 125.446 25.2673C125.394 25.1732 125.327 25.099 125.251 25.0445C125.174 24.9901 125.087 24.9529 124.998 24.9307C124.907 24.9109 124.813 24.901 124.716 24.901C124.619 24.901 124.525 24.9109 124.434 24.9307C124.342 24.9505 124.258 24.9901 124.181 25.0445C124.105 25.099 124.038 25.1732 123.986 25.2673C123.934 25.3614 123.899 25.4777 123.887 25.6213C123.882 25.6584 123.879 25.703 123.877 25.7574C123.874 25.8119 123.874 25.8688 123.874 25.9282C123.874 25.9876 123.874 26.047 123.877 26.104C123.879 26.1609 123.882 26.2055 123.887 26.2376C123.902 26.3787 123.934 26.4976 123.986 26.5916C124.038 26.6857 124.105 26.76 124.181 26.8144C124.258 26.8689 124.345 26.906 124.434 26.9283C124.525 26.9481 124.619 26.958 124.716 26.958C124.813 26.958 124.907 26.9481 124.998 26.9283C125.09 26.9085 125.174 26.8689 125.251 26.8144C125.327 26.76 125.394 26.6857 125.446 26.5916C125.498 26.4976 125.533 26.3812 125.545 26.2376C125.55 26.2055 125.553 26.1609 125.553 26.104C125.553 26.047 125.553 25.9876 125.553 25.9282C125.553 25.8688 125.553 25.8119 125.553 25.7574C125.55 25.703 125.548 25.6559 125.545 25.6213Z" fill="#191919"/>
<path d="M127.189 27.7105C127.152 27.7105 127.12 27.6957 127.092 27.6685C127.065 27.6412 127.05 27.6091 127.05 27.5719V24.2822C127.05 24.245 127.065 24.2129 127.092 24.1856C127.12 24.1584 127.152 24.1436 127.189 24.1436H129.115C129.288 24.1436 129.449 24.1683 129.595 24.2153C129.741 24.2624 129.865 24.3292 129.969 24.4134C130.073 24.4975 130.152 24.6015 130.209 24.7228C130.266 24.8441 130.295 24.9778 130.295 25.1238C130.295 25.3194 130.263 25.4728 130.199 25.5842C130.135 25.6931 130.053 25.7822 129.951 25.8516C130.107 25.9481 130.214 26.0644 130.273 26.2006C130.333 26.3367 130.362 26.4951 130.362 26.6734C130.362 26.8417 130.333 26.9927 130.276 27.1214C130.219 27.2526 130.14 27.359 130.038 27.4482C129.937 27.5348 129.818 27.5992 129.682 27.6437C129.545 27.6858 129.394 27.7081 129.229 27.7081H127.189V27.7105ZM129.404 25.2228C129.404 25.1188 129.372 25.0446 129.308 25.0075C129.243 24.9678 129.137 24.948 128.986 24.948H127.944V25.4976H128.986C129.137 25.4976 129.243 25.4778 129.308 25.4382C129.372 25.401 129.404 25.3268 129.404 25.2228ZM127.944 26.9085H129.028C129.179 26.9085 129.29 26.8863 129.365 26.8442C129.437 26.8021 129.474 26.7229 129.474 26.6065C129.474 26.4902 129.437 26.411 129.365 26.3664C129.29 26.3219 129.179 26.2971 129.028 26.2971H127.944V26.9085Z" fill="#191919"/>
<path d="M132.929 27.7798C132.788 27.7798 132.662 27.7649 132.548 27.7377C132.437 27.7105 132.338 27.6758 132.254 27.6362C132.17 27.5966 132.098 27.5496 132.038 27.5026C131.979 27.4555 131.932 27.411 131.895 27.3689V28.8294C131.895 28.8789 131.877 28.9234 131.84 28.9605C131.803 28.9977 131.761 29.015 131.709 29.015H131.189C131.14 29.015 131.095 28.9977 131.058 28.9605C131.021 28.9234 131.004 28.8813 131.004 28.8294V24.3316C131.004 24.2821 131.021 24.2376 131.058 24.2004C131.095 24.1633 131.137 24.146 131.189 24.146H131.709C131.759 24.146 131.803 24.1633 131.84 24.2004C131.877 24.2376 131.895 24.2796 131.895 24.3316V24.49C131.932 24.448 131.979 24.4034 132.038 24.3564C132.098 24.3093 132.17 24.2648 132.254 24.2227C132.338 24.1806 132.437 24.1484 132.548 24.1187C132.66 24.0915 132.786 24.0767 132.929 24.0767C133.157 24.0767 133.365 24.1212 133.551 24.2103C133.736 24.2994 133.892 24.4183 134.024 24.5668C134.155 24.7153 134.256 24.8861 134.333 25.0817C134.407 25.2747 134.449 25.4777 134.459 25.6881C134.464 25.7574 134.467 25.8366 134.467 25.9282C134.467 26.0198 134.464 26.099 134.459 26.1683C134.449 26.3787 134.407 26.5817 134.333 26.7748C134.259 26.9679 134.155 27.1412 134.024 27.2897C133.892 27.4382 133.736 27.557 133.551 27.6461C133.363 27.7352 133.157 27.7798 132.929 27.7798ZM133.566 26.1213C133.581 25.9926 133.581 25.8663 133.566 25.7376C133.538 25.4406 133.447 25.2277 133.291 25.0965C133.135 24.9653 132.947 24.901 132.722 24.901C132.496 24.901 132.308 24.9678 132.155 25.099C132.001 25.2327 131.915 25.4208 131.89 25.6683C131.88 25.7376 131.875 25.8243 131.875 25.9282C131.875 26.0322 131.88 26.1213 131.89 26.1881C131.912 26.4258 132.001 26.6139 132.155 26.75C132.308 26.8862 132.496 26.9555 132.722 26.9555C132.944 26.9555 133.135 26.8911 133.291 26.76C133.447 26.6312 133.538 26.4184 133.566 26.1213Z" fill="#191919"/>
<path d="M134.897 25.9282C134.897 25.6732 134.937 25.4306 135.013 25.2054C135.09 24.9801 135.204 24.7821 135.35 24.6163C135.496 24.4504 135.674 24.3192 135.882 24.2227C136.09 24.1261 136.323 24.0791 136.578 24.0791C136.833 24.0791 137.065 24.1261 137.273 24.2202C137.481 24.3143 137.659 24.4405 137.806 24.5965C137.952 24.7549 138.065 24.9381 138.145 25.1509C138.224 25.3638 138.263 25.5866 138.263 25.8193V26.1287C138.263 26.1782 138.246 26.2228 138.209 26.2599C138.172 26.297 138.13 26.3144 138.078 26.3144H135.788C135.788 26.4183 135.81 26.5124 135.852 26.5916C135.897 26.6708 135.954 26.7401 136.028 26.7946C136.1 26.849 136.187 26.8911 136.283 26.9183C136.38 26.9456 136.476 26.9604 136.578 26.9604C136.724 26.9604 136.843 26.9456 136.934 26.9159C137.026 26.8862 137.1 26.849 137.159 26.802C137.209 26.7649 137.251 26.7401 137.283 26.7277C137.315 26.7129 137.357 26.7079 137.414 26.7079H137.964C138.013 26.7079 138.058 26.7253 138.098 26.7624C138.137 26.7995 138.155 26.8416 138.15 26.8936C138.145 26.9579 138.11 27.0396 138.043 27.1411C137.976 27.2426 137.877 27.3391 137.746 27.4357C137.612 27.5322 137.449 27.6139 137.256 27.6832C137.06 27.7525 136.838 27.7872 136.58 27.7872C136.325 27.7872 136.093 27.7426 135.885 27.6535C135.677 27.5644 135.498 27.4382 135.352 27.2723C135.206 27.1089 135.095 26.9134 135.016 26.6857C134.934 26.453 134.897 26.203 134.897 25.9282ZM136.575 24.9009C136.442 24.9009 136.33 24.9207 136.236 24.9603C136.142 24.9999 136.063 25.0494 135.998 25.1113C135.934 25.1732 135.885 25.2425 135.85 25.3168C135.815 25.391 135.793 25.4653 135.786 25.5321H137.335C137.325 25.4628 137.308 25.391 137.283 25.3168C137.258 25.2425 137.216 25.1732 137.159 25.1113C137.103 25.0494 137.026 24.9999 136.934 24.9603C136.843 24.9207 136.721 24.9009 136.575 24.9009Z" fill="#191919"/>
<path d="M140.752 26.0446L141.725 24.2821C141.739 24.2549 141.764 24.2252 141.799 24.193C141.836 24.1608 141.9 24.146 141.992 24.146H142.48C142.529 24.146 142.574 24.1633 142.611 24.2005C142.648 24.2376 142.665 24.2797 142.665 24.3316V27.5273C142.665 27.5768 142.648 27.6214 142.611 27.6585C142.574 27.6957 142.532 27.713 142.48 27.713H141.96C141.91 27.713 141.866 27.6957 141.829 27.6585C141.791 27.6214 141.774 27.5793 141.774 27.5273V25.807L141.123 26.958C141.101 26.9951 141.071 27.0323 141.034 27.0719C140.997 27.1115 140.947 27.1313 140.883 27.1313H140.623C140.559 27.1313 140.509 27.1115 140.472 27.0719C140.435 27.0323 140.405 26.9951 140.383 26.958L139.732 25.807V27.5273C139.732 27.5768 139.715 27.6214 139.677 27.6585C139.64 27.6957 139.598 27.713 139.546 27.713H139.026C138.977 27.713 138.932 27.6957 138.895 27.6585C138.858 27.6214 138.841 27.5793 138.841 27.5273V24.3316C138.841 24.2821 138.858 24.2376 138.895 24.2005C138.932 24.1633 138.974 24.146 139.026 24.146H139.514C139.606 24.146 139.67 24.1633 139.707 24.193C139.744 24.2252 139.769 24.2549 139.781 24.2821L140.752 26.0446Z" fill="#191919"/>
<path d="M143.259 25.9282C143.259 25.6732 143.299 25.4306 143.375 25.2054C143.452 24.9801 143.566 24.7821 143.712 24.6163C143.858 24.4504 144.036 24.3192 144.244 24.2227C144.452 24.1261 144.685 24.0791 144.94 24.0791C145.195 24.0791 145.427 24.1261 145.635 24.2202C145.843 24.3143 146.022 24.4405 146.168 24.5965C146.314 24.7549 146.427 24.9381 146.507 25.1509C146.586 25.3638 146.626 25.5866 146.626 25.8193V26.1287C146.626 26.1782 146.608 26.2228 146.571 26.2599C146.534 26.297 146.492 26.3144 146.44 26.3144H144.15C144.15 26.4183 144.172 26.5124 144.215 26.5916C144.259 26.6708 144.316 26.7401 144.39 26.7946C144.462 26.849 144.549 26.8911 144.645 26.9183C144.742 26.9456 144.838 26.9604 144.94 26.9604C145.086 26.9604 145.205 26.9456 145.296 26.9159C145.388 26.8862 145.462 26.849 145.522 26.802C145.571 26.7649 145.613 26.7401 145.645 26.7277C145.677 26.7129 145.72 26.7079 145.776 26.7079H146.326C146.376 26.7079 146.42 26.7253 146.46 26.7624C146.499 26.7995 146.517 26.8416 146.512 26.8936C146.507 26.9579 146.472 27.0396 146.405 27.1411C146.338 27.2426 146.239 27.3391 146.108 27.4357C145.975 27.5322 145.811 27.6139 145.618 27.6832C145.423 27.7525 145.2 27.7872 144.942 27.7872C144.687 27.7872 144.455 27.7426 144.247 27.6535C144.039 27.5644 143.861 27.4382 143.715 27.2723C143.568 27.1089 143.457 26.9134 143.378 26.6857C143.299 26.453 143.259 26.203 143.259 25.9282ZM144.94 24.9009C144.806 24.9009 144.695 24.9207 144.601 24.9603C144.507 24.9999 144.427 25.0494 144.363 25.1113C144.299 25.1732 144.249 25.2425 144.215 25.3168C144.18 25.391 144.158 25.4653 144.15 25.5321H145.7C145.69 25.4628 145.673 25.391 145.648 25.3168C145.623 25.2425 145.581 25.1732 145.524 25.1113C145.467 25.0494 145.39 24.9999 145.299 24.9603C145.205 24.9207 145.086 24.9009 144.94 24.9009Z" fill="#191919"/>
<path d="M150.403 24.146C150.452 24.146 150.497 24.1633 150.534 24.2005C150.571 24.2376 150.588 24.2797 150.588 24.3316V27.5273C150.588 27.5768 150.571 27.6214 150.534 27.6585C150.497 27.6957 150.455 27.713 150.403 27.713H149.88C149.831 27.713 149.786 27.6957 149.749 27.6585C149.712 27.6214 149.695 27.5793 149.695 27.5273V26.3268H148.091V27.5273C148.091 27.5768 148.073 27.6214 148.036 27.6585C147.999 27.6957 147.957 27.713 147.905 27.713H147.385C147.336 27.713 147.291 27.6957 147.254 27.661C147.217 27.6264 147.199 27.5818 147.199 27.5273V24.3316C147.199 24.2821 147.217 24.2376 147.254 24.2005C147.291 24.1633 147.333 24.146 147.385 24.146H147.905C147.954 24.146 147.999 24.1633 148.036 24.2005C148.073 24.2376 148.091 24.2797 148.091 24.3316V25.505H149.695V24.3316C149.695 24.2821 149.712 24.2376 149.749 24.2005C149.786 24.1633 149.828 24.146 149.88 24.146H150.403Z" fill="#191919"/>
<path d="M154.567 24.146C154.616 24.146 154.661 24.1633 154.698 24.2005C154.735 24.2376 154.752 24.2797 154.752 24.3316V27.5273C154.752 27.5768 154.735 27.6214 154.698 27.6585C154.661 27.6957 154.619 27.713 154.567 27.713H154.044C153.995 27.713 153.95 27.6957 153.913 27.6585C153.876 27.6214 153.859 27.5793 153.859 27.5273V26.3268H152.255V27.5273C152.255 27.5768 152.237 27.6214 152.2 27.6585C152.163 27.6957 152.121 27.713 152.069 27.713H151.549C151.5 27.713 151.455 27.6957 151.418 27.661C151.381 27.6264 151.364 27.5818 151.364 27.5273V24.3316C151.364 24.2821 151.381 24.2376 151.418 24.2005C151.455 24.1633 151.497 24.146 151.549 24.146H152.069C152.119 24.146 152.163 24.1633 152.2 24.2005C152.237 24.2376 152.255 24.2797 152.255 24.3316V25.505H153.859V24.3316C153.859 24.2821 153.876 24.2376 153.913 24.2005C153.95 24.1633 153.992 24.146 154.044 24.146H154.567Z" fill="#191919"/>
<path d="M158.643 26.3268C158.643 26.5322 158.606 26.7204 158.529 26.8936C158.455 27.0644 158.349 27.2105 158.217 27.3318C158.084 27.4531 157.925 27.5471 157.737 27.614C157.549 27.6808 157.344 27.713 157.121 27.713H155.707C155.658 27.713 155.613 27.6957 155.576 27.6585C155.539 27.6214 155.522 27.5793 155.522 27.5273V24.3316C155.522 24.2821 155.539 24.2376 155.576 24.2005C155.613 24.1633 155.655 24.146 155.707 24.146H156.227C156.277 24.146 156.321 24.1633 156.358 24.2005C156.396 24.2376 156.413 24.2797 156.413 24.3316V24.9431H157.118C157.341 24.9431 157.549 24.9752 157.735 25.0421C157.923 25.1089 158.081 25.203 158.215 25.3243C158.349 25.4456 158.453 25.5916 158.527 25.7624C158.601 25.9332 158.643 26.1213 158.643 26.3268ZM156.415 26.8887H157.004C157.118 26.8887 157.222 26.8813 157.316 26.8639C157.41 26.8491 157.492 26.8194 157.559 26.7773C157.628 26.7352 157.68 26.6783 157.717 26.6065C157.755 26.5347 157.772 26.4407 157.772 26.3243C157.772 26.2104 157.755 26.1164 157.717 26.0421C157.68 25.9703 157.628 25.9109 157.559 25.8713C157.49 25.8292 157.41 25.802 157.316 25.7847C157.222 25.7674 157.118 25.7599 157.004 25.7599H156.415V26.8887ZM158.987 24.3316C158.987 24.2821 159.005 24.2376 159.042 24.2005C159.079 24.1633 159.121 24.146 159.173 24.146H159.695C159.745 24.146 159.789 24.1633 159.826 24.2005C159.863 24.2376 159.881 24.2797 159.881 24.3316V27.5273C159.881 27.5768 159.863 27.6214 159.826 27.6585C159.789 27.6957 159.747 27.713 159.695 27.713H159.173C159.123 27.713 159.079 27.6957 159.042 27.6585C159.005 27.6214 158.987 27.5793 158.987 27.5273V24.3316Z" fill="#191919"/>
<path d="M162.175 26.5793L161.366 27.5793C161.319 27.6338 161.274 27.6709 161.225 27.6858C161.177 27.7006 161.123 27.7105 161.064 27.7105H160.536C160.487 27.7105 160.445 27.6932 160.41 27.6561C160.375 27.6189 160.358 27.5744 160.358 27.5199C160.358 27.4828 160.368 27.4506 160.385 27.4234L161.621 25.8936L160.442 24.4331C160.425 24.4059 160.415 24.3737 160.415 24.3366C160.415 24.2821 160.432 24.2351 160.467 24.2005C160.502 24.1633 160.544 24.146 160.593 24.146H161.121C161.18 24.146 161.234 24.1534 161.281 24.1707C161.328 24.1856 161.376 24.2227 161.423 24.2772L162.197 25.2376L162.965 24.2772C163.009 24.2227 163.056 24.1881 163.106 24.1707C163.153 24.1559 163.207 24.146 163.267 24.146H163.794C163.843 24.146 163.886 24.1633 163.92 24.2005C163.955 24.2376 163.972 24.2821 163.972 24.3366C163.972 24.3737 163.962 24.4059 163.945 24.4331L162.752 25.9208L163.972 27.4234C163.99 27.4506 163.999 27.4828 163.999 27.5199C163.999 27.5744 163.982 27.6214 163.947 27.6561C163.913 27.6932 163.871 27.7105 163.821 27.7105H163.294C163.235 27.7105 163.18 27.7031 163.133 27.6858C163.086 27.6709 163.039 27.6338 162.992 27.5793L162.175 26.5793Z" fill="#191919"/>
<path d="M103.269 32.4456C103.287 32.3491 103.329 32.2476 103.396 32.1362C103.462 32.0273 103.557 31.9233 103.678 31.8268C103.799 31.7302 103.948 31.651 104.123 31.5891C104.299 31.5273 104.505 31.4976 104.737 31.4976C104.97 31.4976 105.18 31.5273 105.369 31.5891C105.557 31.651 105.718 31.7401 105.851 31.859C105.985 31.9778 106.089 32.1263 106.163 32.307C106.237 32.4877 106.272 32.6956 106.272 32.9283V34.9433C106.272 34.9928 106.255 35.0373 106.218 35.0745C106.18 35.1116 106.138 35.1289 106.086 35.1289H105.567C105.517 35.1289 105.472 35.1116 105.435 35.0745C105.398 35.0373 105.381 34.9952 105.381 34.9433V34.718C105.284 34.8517 105.146 34.9631 104.965 35.0571C104.784 35.1512 104.554 35.1982 104.277 35.1982C104.081 35.1982 103.903 35.171 103.75 35.119C103.594 35.067 103.465 34.9928 103.359 34.8962C103.255 34.7997 103.173 34.6883 103.116 34.5571C103.059 34.4259 103.029 34.2848 103.029 34.1289C103.029 33.8145 103.141 33.567 103.366 33.3887C103.589 33.2105 103.888 33.0892 104.264 33.0249L105.381 32.8318C105.381 32.6437 105.319 32.5125 105.195 32.4332C105.071 32.3565 104.918 32.3169 104.735 32.3169C104.621 32.3169 104.532 32.3318 104.467 32.3639C104.403 32.3961 104.341 32.4382 104.282 32.4951C104.24 32.5323 104.203 32.557 104.168 32.5694C104.133 32.5842 104.096 32.5892 104.054 32.5892H103.415C103.368 32.5892 103.331 32.5743 103.299 32.5471C103.267 32.5199 103.26 32.4927 103.269 32.4456ZM104.413 34.3789C104.569 34.3789 104.708 34.3566 104.829 34.3145C104.95 34.27 105.052 34.213 105.133 34.1388C105.215 34.0645 105.277 33.9828 105.319 33.8912C105.361 33.7996 105.381 33.7056 105.381 33.609V33.5397L104.448 33.7056C104.26 33.7378 104.126 33.7848 104.044 33.8467C103.963 33.9086 103.92 33.9927 103.92 34.0967C103.92 34.1932 103.97 34.2625 104.069 34.3096C104.165 34.3566 104.282 34.3789 104.413 34.3789Z" fill="#191919"/>
<path d="M107.151 35.1344C107.113 35.1344 107.081 35.1195 107.054 35.0923C107.027 35.0651 107.012 35.0329 107.012 34.9958V31.706C107.012 31.6689 107.027 31.6367 107.054 31.6095C107.081 31.5822 107.113 31.5674 107.151 31.5674H109.076C109.25 31.5674 109.411 31.5921 109.557 31.6392C109.703 31.6862 109.826 31.753 109.93 31.8372C110.032 31.9214 110.114 32.0253 110.171 32.1466C110.227 32.2679 110.257 32.4016 110.257 32.5476C110.257 32.7432 110.225 32.8967 110.161 33.008C110.096 33.117 110.015 33.2061 109.913 33.2754C110.069 33.3719 110.175 33.4883 110.235 33.6244C110.294 33.7606 110.324 33.919 110.324 34.0972C110.324 34.2655 110.294 34.4165 110.237 34.5452C110.18 34.6764 110.101 34.7829 110 34.872C109.898 34.9586 109.779 35.023 109.643 35.0675C109.507 35.1096 109.356 35.1319 109.19 35.1319H107.151V35.1344ZM109.364 32.6466C109.364 32.5427 109.331 32.4684 109.267 32.4313C109.203 32.3917 109.096 32.3719 108.945 32.3719H107.903V32.9214H108.945C109.096 32.9214 109.203 32.9016 109.267 32.862C109.331 32.8224 109.364 32.7506 109.364 32.6466ZM107.903 34.3324H108.987C109.138 34.3324 109.25 34.3101 109.324 34.268C109.396 34.2259 109.433 34.1467 109.433 34.0304C109.433 33.914 109.396 33.8348 109.324 33.7903C109.25 33.7457 109.138 33.7209 108.987 33.7209H107.903V34.3324Z" fill="#191919"/>
<path d="M113.896 31.5693C113.946 31.5693 113.99 31.5867 114.028 31.6238C114.065 31.6609 114.082 31.703 114.082 31.755V32.208C114.082 32.2575 114.065 32.302 114.028 32.3392C113.99 32.3763 113.948 32.3936 113.896 32.3936H112.773V34.9507C112.773 35.0002 112.755 35.0447 112.718 35.0819C112.681 35.119 112.639 35.1363 112.587 35.1363H112.067C112.018 35.1363 111.973 35.119 111.936 35.0819C111.899 35.0447 111.881 35.0027 111.881 34.9507V32.3936H110.758C110.708 32.3936 110.664 32.3763 110.626 32.3392C110.589 32.302 110.572 32.26 110.572 32.208V31.755C110.572 31.7055 110.589 31.6609 110.626 31.6238C110.664 31.5867 110.706 31.5693 110.758 31.5693H113.896Z" fill="#191919"/>
<path d="M116.007 31.5005C116.257 31.5005 116.485 31.5401 116.691 31.6168C116.894 31.6936 117.069 31.8025 117.218 31.9386C117.366 32.0748 117.485 32.2357 117.574 32.4188C117.663 32.602 117.715 32.7976 117.728 33.008C117.733 33.0501 117.735 33.102 117.735 33.1664C117.735 33.2308 117.735 33.2951 117.735 33.3595C117.735 33.4238 117.735 33.4857 117.735 33.5476C117.735 33.6095 117.733 33.6615 117.728 33.7011C117.711 33.9115 117.656 34.107 117.569 34.2902C117.483 34.4734 117.364 34.6318 117.215 34.7655C117.067 34.8992 116.891 35.0056 116.688 35.0848C116.485 35.1615 116.257 35.2011 116.005 35.2011C115.753 35.2011 115.527 35.1615 115.322 35.0848C115.119 35.0081 114.943 34.9016 114.795 34.7655C114.646 34.6318 114.527 34.4709 114.441 34.2902C114.354 34.107 114.302 33.9115 114.282 33.7011C114.277 33.659 114.275 33.6095 114.272 33.5476C114.27 33.4857 114.27 33.4238 114.27 33.3595C114.27 33.2951 114.27 33.2308 114.272 33.1664C114.275 33.102 114.277 33.0501 114.282 33.008C114.297 32.7976 114.347 32.602 114.436 32.4188C114.525 32.2357 114.644 32.0772 114.792 31.9386C114.941 31.8025 115.116 31.6936 115.319 31.6168C115.53 31.5401 115.757 31.5005 116.007 31.5005ZM116.837 33.0426C116.822 32.9015 116.79 32.7827 116.738 32.6887C116.686 32.5946 116.619 32.5203 116.542 32.4659C116.465 32.4114 116.379 32.3743 116.29 32.352C116.198 32.3322 116.104 32.3223 116.007 32.3223C115.911 32.3223 115.817 32.3322 115.725 32.352C115.634 32.3718 115.55 32.4114 115.473 32.4659C115.396 32.5203 115.329 32.5946 115.277 32.6887C115.225 32.7827 115.191 32.8991 115.178 33.0426C115.173 33.0798 115.171 33.1243 115.168 33.1788C115.166 33.2332 115.166 33.2902 115.166 33.3496C115.166 33.409 115.166 33.4684 115.168 33.5253C115.171 33.5823 115.173 33.6268 115.178 33.659C115.193 33.8001 115.225 33.9189 115.277 34.013C115.329 34.107 115.396 34.1813 115.473 34.2358C115.55 34.2902 115.636 34.3273 115.725 34.3496C115.817 34.3694 115.911 34.3793 116.007 34.3793C116.104 34.3793 116.198 34.3694 116.29 34.3496C116.381 34.3298 116.465 34.2902 116.542 34.2358C116.619 34.1813 116.686 34.107 116.738 34.013C116.79 33.9189 116.824 33.8026 116.837 33.659C116.842 33.6268 116.844 33.5823 116.844 33.5253C116.844 33.4684 116.844 33.409 116.844 33.3496C116.844 33.2902 116.844 33.2332 116.844 33.1788C116.844 33.1268 116.842 33.0798 116.837 33.0426Z" fill="#191919"/>
<path d="M119.052 31.5693C119.101 31.5693 119.146 31.5867 119.183 31.6238C119.22 31.6609 119.238 31.703 119.238 31.755V34.312H120.163V31.755C120.163 31.7055 120.181 31.6609 120.218 31.6238C120.255 31.5867 120.297 31.5693 120.349 31.5693H120.869C120.918 31.5693 120.963 31.5867 121 31.6238C121.037 31.6609 121.054 31.703 121.054 31.755V34.312H121.98V31.755C121.98 31.7055 121.998 31.6609 122.035 31.6238C122.072 31.5867 122.114 31.5693 122.166 31.5693H122.688C122.738 31.5693 122.782 31.5867 122.819 31.6238C122.857 31.6609 122.874 31.703 122.874 31.755V34.9507C122.874 35.0002 122.857 35.0447 122.819 35.0819C122.782 35.119 122.74 35.1363 122.688 35.1363H118.535C118.485 35.1363 118.44 35.119 118.403 35.0819C118.366 35.0447 118.349 35.0027 118.349 34.9507V31.755C118.349 31.7055 118.366 31.6609 118.403 31.6238C118.44 31.5867 118.483 31.5693 118.535 31.5693H119.052Z" fill="#191919"/>
<path d="M124.536 33.8719V34.9487C124.536 34.9982 124.519 35.0428 124.481 35.0799C124.444 35.117 124.402 35.1344 124.35 35.1344H123.83C123.781 35.1344 123.736 35.117 123.699 35.0799C123.662 35.0428 123.645 35.0007 123.645 34.9487V31.753C123.645 31.7035 123.662 31.659 123.699 31.6218C123.736 31.5847 123.778 31.5674 123.83 31.5674H124.35C124.4 31.5674 124.444 31.5847 124.481 31.6218C124.519 31.659 124.536 31.7011 124.536 31.753V32.8372L125.798 31.6862C125.826 31.6639 125.86 31.6392 125.905 31.6119C125.949 31.5847 126.001 31.5699 126.066 31.5699H126.717C126.761 31.5699 126.801 31.5847 126.833 31.6169C126.865 31.6491 126.88 31.6887 126.88 31.7332C126.88 31.7555 126.878 31.7778 126.87 31.7976C126.863 31.8174 126.84 31.8421 126.806 31.8694L125.209 33.315L126.957 34.8373C126.984 34.8646 127.001 34.8868 127.011 34.9066C127.021 34.924 127.024 34.9462 127.024 34.9685C127.024 35.0156 127.009 35.0527 126.977 35.0849C126.944 35.117 126.905 35.1319 126.86 35.1319H126.133C126.063 35.1319 126.006 35.117 125.957 35.0898C125.91 35.0626 125.873 35.0378 125.85 35.0156L124.536 33.8719Z" fill="#191919"/>
<path d="M128.734 31.5005C128.984 31.5005 129.212 31.5401 129.417 31.6168C129.62 31.6936 129.796 31.8025 129.944 31.9386C130.093 32.0748 130.212 32.2357 130.301 32.4188C130.39 32.602 130.442 32.7976 130.454 33.008C130.459 33.0501 130.462 33.102 130.462 33.1664C130.462 33.2308 130.462 33.2951 130.462 33.3595C130.462 33.4238 130.462 33.4857 130.462 33.5476C130.462 33.6095 130.459 33.6615 130.454 33.7011C130.437 33.9115 130.382 34.107 130.296 34.2902C130.209 34.4734 130.09 34.6318 129.942 34.7655C129.793 34.8992 129.618 35.0056 129.415 35.0848C129.212 35.1615 128.984 35.2011 128.731 35.2011C128.479 35.2011 128.254 35.1615 128.048 35.0848C127.845 35.0081 127.669 34.9016 127.521 34.7655C127.372 34.6318 127.254 34.4709 127.167 34.2902C127.08 34.107 127.028 33.9115 127.008 33.7011C127.004 33.659 127.001 33.6095 126.999 33.5476C126.996 33.4857 126.996 33.4238 126.996 33.3595C126.996 33.2951 126.996 33.2308 126.999 33.1664C127.001 33.102 127.004 33.0501 127.008 33.008C127.023 32.7976 127.073 32.602 127.162 32.4188C127.251 32.2357 127.37 32.0772 127.518 31.9386C127.667 31.8025 127.843 31.6936 128.046 31.6168C128.254 31.5401 128.481 31.5005 128.734 31.5005ZM129.563 33.0426C129.548 32.9015 129.516 32.7827 129.464 32.6887C129.412 32.5946 129.345 32.5203 129.268 32.4659C129.192 32.4114 129.105 32.3743 129.016 32.352C128.924 32.3322 128.83 32.3223 128.734 32.3223C128.637 32.3223 128.543 32.3322 128.452 32.352C128.36 32.3718 128.276 32.4114 128.199 32.4659C128.122 32.5203 128.056 32.5946 128.004 32.6887C127.952 32.7827 127.917 32.8991 127.905 33.0426C127.9 33.0798 127.897 33.1243 127.895 33.1788C127.892 33.2332 127.892 33.2902 127.892 33.3496C127.892 33.409 127.892 33.4684 127.895 33.5253C127.897 33.5823 127.9 33.6268 127.905 33.659C127.919 33.8001 127.952 33.9189 128.004 34.013C128.056 34.107 128.122 34.1813 128.199 34.2358C128.276 34.2902 128.362 34.3273 128.452 34.3496C128.543 34.3694 128.637 34.3793 128.734 34.3793C128.83 34.3793 128.924 34.3694 129.016 34.3496C129.108 34.3298 129.192 34.2902 129.268 34.2358C129.345 34.1813 129.412 34.107 129.464 34.013C129.516 33.9189 129.551 33.8026 129.563 33.659C129.568 33.6268 129.57 33.5823 129.57 33.5253C129.57 33.4684 129.57 33.409 129.57 33.3496C129.57 33.2902 129.57 33.2332 129.57 33.1788C129.568 33.1268 129.568 33.0798 129.563 33.0426Z" fill="#191919"/>
<path d="M132.298 32.3917V33.8719C132.298 34.2878 132.194 34.6146 131.986 34.8497C131.778 35.0849 131.452 35.2037 131.009 35.2037H130.85C130.801 35.2037 130.756 35.1864 130.719 35.1492C130.682 35.1121 130.665 35.07 130.665 35.018V34.565C130.665 34.5155 130.682 34.471 130.719 34.4338C130.756 34.3967 130.798 34.3794 130.85 34.3794H130.974C131.157 34.3794 131.273 34.3324 131.328 34.2383C131.38 34.1442 131.407 34.0106 131.407 33.8373V31.753C131.407 31.7035 131.424 31.659 131.462 31.6218C131.499 31.5847 131.541 31.5674 131.593 31.5674H134.108C134.157 31.5674 134.202 31.5847 134.239 31.6218C134.276 31.659 134.293 31.7011 134.293 31.753V34.9487C134.293 34.9982 134.276 35.0428 134.239 35.0799C134.202 35.117 134.16 35.1344 134.108 35.1344H133.588C133.538 35.1344 133.494 35.117 133.457 35.0799C133.42 35.0428 133.402 35.0007 133.402 34.9487V32.3917H132.298Z" fill="#191919"/>
</g>
</g>
<defs>
<clipPath id="clip0_2_11662">
<rect width="164" height="37.2368" fill="white" transform="translate(0 0.821289)"/>
</clipPath>
<clipPath id="clip1_2_11662">
<rect width="164" height="37.2368" fill="white" transform="translate(0 0.821289)"/>
</clipPath>
</defs>
</svg>
