<svg width="147" height="139" viewBox="0 0 147 139" fill="none" xmlns="http://www.w3.org/2000/svg">
<rect x="16.0664" y="12.5574" width="74.8985" height="114.459" rx="15" transform="rotate(-9.65171 16.0664 12.5574)" fill="white"/>
<rect y="7.53784" width="23.8042" height="23.8042" rx="11.9021" transform="rotate(-11.9453 0 7.53784)" fill="#FF941F"/>
<path d="M44 29.7742L78.6171 24.6111" stroke="#EFEFEF" stroke-width="4" stroke-linecap="round"/>
<path d="M46.2129 44.6099L74.8956 40.332" stroke="#EFEFEF" stroke-width="4" stroke-linecap="round"/>
<path d="M48.2783 58.4578L82.8954 53.2947" stroke="#EFEFEF" stroke-width="4" stroke-linecap="round"/>
<path d="M50.3438 72.3035L77.0484 68.3205" stroke="#EFEFEF" stroke-width="4" stroke-linecap="round"/>
<rect width="8.12265" height="8.12265" rx="4.06132" transform="matrix(0.938405 0.345537 -0.345525 0.93841 30.8066 26.6099)" fill="#2D2D2D"/>
<rect width="8.12265" height="8.12265" rx="4.06132" transform="matrix(0.938405 0.345537 -0.345525 0.93841 32.8066 40.6099)" fill="#2D2D2D"/>
<rect width="8.12265" height="8.12265" rx="4.06132" transform="matrix(0.938405 0.345537 -0.345525 0.93841 34.8066 54.6099)" fill="#2D2D2D"/>
<rect width="8.12265" height="8.12265" rx="4.06132" transform="matrix(0.938405 0.345537 -0.345525 0.93841 36.8066 68.6099)" fill="#2D2D2D"/>
<path d="M32 31.1101L33 32.6101L34.5 30.6101" stroke="white" stroke-linecap="round" stroke-linejoin="round"/>
<path d="M34 45.1101L35 46.6101L36.5 44.6101" stroke="white" stroke-linecap="round" stroke-linejoin="round"/>
<path d="M36 59.1101L37 60.6101L38.5 58.6101" stroke="white" stroke-linecap="round" stroke-linejoin="round"/>
<path d="M10.8389 17.4189L13.4315 20.53L17.8389 13.53" stroke="white" stroke-width="2" stroke-linecap="round" stroke-linejoin="round"/>
<path d="M38 73.1101L39 74.6101L40.5 72.6101" stroke="white" stroke-linecap="round" stroke-linejoin="round"/>
<g filter="url(#filter0_d_2_15889)">
<rect width="41.8834" height="41.8834" rx="20.9417" transform="matrix(0.938407 0.345531 -0.34553 0.938408 93.4717 60.6099)" fill="#4B8EFF"/>
</g>
<g clip-path="url(#clip0_2_15889)">
<path d="M113.476 86.7245C112.728 92.5097 104.649 96.5065 104.649 96.5065C104.649 96.5065 97.852 90.5859 98.6001 84.8007C98.8552 82.828 99.8835 81.0375 101.459 79.823C103.034 78.6084 105.027 78.0695 107 78.3246C108.973 78.5797 110.763 79.608 111.978 81.1833C113.192 82.7586 113.731 84.7518 113.476 86.7245Z" stroke="white" stroke-width="1.4" stroke-linecap="round" stroke-linejoin="round"/>
<path d="M105.717 88.242C107.087 88.4191 108.34 87.4526 108.517 86.0833C108.695 84.714 107.728 83.4604 106.359 83.2833C104.989 83.1062 103.736 84.0727 103.559 85.442C103.382 86.8113 104.348 88.0649 105.717 88.242Z" stroke="white" stroke-width="1.4" stroke-linecap="round" stroke-linejoin="round"/>
</g>
<defs>
<filter id="filter0_d_2_15889" x="62.9402" y="54.5503" width="83.8948" height="83.8949" filterUnits="userSpaceOnUse" color-interpolation-filters="sRGB">
<feFlood flood-opacity="0" result="BackgroundImageFix"/>
<feColorMatrix in="SourceAlpha" type="matrix" values="0 0 0 0 0 0 0 0 0 0 0 0 0 0 0 0 0 0 127 0" result="hardAlpha"/>
<feMorphology radius="3" operator="erode" in="SourceAlpha" result="effect1_dropShadow_2_15889"/>
<feOffset dx="-1" dy="9"/>
<feGaussianBlur stdDeviation="12"/>
<feComposite in2="hardAlpha" operator="out"/>
<feColorMatrix type="matrix" values="0 0 0 0 0.309804 0 0 0 0 0.560784 0 0 0 0 0.992157 0 0 0 0.84 0"/>
<feBlend mode="normal" in2="BackgroundImageFix" result="effect1_dropShadow_2_15889"/>
<feBlend mode="normal" in="SourceGraphic" in2="effect1_dropShadow_2_15889" result="shape"/>
</filter>
<clipPath id="clip0_2_15889">
<rect width="20" height="20" fill="white" transform="translate(97.1895 76.2156) rotate(7.36859)"/>
</clipPath>
</defs>
</svg>
