<svg width="17" height="16" viewBox="0 0 17 16" fill="none" xmlns="http://www.w3.org/2000/svg">
<path d="M7.99934 0.461644C8.38568 -0.139848 9.26482 -0.139848 9.65116 0.461643L11.7977 3.80355C11.9306 4.0105 12.1364 4.16001 12.3743 4.22248L16.2159 5.23123C16.9074 5.41279 17.1791 6.24891 16.7264 6.80221L14.2114 9.87638C14.0556 10.0668 13.977 10.3087 13.9911 10.5542L14.2189 14.5196C14.2599 15.2333 13.5486 15.75 12.8825 15.4905L9.18162 14.0485C8.95243 13.9592 8.69807 13.9592 8.46889 14.0485L4.768 15.4905C4.10189 15.75 3.39065 15.2333 3.43164 14.5196L3.65939 10.5542C3.6735 10.3087 3.5949 10.0668 3.43915 9.87638L0.924117 6.80221C0.47145 6.24891 0.743121 5.41279 1.43456 5.23123L5.27621 4.22248C5.51411 4.16001 5.71989 4.0105 5.85282 3.80355L7.99934 0.461644Z" fill="#4F8FFD"/>
</svg>
